<?xml version="1.0" encoding="utf-8"?>

<!DOCTYPE svg PUBLIC "-//W3C//DTD SVG 1.1//EN" "http://www.w3.org/Graphics/SVG/1.1/DTD/svg11.dtd">
<svg version="1.1" id="Layer_30" xmlns="http://www.w3.org/2000/svg" xmlns:xlink="http://www.w3.org/1999/xlink" x="0px" y="0px"
	 width="159px" height="119px" viewBox="0 0 159 119" enable-background="new 0 0 159 119" xml:space="preserve">
<g>
	<g id="layer1_1_" transform="translate(224.07642,-77.725213)">
		<g id="g5017_1_" transform="matrix(1.25,0,0,-1.25,-720.46773,1046.7118)">
			<g id="g85_1_">
				<path id="path87_1_" fill="#A8A8A8" d="M426.713,717.589h68v15.2h-68V717.589z"/>
			</g>
			<g id="g89_1_">
				<path id="path91_1_" fill="#FFFFFF" d="M430.007,730.682h2.729v-9.146h3.652v-2.338h-6.381V730.682z"/>
			</g>
			<g id="g93_1_">
				<path id="path95_1_" fill="#FFFFFF" d="M434.635,727.073c0.344,0.4,0.66,0.842,0.844,1.34c-0.712,0.027-1.254,0.525-1.254,1.297
					c0,0.801,0.595,1.354,1.347,1.354c0.872,0,1.427-0.76,1.427-1.629c0-1.119-0.966-2.279-1.77-2.928L434.635,727.073z"/>
			</g>
			<g id="g97_1_">
				<path id="path99_1_" fill="#FFFFFF" d="M438.239,730.682h6.703v-2.226h-4.011v-2.322h3.362v-2.226h-3.362v-2.387h4.011v-2.322
					h-6.703V730.682z"/>
			</g>
			<g id="g101_1_">
				<path id="path103_1_" fill="#FFFFFF" d="M456.6,728.65h0.478c0.777,0,1.676-0.339,1.676-1.419c0-1.081-0.898-1.403-1.676-1.403
					H456.6V728.65z M453.906,719.199h2.694v4.661c0.343-0.032,0.688-0.064,1.032-0.064c2.14,0,3.905,0.984,3.905,3.628
					c0,2.257-1.616,3.258-3.621,3.258h-4.01V719.199z"/>
			</g>
			<g id="g105_1_">
				<path id="path107_1_" fill="#FFFFFF" d="M464.735,728.553h0.447c0.9,0,1.751-0.097,1.751-1.29c0-0.92-0.657-1.257-1.674-1.257
					h-0.524V728.553z M462.041,719.199h2.694v4.967h0.898l1.671-4.967h2.663l-2.12,5.58c1.049,0.419,1.781,1.435,1.781,2.644
					c0,2.257-1.556,3.258-3.576,3.258h-4.011V719.199z"/>
			</g>
			<g id="g109_1_">
				<path id="path111_1_" fill="#FFFFFF" d="M470.313,730.682h6.703v-2.226h-4.009v-2.322h3.359v-2.226h-3.359v-2.387h4.009v-2.322
					h-6.703V730.682z"/>
			</g>
			<g id="g113_1_">
				<path id="path115_1_" fill="#FFFFFF" d="M479.643,722.845c0.388-0.968,0.808-1.646,1.841-1.646c0.614,0,1.108,0.42,1.108,0.968
					c0,2.338-4.729,1.048-4.729,5.483c0,1.727,1.601,3.259,3.441,3.259c1.795,0,3.142-1.097,3.607-2.531l-2.14-0.968
					c-0.285,0.677-0.688,1.274-1.467,1.274c-0.466,0-0.928-0.305-0.928-0.967c0-1.629,4.818-1.258,4.818-4.854
					c0-2.355-1.795-3.887-3.89-3.887c-1.81,0-3.262,1.033-3.891,2.903L479.643,722.845z"/>
			</g>
			<g id="g117_1_">
				<path id="path119_1_" fill="#FFFFFF" d="M487.1,722.845c0.39-0.968,0.808-1.646,1.84-1.646c0.613,0,1.107,0.42,1.107,0.968
					c0,2.338-4.728,1.048-4.728,5.483c0,1.727,1.602,3.259,3.441,3.259c1.795,0,3.143-1.097,3.606-2.531l-2.141-0.968
					c-0.283,0.677-0.687,1.274-1.466,1.274c-0.464,0-0.927-0.305-0.927-0.967c0-1.629,4.817-1.258,4.817-4.854
					c0-2.355-1.795-3.887-3.89-3.887c-1.811,0-3.262,1.033-3.891,2.903L487.1,722.845z"/>
			</g>
			<g id="g121_1_">
				<path id="path123_1_" fill="#FFFFFF" d="M450.952,725.44l2.711,5.242h-2.646l-1.317-2.655l-1.007,2.655h-3.154l2.605-5.774
					l-2.903-5.709h2.673l1.471,3.021l1.257-3.021h3.108L450.952,725.44z"/>
			</g>
		</g>
	</g>
</g>
</svg>
