<?xml version="1.0" encoding="utf-8"?>

<!DOCTYPE svg PUBLIC "-//W3C//DTD SVG 1.1//EN" "http://www.w3.org/Graphics/SVG/1.1/DTD/svg11.dtd">
<svg version="1.1" id="Layer_30" xmlns="http://www.w3.org/2000/svg" xmlns:xlink="http://www.w3.org/1999/xlink" x="0px" y="0px"
	 width="159px" height="119px" viewBox="0 0 159 119" enable-background="new 0 0 159 119" xml:space="preserve">
<g>
	<g>
		<path id="background_1_" fill="#A8A8A8" d="M105,85H55V35h50V85z"/>
		<g>
			<path id="letter_o_1_" fill="#FFFFFF" d="M61.153,80.467c-1.811,0-3.443-1.15-3.443-3.669c0-2.521,1.633-3.672,3.443-3.672
				c1.812,0,3.442,1.151,3.442,3.672C64.596,79.317,62.965,80.467,61.153,80.467 M61.153,74.672c-1.368,0-1.618,1.232-1.618,2.125
				c0,0.889,0.25,2.125,1.618,2.125c1.369,0,1.618-1.235,1.618-2.125C62.771,75.904,62.522,74.672,61.153,74.672"/>
			<path id="letter_r_1_" fill="#FFFFFF" d="M65.851,73.307h1.743v0.82c0.332-0.444,1.15-0.962,1.915-0.962
				c0.076,0,0.165,0,0.241,0.01v1.72h-0.092c-0.796,0-1.666,0.126-1.948,0.741v4.63h-1.859V73.307L65.851,73.307z"/>
			<path id="letter_a_1_" fill="#FFFFFF" d="M74.615,79.659c-0.705,0.466-1.478,0.693-2.302,0.693c-1.298,0-2.069-0.865-2.069-2.025
				c0-1.558,1.433-2.379,4.385-2.711v-0.39c0-0.505-0.382-0.801-1.09-0.801c-0.712,0-1.288,0.281-1.703,0.801l-1.234-0.704
				c0.652-0.908,1.636-1.362,2.962-1.362c1.817,0,2.835,0.786,2.835,2.065c0,0-0.001,5.031,0,5.044h-1.624L74.615,79.659
				L74.615,79.659z M72.05,78.194c0,0.468,0.294,0.905,0.825,0.905c0.572,0,1.136-0.236,1.696-0.732v-1.648
				C72.858,76.93,72.05,77.371,72.05,78.194"/>
			<path id="letter_n_1_" fill="#FFFFFF" d="M77.848,73.492l1.517-0.207l0.171,0.824c0.852-0.626,1.528-0.959,2.384-0.959
				c1.433,0,2.174,0.76,2.174,2.264v4.844H82.26v-4.525c0-0.853-0.22-1.235-0.883-1.235c-0.545,0-1.094,0.249-1.715,0.771v4.99
				h-1.814V73.492L77.848,73.492z"/>
			<path id="letter_g_1_" fill="#FFFFFF" d="M88.575,78.77c1.386-0.009,1.507-1.425,1.507-2.345c0-1.091-0.532-1.971-1.52-1.971
				c-0.658,0-1.395,0.479-1.395,2.046C87.168,77.358,87.229,78.781,88.575,78.77 M91.842,73.283v6.591
				c0,1.158-0.094,3.077-3.404,3.094c-1.368,0.011-2.638-0.54-2.895-1.732l1.808-0.293c0.076,0.342,0.287,0.684,1.311,0.684
				c0.948,0,1.404-0.455,1.404-1.542v-0.811l-0.023-0.024c-0.292,0.522-0.734,1.016-1.797,1.016c-1.621,0-2.898-1.127-2.898-3.478
				c0-2.328,1.316-3.632,2.794-3.634c1.394-0.002,1.902,0.632,2.024,0.964l-0.023-0.002l0.15-0.833H91.842L91.842,73.283z"/>
			<path id="letter_e_1_" fill="#FFFFFF" d="M96.22,80.392c-2.05,0-3.274-1.32-3.274-3.609c0-2.315,1.236-3.633,3.244-3.633
				c2.009,0,3.202,1.279,3.202,3.541c0,0.121-0.013,0.24-0.013,0.359h-4.634c0.012,1.32,0.559,1.985,1.638,1.985
				c0.691,0,1.15-0.278,1.577-0.89l1.343,0.743C98.711,79.875,97.648,80.392,96.22,80.392 M97.594,75.864
				c0-0.93-0.536-1.478-1.404-1.478c-0.827,0-1.343,0.537-1.417,1.478H97.594L97.594,75.864z"/>
			<path id="letter_TM_1_" fill="#FFFFFF" d="M102.523,70.666l-0.672,1.746l-0.686-1.746h-0.59v2.303h0.381v-1.92h0.011l0.756,1.92
				h0.24l0.752-1.92h0.011v1.92h0.379v-2.303H102.523L102.523,70.666z M98.291,70.666v0.307h0.72v1.997h0.38v-1.997h0.722v-0.307
				H98.291L98.291,70.666z"/>
		</g>
	</g>
</g>
</svg>
