<?xml version="1.0" encoding="utf-8"?>

<!DOCTYPE svg PUBLIC "-//W3C//DTD SVG 1.1//EN" "http://www.w3.org/Graphics/SVG/1.1/DTD/svg11.dtd">
<svg version="1.1" id="Layer_30" xmlns="http://www.w3.org/2000/svg" xmlns:xlink="http://www.w3.org/1999/xlink" x="0px" y="0px"
	 width="159px" height="119px" viewBox="0 0 159 119" enable-background="new 0 0 159 119" xml:space="preserve">
<g>
	<g>
		<polygon fill="#A8A8A8" points="29.5,49.413 32.283,49.413 29.5,51.073 		"/>
		<polygon fill="#A8A8A8" points="30.202,51.115 33.024,49.413 35.671,49.413 29.5,53.096 29.5,52.071 31.085,51.115 		"/>
		<polygon fill="#A8A8A8" points="29.5,54.042 34.355,51.115 33.374,51.115 36.316,49.413 39.05,49.413 29.5,55.141 		"/>
		<polygon fill="#A8A8A8" points="37.044,51.115 39.875,49.413 42.439,49.413 29.5,57.173 29.5,56.25 30.602,55.673 29.92,55.673 
			37.751,51.115 		"/>
		<polygon fill="#A8A8A8" points="29.5,58.492 34.193,55.673 33.364,55.673 41.124,51.115 40.229,51.115 43.129,49.413 
			45.812,49.413 29.5,59.267 		"/>
		<path fill="#A8A8A8" d="M29.5,60.609l8.08-4.936h-0.73l6.739-4.117c-0.086-0.026-0.417-0.111-0.465-0.116l3.398-2.027h2.542
			L29.5,61.415V60.609z"/>
		<path fill="#A8A8A8" d="M40.174,55.673l5.386-3.202c-0.07-0.059-0.256-0.193-0.342-0.25l4.452-2.647v1.501L29.5,63.419v-0.549
			l1.812-1.076h-0.817l10.295-6.121H40.174z"/>
		<path fill="#A8A8A8" d="M33.795,61.794l10.297-6.121h-0.572l3.209-1.906c-0.048-0.091-0.177-0.294-0.204-0.342l3.146-1.868v1.632
			L29.5,65.361v-0.595l5.004-2.971H33.795z"/>
		<path fill="#A8A8A8" d="M29.5,67.256v-0.582l8.394-4.88h-0.752l10.156-6.109c-0.011-0.118-0.043-0.349-0.068-0.48l2.441-1.421
			v1.553L29.5,67.256z"/>
		<polygon fill="#A8A8A8" points="43.22,61.794 43.646,62.542 32.099,69.584 32.846,69.584 49.671,59.436 49.671,57.949 		"/>
		<polygon fill="#A8A8A8" points="44.146,63.356 44.573,64.105 35.581,69.585 36.327,69.585 49.673,61.528 49.673,60.04 		"/>
		<polygon fill="#A8A8A8" points="45.094,64.898 45.52,65.646 39.061,69.587 39.807,69.587 49.673,63.662 49.673,62.175 		"/>
		<polygon fill="#A8A8A8" points="45.987,66.416 46.414,67.165 42.468,69.587 43.213,69.587 49.673,65.718 49.673,64.23 		"/>
		<polygon fill="#A8A8A8" points="46.891,67.883 47.318,68.632 45.776,69.584 46.522,69.584 49.673,67.719 49.673,66.232 		"/>
		<path fill="#A8A8A8" d="M40.819,61.794l5.014-3.014c0.726-0.355,1.166-1.04,1.276-1.424l2.561-1.508v1.581L29.5,69.524v-0.553
			l12.148-7.177H40.819z"/>
		<polygon fill="#A8A8A8" points="47.754,69.346 47.898,69.584 48.72,69.584 49.671,69.014 49.671,68.15 		"/>
	</g>
	<g>
		<g>
			<path fill="#A8A8A8" d="M54.425,64.069h0.917l0.917,4.32h0.016l0.97-4.32h0.917l-1.363,5.411h-1.1L54.425,64.069z"/>
			<path fill="#A8A8A8" d="M58.676,64.069h0.864v5.411h-0.864V64.069z"/>
			<path fill="#A8A8A8" d="M60.055,64.069h0.917l0.917,4.32h0.015l0.97-4.32h0.917l-1.363,5.411h-1.099L60.055,64.069z"/>
			<path fill="#A8A8A8" d="M64.342,64.069h1.911c0.757,0,1.371,0.379,1.371,1.395c0,0.697-0.31,1.235-0.901,1.325v0.015
				c0.538,0.054,0.819,0.349,0.849,1.107c0.007,0.349,0.015,0.774,0.03,1.099c0.015,0.265,0.144,0.394,0.258,0.469h-0.979
				c-0.083-0.098-0.121-0.265-0.144-0.476c-0.03-0.327-0.022-0.63-0.038-1.024c-0.015-0.591-0.196-0.849-0.788-0.849h-0.706v2.349
				h-0.864V64.069z M65.897,66.48c0.552,0,0.863-0.334,0.863-0.879c0-0.576-0.25-0.879-0.818-0.879h-0.736v1.759H65.897z"/>
			<path fill="#A8A8A8" d="M68.563,64.069h2.925v0.729h-2.062v1.5h1.94v0.727h-1.94v1.728h2.122v0.727h-2.985V64.069z"/>
			<path fill="#A8A8A8" d="M75.173,64.069h2.925v0.729h-2.061v1.5h1.94v0.727h-1.94v1.728h2.122v0.727h-2.986V64.069z"/>
			<path fill="#A8A8A8" d="M78.969,64.069h1.054l1.568,4.032h0.016v-4.032h0.818v5.411h-1.053l-1.569-4.137h-0.015v4.137h-0.818
				V64.069z"/>
			<path fill="#A8A8A8" d="M86.246,64.069h0.863v5.411h-0.863V64.069z"/>
			<path fill="#A8A8A8" d="M88.117,64.069h1.053l1.569,4.032h0.016v-4.032h0.817v5.411H90.52l-1.57-4.137h-0.014v4.137h-0.818
				V64.069z"/>
			<path fill="#A8A8A8" d="M93.504,64.798h-1.288v-0.729h3.417v0.729h-1.267v4.682h-0.863V64.798z"/>
			<path fill="#A8A8A8" d="M96.277,64.069h2.925v0.729h-2.062v1.5h1.941v0.727h-1.941v1.728h2.123v0.727h-2.986V64.069z"/>
			<path fill="#A8A8A8" d="M99.974,64.069h0.865v4.684h2.091v0.727h-2.956V64.069z"/>
			<path fill="#A8A8A8" d="M103.49,64.069h0.863v4.684h2.092v0.727h-2.955V64.069z"/>
			<path fill="#A8A8A8" d="M107.065,64.069h0.864v5.411h-0.864V64.069z"/>
			<path fill="#A8A8A8" d="M111.612,68.852h-0.015c-0.236,0.5-0.546,0.735-1.182,0.735c-1.183,0-1.608-0.879-1.608-2.812
				c0-1.932,0.547-2.811,1.797-2.811c1.356,0,1.584,1.069,1.584,1.561v0.099h-0.818v-0.129c0-0.401-0.167-0.88-0.758-0.88
				c-0.614,0-0.941,0.41-0.941,2.138c0,1.743,0.29,2.183,0.873,2.183c0.659,0.007,0.902-0.471,0.902-1.652h-0.911v-0.653h1.729
				v2.849h-0.652V68.852z"/>
			<path fill="#A8A8A8" d="M113.157,64.069h2.925v0.729h-2.061v1.5h1.94v0.727h-1.94v1.728h2.122v0.727h-2.986V64.069z"/>
			<path fill="#A8A8A8" d="M116.954,64.069h1.052l1.569,4.032h0.016v-4.032h0.818v5.411h-1.053l-1.569-4.137h-0.015v4.137h-0.819
				V64.069z"/>
			<path fill="#A8A8A8" d="M124.781,67.54v0.114c0,0.977-0.395,1.932-1.668,1.932c-1.364,0-1.789-0.879-1.789-2.812
				c0-1.932,0.425-2.811,1.796-2.811c1.538,0,1.629,1.137,1.629,1.698v0.098h-0.863v-0.091c0-0.5-0.152-1.075-0.773-1.054
				c-0.636,0-0.924,0.395-0.924,2.138c0,1.743,0.288,2.183,0.924,2.183c0.72,0,0.804-0.804,0.804-1.304V67.54H124.781z"/>
			<path fill="#A8A8A8" d="M125.538,64.069h2.925v0.729h-2.061v1.5h1.939v0.727h-1.939v1.728h2.122v0.727h-2.986V64.069z"/>
		</g>
		<g>
			<path fill="#A8A8A8" d="M54.425,49.675h3.829v1.673h0.041c0.645-1.249,1.491-1.934,2.942-1.934c0.403,0,0.785,0.06,1.168,0.161
				v3.526c-0.403-0.141-0.766-0.262-1.572-0.262c-1.572,0-2.419,0.927-2.419,3.164v4.131h-3.989V49.675z"/>
			<path fill="#A8A8A8" d="M67.381,55.801c0.101,1.189,0.786,2.036,2.035,2.036c0.646,0,1.35-0.242,1.673-0.747h3.727
				c-0.806,2.258-3.001,3.305-5.379,3.305c-3.346,0-5.864-1.975-5.864-5.46c0-3.043,2.216-5.521,5.52-5.521
				c4.152,0,5.945,2.317,5.945,6.387H67.381z M71.209,53.726c0-0.968-0.725-1.753-1.753-1.753c-1.188,0-1.874,0.624-2.056,1.753
				H71.209z"/>
			<path fill="#A8A8A8" d="M77.717,49.675h3.849v1.331h0.041c0.745-1.049,1.812-1.593,3.405-1.593c1.874,0,3.587,1.149,3.587,3.547
				v7.173h-3.991v-5.48c0-1.209-0.141-2.056-1.309-2.056c-0.686,0-1.593,0.343-1.593,2.015v5.521h-3.989V49.675z"/>
			<path fill="#A8A8A8" d="M91.781,49.675h3.849v1.331h0.041c0.745-1.049,1.813-1.593,3.405-1.593c1.874,0,3.586,1.149,3.586,3.547
				v7.173h-3.989v-5.48c0-1.209-0.141-2.056-1.31-2.056c-0.685,0-1.592,0.343-1.592,2.015v5.521h-3.99V49.675z"/>
			<path fill="#A8A8A8" d="M109.21,55.801c0.1,1.189,0.786,2.036,2.035,2.036c0.645,0,1.35-0.242,1.673-0.747h3.729
				c-0.808,2.258-3.004,3.305-5.382,3.305c-3.344,0-5.863-1.975-5.863-5.46c0-3.043,2.216-5.521,5.521-5.521
				c4.151,0,5.945,2.317,5.945,6.387H109.21z M113.037,53.726c0-0.968-0.724-1.753-1.752-1.753c-1.189,0-1.874,0.624-2.055,1.753
				H113.037z"/>
			<path fill="#A8A8A8" d="M125.59,52.718c-0.02-0.342-0.201-0.605-0.463-0.786c-0.241-0.201-0.563-0.302-0.887-0.302
				c-0.563,0-1.209,0.121-1.209,0.805c0,0.303,0.243,0.444,0.464,0.544c0.664,0.282,2.176,0.363,3.506,0.806
				c1.33,0.424,2.499,1.209,2.499,2.922c0,2.902-2.781,3.687-5.32,3.687c-2.458,0-5.158-0.988-5.218-3.687h3.808
				c0.021,0.363,0.182,0.665,0.484,0.926c0.2,0.182,0.584,0.303,1.067,0.303c0.525,0,1.35-0.202,1.35-0.806
				s-0.342-0.785-2.196-1.108c-3.042-0.524-4.271-1.491-4.271-3.284c0-2.64,2.841-3.325,4.937-3.325
				c2.257,0,4.977,0.625,5.078,3.304H125.59z"/>
		</g>
	</g>
</g>
</svg>
