<?xml version="1.0" encoding="UTF-8" standalone="no"?>
<svg width="159px" height="119px" viewBox="0 0 159 119" version="1.1" xmlns="http://www.w3.org/2000/svg" xmlns:xlink="http://www.w3.org/1999/xlink" xmlns:sketch="http://www.bohemiancoding.com/sketch/ns">
    <!-- Generator: Sketch 3.0.3 (7891) - http://www.bohemiancoding.com/sketch -->
    <title>Artboard 5</title>
    <desc>Created with Sketch.</desc>
    <defs></defs>
    <g id="Page-1" stroke="none" stroke-width="1" fill="none" fill-rule="evenodd" sketch:type="MSPage">
        <g id="Artboard-5" sketch:type="MSArtboardGroup" fill="#A8A8A8">
            <path d="M71.9112591,75.9391794 C67.1715693,75.9391794 62.7598796,74.5651659 59.0456387,72.2101794 C59.7022372,72.2868341 60.3703577,72.3260493 61.0477555,72.3260493 C64.979865,72.3260493 68.5987883,70.9990942 71.4711825,68.773 C67.7985401,68.7059641 64.699,66.306287 63.6310547,63.0086547 C64.1434051,63.105583 64.6692226,63.1575247 65.2100036,63.1575247 C65.9755365,63.1575247 66.7169781,63.056157 67.4213102,62.8664439 C63.5816752,62.1040404 60.688781,58.749287 60.688781,54.7277265 C60.688781,54.6928027 60.688781,54.6580269 60.6893796,54.6233991 C61.8210693,55.2450717 63.1151131,55.6184305 64.4910073,55.6614933 C62.239,54.1730897 60.7571642,51.6325336 60.7571642,48.7529507 C60.7571642,47.231843 61.1710547,45.8060359 61.8934927,44.5801525 C66.0329964,49.6017758 72.2172628,52.9062152 79.1926496,53.2523453 C79.0495985,52.6448789 78.9752299,52.0113677 78.9752299,51.3608386 C78.9752299,46.7770942 82.7331642,43.0608206 87.3684088,43.0608206 C89.7823212,43.0608206 91.9635511,44.0688744 93.4946168,45.6820269 C95.406354,45.309704 97.202573,44.6189238 98.8241679,43.667843 C98.1974964,45.6059641 96.866792,47.232583 95.1338686,48.2598744 C96.8316277,48.0592108 98.4491825,47.6130448 99.9543613,46.9528969 C98.8291058,48.6173991 97.4060766,50.0793139 95.7663759,51.2495561 C95.7825365,51.6054529 95.7906168,51.9634215 95.7906168,52.3233139 C95.7906168,63.2915964 87.3488066,75.9391794 71.9112591,75.9391794" id="Fill-1" sketch:type="MSShapeGroup"></path>
        </g>
    </g>
</svg>