<?xml version="1.0" encoding="utf-8"?>

<!DOCTYPE svg PUBLIC "-//W3C//DTD SVG 1.1//EN" "http://www.w3.org/Graphics/SVG/1.1/DTD/svg11.dtd">
<svg version="1.1" id="Layer_30" xmlns="http://www.w3.org/2000/svg" xmlns:xlink="http://www.w3.org/1999/xlink" x="0px" y="0px"
	 width="159px" height="119px" viewBox="0 0 159 119" enable-background="new 0 0 159 119" xml:space="preserve">
<g>
	<g>
		<path fill="#A8A8A8" d="M117.26,52.449c-0.405,0.637-0.377,1.65-1.245,1.939c-0.115,0.174-0.029,0.434-0.289,0.55
			c-1.737-0.55-3.532-0.029-4.922,0.897c-0.578,0.376-1.447,0.173-1.795,0.897c0.175,0.956-0.954,1.65-0.347,2.519
			c1.245-0.087,2.867,0.202,3.735-0.985c0.606-0.173,1.304-0.145,1.881-0.347c0.348,0.434-0.145,0.897-0.203,1.332
			c-0.434,0.55-0.463,1.302-1.042,1.736c-2.287-0.174-3.85,1.303-5.907,1.65c-0.403,0.347-0.086,0.984-0.288,1.389
			c-1.534,2.895-1.102,6.658-1.246,10.016c0.059,0.26,0.204,0.464-0.056,0.695c-1.1-0.116-1.392,1.158-2.375,1.245
			c-0.724,0.463-1.303,1.303-2.084,1.593c0.116,0.318,0.55,0.521,0.289,0.926c-0.173,0.29-0.492,0.579-0.84,0.549
			c-0.55-0.347,0.493-0.867-0.203-0.897c-0.171,0.29-0.665,0.55-0.229,0.897c0.028,0.059-0.029,0.087-0.06,0.145
			c-0.288,0-0.433-0.231-0.694,0c-0.579,0.725-1.767,1.13-2.026,2.142l0.145,0.146c0.606-0.29,1.012-1.13,1.737-1.13
			c0.288,0.87-0.869,1.072-1.303,1.622c-0.637-0.174-1.1,1.042-1.621,0.202c-0.55,0.116-0.638-0.434-0.694-0.839
			c0-0.144-0.174-0.231-0.262-0.347c-0.462,0.174-0.607-0.405-0.839-0.637c-0.289-1.475,1.274-2.432,1.94-3.531
			c1.042-0.203,1.506-1.389,2.432-1.794c0.232-0.695,0.983-0.55,1.475-0.579c0.957-0.985,2.317-1.419,3.127-2.548
			c0.694-0.029,0.029,1.274,0.898,0.955l0.548-0.55c-0.086-2.982,0.318-6.05,0.985-8.887c-0.667-0.319-1.099,0.666-1.738,0.753
			c-0.171,0.057-0.318-0.058-0.347-0.204c-0.029-0.868,0.609-1.302,0.261-2.228c0.03-0.464,0.291-0.956,0.781-1.101
			c0.812,0.116,1.215-0.781,2.085-0.55c1.217-0.492,0.232-1.708,0.812-2.519c0.781-1.302,1.071-2.923,1.129-4.428
			c1.36-0.058,2.692-0.406,4.022-0.347c1.017-0.521,2.461-0.116,3.473-0.637C116.68,52.159,117.115,52.101,117.26,52.449"/>
		<path fill="#A8A8A8" d="M99.832,80.095c-0.086,0.058-0.086,0.289-0.289,0.202c-0.117-0.145-0.347-0.405-0.06-0.549
			C99.803,79.603,99.716,79.979,99.832,80.095"/>
		<path fill="#A8A8A8" d="M42.583,65.882c0.846,0.498,1.893,0.823,2.889,0.823c1.344,0,2.266-0.498,2.266-1.344
			c0-2.291-4.807-3.063-4.807-5.776c0-2.565,2.665-3.585,4.83-3.585c0.622,0,1.221,0.074,1.793,0.174l-0.299,1.817
			c-0.821-0.249-1.868-0.448-2.789-0.448c-1.492,0-1.99,0.548-1.99,1.17c0,1.444,4.805,2.938,4.805,5.278
			c0,2.14-1.593,4.257-4.582,4.257c-0.72,0-1.642-0.074-2.439-0.448L42.583,65.882"/>
		<path fill="#A8A8A8" d="M59.193,57.245c-0.249-0.101-0.547-0.15-1.121-0.15c-2.937,0-4.23,5.974-4.23,7.991
			c0,0.622,0.023,1.618,0.769,1.618C55.933,66.704,58.968,60.032,59.193,57.245 M51.699,65.186c0-4.033,2.815-9.186,7.346-9.186
			c0.397,0,0.82,0.049,1.319,0.174l0.945-0.423l-1.17,7.518c-0.224,1.519-0.423,2.614-0.423,3.062c0,0.523,0.149,0.672,0.423,0.672
			c0.199,0,0.622-0.125,1.095-0.374v0.424c-0.696,0.523-1.616,1.195-2.489,1.195c-0.896,0-1.02-0.648-1.02-1.394
			c0-0.623,0.347-3.038,0.572-4.308h-0.05c-0.772,1.743-2.489,5.701-4.855,5.701C51.974,68.248,51.699,66.504,51.699,65.186z"/>
		<path fill="#A8A8A8" d="M69.87,57.966c-0.523-0.174-1.07-0.273-1.619-0.273c-0.622,0-0.945,0.224-1.245,0.722
			c-0.945,1.717-1.494,4.431-1.494,5.501c0,1.444,0.324,2.639,1.667,2.639c0.773,0,1.794-0.821,2.939-2.216l0.299,0.224
			c-2.067,3.013-2.963,3.685-4.457,3.685c-1.271,0-2.588-1.145-2.588-4.033c0-4.73,3.385-8.215,6.272-8.215
			c0.349,0,0.597,0.049,0.823,0.125L69.87,57.966"/>
		<path fill="#A8A8A8" d="M77.398,57.542c-1.393,0-2.065,1.893-2.54,4.955c1.942-0.473,4.008-1.992,4.008-3.959
			C78.866,57.841,78.245,57.542,77.398,57.542 M80.288,64.912c-1.271,1.468-2.766,3.336-4.906,3.336
			c-2.216,0-2.813-2.315-2.813-4.257c0-3.187,2.613-7.991,6.199-7.991c1.246,0,2.091,0.771,2.091,1.991
			c0,2.864-3.56,4.581-6.1,5.402c-0.023,0.199-0.049,0.448-0.049,0.697c0,1.245,0.372,2.764,1.941,2.764
			c0.995,0,2.738-1.544,3.336-2.241L80.288,64.912z"/>
		<path fill="#A8A8A8" d="M84.662,57.12c-0.421,0.074-0.87,0.125-1.292,0.199l0.099-0.498L87.054,56l-1.171,6.522h0.05
			c0.821-1.818,2.814-6.273,5.229-6.273c0.821,0,1.095,0.522,1.095,1.269c0,0.797-0.298,2.266-0.449,3.112l-0.496,2.938h0.05
			c0.771-1.967,3.311-7.319,5.802-7.319c0.746,0,1.02,0.672,1.02,1.344c0,0.896-0.176,1.868-0.299,2.564l-0.946,4.805
			c-0.152,0.747-0.275,1.369-0.275,1.792c0,0.249,0.322,0.399,0.524,0.399c0.397,0,0.795-0.249,1.145-0.399l0.223,0.299
			c-0.746,0.572-1.941,1.195-2.912,1.195c-0.672,0-1.123-0.473-1.123-1.095c0-0.547,0.226-1.718,0.425-2.763l0.573-2.987
			c0.174-0.897,0.372-1.867,0.372-2.266c0-0.323-0.024-0.747-0.447-0.747c-1.318,0-4.63,8.141-5.129,9.46l-1.545,0.15l0.972-6.274
			c0.223-1.469,0.375-2.714,0.375-3.112c0-0.199-0.05-0.523-0.375-0.523c-1.717,0-4.554,7.916-4.903,9.759l-1.768,0.15L84.662,57.12
			"/>
	</g>
</g>
</svg>
