<?xml version="1.0" encoding="utf-8"?>

<!DOCTYPE svg PUBLIC "-//W3C//DTD SVG 1.1//EN" "http://www.w3.org/Graphics/SVG/1.1/DTD/svg11.dtd">
<svg version="1.1" id="Layer_30" xmlns="http://www.w3.org/2000/svg" xmlns:xlink="http://www.w3.org/1999/xlink" x="0px" y="0px"
	 width="159px" height="119px" viewBox="0 0 159 119" enable-background="new 0 0 159 119" xml:space="preserve">
<g>
	<g>
		<g>
			<g>
				<path fill="#A8A8A8" d="M85.988,54.27h1.193l3.809,5.704l3.809-5.704h1.191v10.452h-1.179v-8.466l-3.807,5.599h-0.06
					l-3.808-5.585v8.451h-1.149V54.27z"/>
				<path fill="#A8A8A8" d="M98.056,54.27h7.558v1.075h-6.378v3.568h5.705v1.075h-5.705v3.658h6.45v1.075h-7.63V54.27z"/>
				<path fill="#A8A8A8" d="M107.316,54.27h3.628c3.286,0,5.554,2.255,5.554,5.197v0.03c0,2.941-2.268,5.226-5.554,5.226h-3.628
					V54.27z M110.944,63.632c2.644,0,4.331-1.791,4.331-4.106v-0.029c0-2.314-1.688-4.136-4.331-4.136h-2.449v8.272H110.944z"/>
				<path fill="#A8A8A8" d="M117.904,54.27h1.178v10.452h-1.178V54.27z"/>
				<path fill="#A8A8A8" d="M124.818,54.196h1.107l4.761,10.527h-1.269l-1.223-2.762h-5.691l-1.24,2.762h-1.208L124.818,54.196z
					 M127.731,60.9l-2.373-5.331l-2.391,5.331H127.731z"/>
			</g>
		</g>
		<g>
			<polygon fill="#A8A8A8" points="57.44,59.03 55.248,54.271 52.406,54.271 54.68,59.03 			"/>
			<polygon fill="#A8A8A8" points="47.131,59.03 47.969,56.819 48.895,59.03 51.551,59.03 49.436,54.271 46.42,54.271 44.501,59.03 
							"/>
			<rect x="38.324" y="54.271" fill="#A8A8A8" width="2.605" height="4.758"/>
			<rect x="30.687" y="54.271" fill="#A8A8A8" width="2.607" height="4.758"/>
			<path fill="#A8A8A8" d="M81.132,59.03c-1.564-0.93-3.691-1.123-3.691-2.116c0-0.526,0.597-0.862,1.531-0.862
				c0.889,0,1.794,0.264,3.308,0.939v-2.043c-1.315-0.566-2.373-0.81-3.535-0.81c-2.424,0-3.986,1.194-3.986,3.002
				c0,0.815,0.249,1.419,0.636,1.89H81.132z"/>
			<polygon fill="#A8A8A8" points="61.257,59.03 63.425,54.271 60.624,54.271 58.535,59.03 			"/>
			<polygon fill="#A8A8A8" points="67.092,59.03 67.937,56.819 68.859,59.03 71.513,59.03 69.397,54.271 66.381,54.271 
				64.458,59.03 			"/>
			<polygon fill="#A8A8A8" points="63.952,60.291 62.164,64.729 64.924,64.729 66.615,60.291 			"/>
			<polygon fill="#A8A8A8" points="69.382,60.291 71.234,64.729 74.038,64.729 72.069,60.291 			"/>
			<polygon fill="#A8A8A8" points="55.277,60.291 57.463,64.862 58.596,64.862 60.686,60.291 			"/>
			<path fill="#A8A8A8" d="M77.321,60.291c1.362,0.553,2.751,0.815,2.751,1.694c0,0.614-0.537,0.964-1.532,0.964
				c-1.15,0-2.063-0.35-3.572-1.349v2.255c1.045,0.537,1.953,1.007,3.776,1.007c2.327,0,4.012-1.166,4.012-3.165
				c0-0.562-0.122-1.017-0.336-1.407H77.321z"/>
			<rect x="38.324" y="60.291" fill="#A8A8A8" width="2.605" height="4.438"/>
			<rect x="30.687" y="60.291" fill="#A8A8A8" width="2.607" height="4.438"/>
			<polygon fill="#A8A8A8" points="43.993,60.291 42.204,64.729 44.96,64.729 46.652,60.291 			"/>
			<polygon fill="#A8A8A8" points="49.421,60.291 51.272,64.729 54.081,64.729 52.111,60.291 			"/>
		</g>
	</g>
</g>
</svg>
