<?xml version="1.0" encoding="utf-8"?>

<!DOCTYPE svg PUBLIC "-//W3C//DTD SVG 1.1//EN" "http://www.w3.org/Graphics/SVG/1.1/DTD/svg11.dtd">
<svg version="1.1" id="Layer_30" xmlns="http://www.w3.org/2000/svg" xmlns:xlink="http://www.w3.org/1999/xlink" x="0px" y="0px"
	 width="159px" height="119px" viewBox="0 0 159 119" enable-background="new 0 0 159 119" xml:space="preserve">
<g>
	<g>
		<g>
			<g>
				<path fill="#A8A8A8" d="M92.056,69.327v2.205h0.847v-3.349c0-1.388-0.902-2.228-2.447-2.228h-0.073
					c-1.545,0-2.447,0.839-2.447,2.228v3.349h0.847v-2.205H92.056z M88.782,68.658c0-0.921,0.116-1.316,0.381-1.582
					c0.256-0.258,0.682-0.435,1.222-0.435h0.067c0.543,0,0.965,0.177,1.223,0.435c0.265,0.265,0.38,0.661,0.38,1.582H88.782z"/>
				<path fill="#A8A8A8" d="M51.425,71.532l-1.408-2.275c0.825-0.176,1.357-0.829,1.357-1.539c0-1.163-0.959-1.718-2.215-1.718
					h-2.946v5.531h0.847v-2.145h2.142l1.27,2.145H51.425z M47.06,66.638h2.283c0.706,0,1.183,0.41,1.183,1.057
					c0,0.625-0.446,1.01-1.163,1.01H47.06V66.638z"/>
				<path fill="#A8A8A8" d="M55.174,70.89c-1.115,0-1.679-0.651-1.679-1.771v-0.728c0-1.016,0.441-1.748,1.741-1.748h0.361
					c1.302,0,1.74,0.732,1.743,1.748v0.728c-0.002,1.12-0.565,1.771-1.679,1.771H55.174z M55.608,71.579
					c1.712,0,2.579-0.748,2.579-2.483v-0.661c0-1.734-0.905-2.481-2.619-2.481h-0.301c-1.714,0-2.619,0.748-2.619,2.481v0.661
					c0,1.735,0.866,2.483,2.579,2.483H55.608z"/>
				<path fill="#A8A8A8" d="M106.288,70.89c-1.115,0-1.678-0.651-1.678-1.771v-0.728c0-1.016,0.441-1.748,1.741-1.748h0.362
					c1.3,0,1.74,0.732,1.74,1.748v0.728c-0.002,1.12-0.563,1.771-1.679,1.771H106.288z M106.721,71.579
					c1.715,0,2.58-0.748,2.577-2.483v-0.661c0.002-1.734-0.903-2.481-2.617-2.481h-0.301c-1.713,0-2.618,0.748-2.618,2.481v0.661
					c0,1.735,0.865,2.483,2.578,2.483H106.721z"/>
				<path fill="#A8A8A8" d="M110.962,70.299c0.549,0.332,1.182,0.564,1.954,0.564c0.892,0,1.556-0.379,1.556-0.897
					c0-0.78-0.932-0.797-1.843-0.899c-0.984-0.109-1.877-0.53-1.877-1.503c0-0.949,0.747-1.61,2.245-1.61
					c0.835,0,1.526,0.223,2.177,0.553l-0.536,0.608c-0.523-0.255-1.052-0.446-1.695-0.446c-0.668,0-1.347,0.32-1.347,0.85
					c0,0.737,1.059,0.833,1.807,0.908c1.288,0.129,1.921,0.548,1.921,1.459c0,0.997-0.863,1.692-2.416,1.692
					c-0.913,0-1.756-0.227-2.48-0.67L110.962,70.299z"/>
				<polygon fill="#A8A8A8" points="118.073,66.69 116.095,66.69 116.095,66.001 120.9,66.001 120.9,66.69 118.92,66.69 
					118.92,71.532 118.073,71.532 				"/>
				<path fill="#A8A8A8" d="M86.906,70.857v0.675h-3.334c-0.702-0.001-1.036-0.447-1.036-1.198v-4.333h0.848v4.363
					c0,0.417,0.106,0.494,0.447,0.494H86.906z"/>
				<path fill="#A8A8A8" d="M29.894,70.857v0.675h-3.334c-0.702-0.001-1.036-0.447-1.036-1.198v-4.333h0.848v4.363
					c0,0.417,0.107,0.494,0.447,0.494H29.894z"/>
				<path fill="#A8A8A8" d="M62.432,71.579c1.81,0,2.554-0.693,2.554-2.481v-3.096H64.14v3.361
					c-0.001,1.062-0.507,1.529-1.708,1.529h-0.063c-1.2,0-1.705-0.467-1.705-1.529v-3.361h-0.847v3.096
					c0,1.789,0.743,2.481,2.557,2.481H62.432z"/>
				<path fill="#A8A8A8" d="M66.896,66.001h2.73c1.339,0,2.34,0.512,2.34,1.718c0,0.992-0.871,1.731-2.283,1.731h-1.939v2.083
					h-0.849V66.001z M67.745,68.766h2.164c0.733,0,1.21-0.504,1.21-1.07c0-0.294-0.111-0.542-0.301-0.73
					c-0.231-0.232-0.537-0.327-0.93-0.327h-2.143V68.766z"/>
				<path fill="#A8A8A8" d="M97.582,66.001h2.73c1.338,0,2.34,0.512,2.34,1.718c0,0.992-0.871,1.731-2.282,1.731h-1.941v2.083
					h-0.847V66.001z M98.429,68.766h2.166c0.733,0,1.208-0.504,1.208-1.07c0-0.294-0.111-0.542-0.298-0.73
					c-0.233-0.232-0.536-0.327-0.93-0.327h-2.146V68.766z"/>
				<path fill="#A8A8A8" d="M42.168,68.7v0.676l1.478,0C43.57,70.34,43,70.89,41.979,70.89h-0.444c-1.114,0-1.678-0.651-1.678-1.771
					v-0.728c0-1.016,0.442-1.748,1.741-1.748h0.318c0.986,0,1.493,0.422,1.663,1.069h0.861c-0.232-1.22-1.103-1.758-2.554-1.758
					h-0.258c-1.712,0-2.62,0.748-2.62,2.481v0.661c0,1.735,0.866,2.483,2.58,2.483h0.336c1.714,0,2.579-0.748,2.578-2.483V68.7
					H42.168z"/>
				<path fill="#A8A8A8" d="M73.068,68.887c0,1.599,0.595,2.645,2.681,2.645h2.484v-0.69h-2.58c-1.255,0-1.708-0.674-1.708-1.71
					v-0.061h3.721v-0.67h-3.721c0-1.035,0.453-1.711,1.708-1.711h2.58v-0.689H75.75c-2.086,0-2.681,1.046-2.681,2.644V68.887z"/>
				<path fill="#A8A8A8" d="M30.249,68.887c0,1.599,0.596,2.645,2.682,2.645h2.481v-0.69h-2.579c-1.256,0-1.708-0.674-1.708-1.71
					v-0.061h3.722v-0.67h-3.722c0-1.035,0.451-1.711,1.708-1.711h2.579v-0.689h-2.481c-2.086,0-2.682,1.046-2.682,2.644V68.887z"/>
				<path fill="#A8A8A8" d="M121.451,68.887c0,1.599,0.594,2.645,2.682,2.645h2.482v-0.69h-2.58c-1.256,0-1.708-0.674-1.708-1.71
					v-0.061h3.722v-0.67h-3.722c0-1.035,0.452-1.711,1.708-1.711h2.58v-0.689h-2.482c-2.088,0-2.682,1.046-2.682,2.644V68.887z"/>
			</g>
		</g>
		<g>
			<path fill="#A8A8A8" d="M97.533,60.906c14.727-3.721,24.506-6.499,37.603-8.975c0.234-0.035,0.41-0.107,0.386-0.163
				c-0.011-0.03-0.104-0.08-0.389-0.075l-22.696,0.414c0.088,0.92-0.89,2.244-2.944,3.517c-1.054,0.657-3.47,1.931-11.984,5.134
				C97.397,60.806,97.451,60.923,97.533,60.906z"/>
			<path fill="#A8A8A8" d="M121.498,55.813l-2.578,3.312c-0.365,0.485-1.056,1.252-2.022,1.29l-15.792,0.508
				c-0.1,0.003-0.07-0.063-0.029-0.079l20.367-5.131C121.561,55.674,121.561,55.745,121.498,55.813z"/>
			<path fill="#A8A8A8" d="M125.122,47.421c0.718,0.009,1.077,0.158,1.313,0.428c0.416,0.473,0.173,1.277-0.434,2.089
				c-0.385,0.525-0.52,0.702-0.89,1.157l-13.021,0.152c-1.785-1.599-5.221-2.92-7.283-3.655c-0.389-0.153-0.153-0.169,0.163-0.166
				L125.122,47.421z"/>
		</g>
	</g>
</g>
</svg>
