<?xml version="1.0" encoding="utf-8"?>

<!DOCTYPE svg PUBLIC "-//W3C//DTD SVG 1.1//EN" "http://www.w3.org/Graphics/SVG/1.1/DTD/svg11.dtd">
<svg version="1.1" id="Layer_30" xmlns="http://www.w3.org/2000/svg" xmlns:xlink="http://www.w3.org/1999/xlink" x="0px" y="0px"
	 width="159px" height="119px" viewBox="0 0 159 119" enable-background="new 0 0 159 119" xml:space="preserve">
<g>
	<g>
		<path fill="#A8A8A8" d="M86.802,50.252c0.359-1.039,1.968-1.014,2.658-1.471c0.479-0.317,1.097-0.646,1.116-2.171
			c0.019-1.31,0.613-1.524,0.973-1.643c0-0.37-0.688-0.253-1.156,0.137c0.673-1.677,2.1-0.273,2.1-0.273
			c-0.845-1.466-2.039-0.789-2.47-0.062c-0.433,0.731-0.114,2.382-1.007,2.789c-0.89,0.409-1.359-0.344-1.984-0.162
			c-0.911,0.265-0.938,1.471-1.85,1.079c0.697-0.448,0.67-0.869,1.139-1.383c0.973-1.068,2.571,0.105,2.922-2.919l0.164,0.572
			c1.683-2.271,3.628-0.278,3.342,0.342c-2.335-0.432-1.847,1.426-2.07,2.677h1.704L86.802,50.252 M88.404,47.961
			c-1.65-0.676-2.623,0.881-2.623,1.348c0.396-0.193,1.051-0.909,1.296-1.069C87.526,47.945,88.223,48.126,88.404,47.961
			 M89.971,47.136c0.263,1.682-2.714,1.584-3.354,2.722C86.588,47.558,89.624,48.754,89.971,47.136 M86.665,50.797
			c0.709-0.94,1.24-0.149,1.824-0.545c0.581-0.395,1.251-1.614,2.629-1.001l0.74-0.645l-0.493,0.801
			c1.433,0.945,2.263,0.858,2.121-0.92c1.856,1.082,0.833,3.573-0.565,3.56c-0.834-0.007-1.113-0.428-1.592-0.613
			c-0.339-0.131-0.608,0.131-0.924,0.463l1.333,0.522l-1.613-0.234c-0.489,0.48-1.22,0.909-2.246,0.447l0.2,0.382h5.667
			l-3.877,1.731c1.034,0.216,2.31-1.058,3.778-0.177c1.409,0.85,0.772,2.784,0.182,2.778c-0.527-0.006,0.483-1.736-0.959-1.702
			c-0.529,0.014-0.953,0.45-1.468,0.855l0.476,1.178l-0.78-0.95c-0.416,0.3-0.862,0.526-1.372,0.461l2.684,1.584h-1.829
			c-0.021,0.452,0.02,0.762,0.203,1.153l0.182-0.078c0.144,0.295,0.968,0.789,2.128,0.594c-0.435,1.669-2.845,1.199-3.306,0.729
			l0.027,0.599c-1.057-2.606-1.867-2.762-3.437-2.762l3.652,3.702l-0.871-0.182c0.262,1.037-0.981,2.851-1.87,2.95
			c-0.345,0.042,0.628-0.684,0.628-1.72c0-1.035-1.153-1.353-1.644-1.759c-0.896-0.745-1.258-2.816-1.602-3.402
			c0.627,0.331,1.157,2.111,1.706,2.736c0.544,0.627,1.927,1.254,1.927,2.232c0,0.976-0.366,1.152-0.407,1.269
			c0.365,0,1.502-2.001,0.426-2.958c-0.535-0.477-1.238-0.612-1.788-1.069c-0.722-0.601-1.108-1.888-1.515-2.269
			c-0.392-0.363-1.695-0.965-1.448-2.959c-0.795,2.144,0.312,2.465,0.554,3.924c0.244,1.461,1.027,3.026,1.867,3.234
			c-0.146,0.04-0.288,0.058-0.415,0.057l-0.18,1.376l-0.06-1.399c-1.783-0.344-1.744-4.528-2.81-5.068l2.599,7.484l-1.853-1.183
			c-0.3,1.22,1.038,1.282,0.911,2.388c-0.147,1.259-1.601,1.143-1.573,0.855c0.017-0.182,0.572,0.013,0.572-0.292
			c0-0.286-0.896-0.464-1.28-0.906c-0.232-0.275-0.432-0.497-0.514-1.541l-0.564,0.751c0,0,0.688-1.794,0.783-2.263
			c0.092-0.46-1.188-1.167-1.362-2.087v5.216l-1.514-1.865c-0.256,2.046-3.14,1.91-3.32,1.698c2.092-1.554,1.082-2.251,0.559-3.575
			l-1.104,0.665l0.959-1.09c-0.063-0.246-0.083-0.556-0.061-0.85c0.12-1.615,2.463-1.471,1.186-3.067l-3.791,6.101l0.352-3.285
			c-2.246,0.809-1.471,0.927-2.113,2.399c-0.524,1.201-1.593,0.875-1.918,0.364c-0.474-0.743,0.104-1.302,0.728-1.277
			c0.375-0.306-0.707-0.789-0.271-1.766c0.627-1.422,2.399-0.807,3.303-1.992l-2.22,0.239l2.479-0.691
			c0.172-0.408,0.28-0.957,0.283-1.708l-4.712,2.607l1.436-2.373c-2.632,2.181-3.268-0.555-4.522-0.339
			c0.327-1.461,1.543-0.627,2.085-0.627c0.543,0,1.327-0.964,1.598-1.171l-2.816-1.51h7.025c0.526,0,0.825-0.181,0.571-0.486
			c-0.335-0.398-1.632,0.074-3.101,0.183c-0.894,0.065-1.434-0.281-1.877-0.688l-1.238,0.374l1.052-0.555
			c-0.725-0.717-1.274-1.453-2.972-0.422c-0.529-1.369,0.743-2.54,1.88-2.568c1.624-0.04,1.935,1.866,3.194,1.199l-2.151-2.503
			l3.491,1.72l-0.444-1.327l-1.507-0.393l1.465,0.118c-0.408-1.369-1.941-1.123-2.567-1.792c-1.359-1.451,0.112-3.306,1.228-2.784
			c-0.773,1.642,0.648,2.344,1.827,2.11l-0.569-1.916l4.507,4.577c-1.03,0.783-2.185,0.09-2.751-1.604
			c-0.545-1.624-2.386-0.199-3.216-0.574c-0.028,0.964,1.624,0,1.867,1.955c0.161,1.278,1.098,2.443,2.479,2.127
			c-0.529,0.806-1.821-0.194-2.637,0.968c1.416-0.156,1.753,1.44,2.917,1.713c-0.869-0.496-0.959-1.716-1.834-1.913
			c0.536-0.117,0.965,0.125,1.49-0.05c0.544-0.183,0.812-0.551,0.776-1.088c0.561,0.227,0.615,0.764,0.354,1.113
			c-0.263,0.35-0.788,0.547-0.803,0.844c0,0,0.015-0.055,0.381-0.23c-0.273,0.364-0.096,0.864,0.203,1.189
			c-0.015-0.215-0.012-0.554,0.111-0.621c0.229,0.531,0.744,0.808,1.073,0.728c-0.598-0.64-0.186-1.184-0.186-1.184
			c-0.264-0.011-0.534,0.371-0.534,0.371s-0.176-0.601,0.456-0.857c-0.046-0.092-0.008-0.199-0.008-0.199
			c0.518,0.526,1.431,0.501,1.689,0.675c0,0-1.343-0.192-1.177,0.546c0.149,0.692,2.235,0.369,1.836-1.89
			c0,0,0.356-0.038,0.496,0.093c0.132,0.129-0.029,0.518-0.029,0.518l0.27,0.122c0,0-0.143,1.062-0.079,1.265
			c0.037,0.118,0.515,0.129,0.598,0.132c0.101,0.004,0.036,0.112-0.014,0.112c-0.042,0-0.749,0-0.749,0
			c-0.113,0.004-0.441,0.397-0.13,0.471c0,0,0.39,0.098,0.784,0.098c0.398,0,0.783-0.098,0.783-0.098s-0.064,0.312-0.789,0.312
			c-0.732,0-1.019-0.123-1.019-0.123c-0.161,0.454,0.792,0.909,0.896,0.942c0.092,0.031,0.249,0.02,0.283-0.002
			c0.033-0.021,0.691-0.551,0.691-0.551l-0.201,0.323c0.892-0.208,0.758-0.658,0.452-0.759c-0.015-0.203,0.513-0.166,0.495,0.222
			c-0.024,0.494-1.284,0.77-1.436,1.103c-0.104,0.214,0.148,0.904,0.367,0.969c0.21,0.061,0.7,0.054,0.952-0.079
			c0.071-0.041,0.745-1.302,0.745-1.616c0-0.311-0.691-1.839-0.691-1.839c0.127-0.392,0.725-0.29,1.267-0.637
			c-0.884,0.915-0.287,1.032,0.354,1.058c-0.485,0.414-0.822,0.682-0.635,1.322c2.839,0.625,1.743,4.623,3.804,5.326
			c-1.634,0.247-1.824-1.942-1.97-2.896c-0.063,1.016-0.134,1.872,0.642,2.689c0.671,0.702,1.692,0.304,2.64,0.311
			c1.685,0.014,1.202,1.832,2.612,2.322c-0.786-0.663-0.287-1.456-1.445-2.592c-0.595-0.579-1.884,0.009-2.852-1.096
			c-0.974-1.106-1.277-3.356-2.639-4.228c1.557,0.394,2.141,2.965,2.934,3.824c0.792,0.856,2.52,0.59,3.09,1.194
			c1.04,0.906-0.023,2.722,2.133,3.052v-0.129c0.405,0.078,1.054-0.077,1.001-0.417c-0.327,0.105-1.084,0.131-1.57-0.26l0.162,0.339
			c-1.302-0.35-0.791-2.372-1.565-3.053c-0.662-0.582-1.863-0.264-2.87-1.039c-1-0.765-1.402-2.791-3.247-4.039
			c2.504-0.71,3.329,3.94,5.726,3.94c1.199,0,2.066-1.763,3.143-1.763c0.765,0,1.353,0.418,1.481,1.105
			c0.138,0.717-0.133,1.284-0.133,1.284s0.364-0.389,0.364-1.088c0-1.154-0.913-1.611-1.792-1.611c-0.874,0-1.172,0.587-2.516,0.587
			c-1.726-0.039-2.184-3.156-4.145-3.337c1.02-0.857,2.002,0.693,2.928,0.677c0.67-0.012,0.974-0.529,1.339-1.643
			c0.367-1.115,1.222-0.469,1.787,0.059c0.566,0.527,1.407,0.565,1.896,0.136c-0.129,0.406-0.581,0.399-0.405,0.666
			c0.078,0.119,0.197,0.063,0.32-0.052c0.644-0.593,0.798-2.159,0.104-2.529c0.527,2.483-1.658,1.742-1.599,1.409
			c0.408,0.137,0.974,0.117,0.812-0.117c-1.564-0.021-1.618-1.057-2.65-0.959l0.307,0.197c-1.83,0-0.67,2.496-1.972,2.496
			c-0.706,0-1.167-0.792-2.051-0.857c1.021-0.891,2.043,1.434,2.332-0.346C88.257,51.457,87.72,50.451,86.665,50.797z
			 M81.234,46.873c-1.173,0.536-1.232-1.157-0.912-1.518c0,0-0.212,0.891,0.569,1.213c-1.045-1.731,1.012-2.388,1.012-3.77
			c0-1.15-0.705-1.526-0.685-2.582c0.021-1.271,1.89-1.603,1.908-1.114c0.013,0.352-1.358,0.391-1.38,1.701
			c-0.022,1.232,1.352,1.525,1.319,2.718c-0.022,0.783-1.424,1.506-0.55,2.972l1.992-5.612l-1.525,1.72
			c-0.489-0.607-0.873-0.665-0.873-1.758c0-1.096,1.219-1.252,1.219-1.761c0-0.411-0.611-0.47-1.055-0.487
			c-0.69-0.032-1.912,0.564-1.912,1.836c0,1.271,0.866,1.917,0.006,3.111l-0.732-1.116l0.549,1.427c0,0-0.5,0.581-0.5,1.618
			C79.684,47.504,81.348,47.692,81.234,46.873z M81.431,42.15c0.544,1.72-1.248,2.18-1.396,3.317
			C79.927,44.093,81.643,43.44,81.431,42.15z M82.272,46.708c-0.537-0.527-0.3-1.477-0.3-1.477S81.123,46.294,82.272,46.708z
			 M84.525,50.322c0.121,0.263,0.614-0.327,1.351-0.1C85.522,49.979,84.464,49.98,84.525,50.322z M83.71,45.664
			c-0.273,0.737-1.027,0.945-1.394,1.581c0.198,0.011,1.296-0.24,1.702-0.925c0.393-0.664,0.006-2.594,1.262-3.068
			c1.307-0.494,2.683-1.224,1.133-2.804c2.378,0.603,1.042,3.138,0.759,3.508c-0.266,0.349-1.143,1.041-1.143,2.157
			c0,0.824-0.742,1.765-1.317,1.879c0.607,0.248,1.52-1.149,1.52-1.149l2.964-3.834l-1.707,0.881c0,0,0.469-0.402,0.469-1.74
			c0-1.893-2.035-2.231-2.011-1.643c0.014,0.392,0.69,0.668,0.709,1.311c0.02,0.641-0.877,1.006-1.584,1.211l-0.312-1.056v1.187
			C83.607,43.758,83.997,44.89,83.71,45.664z M85.895,44.671c0.624-0.918,1.203-0.762,1.501-1.741
			c-0.423,0.781-1.363,0.941-1.795,1.584c-0.756,1.122,0.117,2.746-1.465,3.215C86.129,47.779,85.172,45.471,85.895,44.671z
			 M87.077,47.196c0.651-0.167,1.053,0.403,1.558,0.253c0.281-0.083,0.291-0.404,0.069-0.488c0,0,0.857-0.889,0.566-1.381
			C88.566,47.014,87.212,46.961,87.077,47.196z M84.343,49.68c0.113,0.181,0.269-0.161,0.566-0.322
			C84.524,49.307,84.287,49.584,84.343,49.68z M89.602,55.998c0.854-0.021,1.527-0.861,2.009-1.169
			c-0.69,0.161-1.054,0.776-2.009,0.798c-1.562,0.032-2.375-4.382-5.037-3.483C87.307,52.359,87.248,56.05,89.602,55.998z
			 M83.97,51.164c0.058,0.344,0.669-0.376,1.833,0.127C85.403,50.709,83.887,50.653,83.97,51.164z M81.594,46.703
			c-1.169-1.929,1.584-2.373,0.799-3.966C82.495,43.983,79.849,45.27,81.594,46.703z M75.476,49.142
			c-2.358,0.04-0.627-2.54-2.38-2.921c0.903,0.609,0.405,1.157,0.415,2.147C73.518,49.556,74.944,49.919,75.476,49.142z
			 M75.864,48.379c-0.474-0.013-1.238-0.24-1.511-0.881C74.106,48.081,74.87,49.656,75.864,48.379z M85.684,61.726
			c-0.639-1.106-1.143-3.552-1.914-3.905c0.728,1.087,0.723,2.917,1.574,4.09c0.677,0.923,1.726,0.718,2.291,1.613
			C87.512,62.562,86.272,62.748,85.684,61.726z M81.753,53.629c-0.146,0.104-0.491,0.203-0.763,0.386
			c-0.027,0.045-0.077,0.214-0.136,0.253C81.129,54.326,81.729,53.925,81.753,53.629z M88.936,52.578
			c0.611,0.075,2.608-1.873,1.965-2.151C90.254,50.148,90.215,52.2,88.936,52.578z M71.809,45.433
			c-1.482-0.348-1.555-1.524-1.184-2.168C69.39,43.167,69.326,45.987,71.809,45.433z M66.455,51.052c0,0,1.016-0.746,2.159-0.116
			C68.914,49.826,66.798,49.919,66.455,51.052z M71.924,50.706c-1.311,0.223-1.849-0.416-2.197-0.837
			c-0.21-0.253-0.406-0.503-0.815-0.571c-0.023-0.004-0.017,0.031-0.013,0.074c0.005,0.057,0.013,0.142-0.024,0.161
			c-0.026,0.013-0.085,0.001-0.228-0.126c-0.146-0.132-0.371-0.195-0.631-0.177c-0.227,0.014-0.454,0.09-0.61,0.201
			c-0.153,0.109-0.206,0.234-0.157,0.351c0.08,0.18,0.33,0.17,0.623,0.157c0.235-0.012,0.503-0.021,0.739,0.059
			c0.184,0.062,0.334,0.26,0.508,0.488C69.717,51.522,71.594,51.869,71.924,50.706z M72.683,51.917
			c-0.022-0.731-2.581-0.353-2.511,0.156C70.251,52.636,72.702,52.554,72.683,51.917z M72.913,53.69
			c0.822,0.291,2.5-0.47,2.234-0.765C74.873,52.626,74.29,53.71,72.913,53.69z M70.11,54.45c1.387-0.66,2.264,1.623,3.472,0.329
			c-1.395,0.437-1.575-0.865-2.812-0.721c0.702-0.679,1.552,0.339,2.473,0.339c0.92,0,1.653-0.236,1.738-0.92
			c-0.239,0.239-0.801,0.552-1.746,0.552C72.288,54.029,70.808,52.775,70.11,54.45z M67.702,56.371
			c0.564,0.35,1.541-0.042,1.146-0.668c-1.197,0.816-1.757-0.651-2.476,0.412C66.671,56.005,67.13,56.018,67.702,56.371z
			 M70.984,55.686c-1.245-0.586-1.565,1.401-2.971,1.129c-0.015,0.881,1.33,0.466,1.86,0.057
			C70.391,56.469,70.67,55.745,70.984,55.686z M74.564,54.441c-0.521,0.66-1.345,1.24-2.262,0.924
			c-0.916-0.317-1.855-1.254-2.429,0.116C71.09,54.384,73.142,57.64,74.564,54.441z M74.053,59.158
			c-0.197-0.201-0.528,0.249-0.966,0.506c-0.489,0.292-1.072,0.458-0.914,0.686c0.144,0.209,0.737,0.151,1.217-0.127
			C73.889,59.932,74.27,59.379,74.053,59.158z M70.338,60.741c0.307,0.428,1.127-0.645,2.228-1.023c1.138-0.39,1.4-1.58,1.378-2.083
			c-0.387,0.909-0.728,1.612-1.61,1.81C71.448,59.645,70.026,60.301,70.338,60.741z M70.696,62.276
			c-0.12,0.736-0.496,0.803-0.551,0.773c-0.057-0.031-0.083-0.114-0.039-0.166c0.051-0.062,0.058-0.146-0.013-0.206
			c-0.07-0.059-0.596,0.096-0.502,0.616c0.05,0.255,0.305,0.517,0.702,0.466C70.69,63.714,71.128,63.12,70.696,62.276z
			 M76.549,54.326c-0.777,0.837-0.011,3.956-1.598,5.09c1.164-1.949,0.386-4.329,1.423-5.593c-1.303,0.991-0.925,3.727-1.368,4.451
			c-0.433-3.346,0.966-4.571,1.269-4.846c-2.632,1.945-1.086,4.579-1.826,5.933c-1.141,2.081-2.944,0.935-3.718,1.642
			c-0.686,0.626,0.919,1.357,0.168,2.495c0.457,0.135,0.518-1.706,0.928-1.976l-0.417,0.107c-0.109-0.396-0.506-0.411-0.506-0.411
			c0.404-0.682,2.149,0.427,4.361-1.461C77.218,58.086,75.993,55.329,76.549,54.326z M79.162,55.238
			c-0.107,0-0.124,0.034-0.128,0.054c-0.007,0.039,0.053,0.083,0.126,0.103c0.006,0.001,0.717,0.17,1.134,0.147
			c0.419,0.022,1.122-0.146,1.128-0.147c0.082-0.02,0.133-0.064,0.127-0.103c-0.001-0.02-0.021-0.054-0.128-0.054
			c-0.021,0-0.742,0.021-1.127,0.021C79.912,55.26,79.185,55.238,79.162,55.238z M78.691,52.958c0.021,0.494,0.74,0.626,1.031,0.587
			c-0.897-0.205-0.845-0.707-0.538-0.808C79.199,52.534,78.672,52.571,78.691,52.958z M78.308,53.592
			c0.024,0.193,0.863,0.514,0.863,0.514s-0.208,0.16-0.641,0.005c0.222,0.384,0.773,0.377,0.773,0.377s-0.041,0.229-0.645,0.068
			c0.149,0.429,0.789,0.536,0.999,0.475c0.219-0.066,0.466-0.756,0.368-0.969C80.026,54.062,79.148,53.641,78.308,53.592z
			 M77.551,64.165c0-1.124-0.776-1.422-0.776-2.781c0-1.485,1.827-1.46,1.827-2.635c0-1.176-1.576-1.669-1.576-3.929
			c-0.404,2.656,1.123,2.931,1.123,3.975c0,1.042-1.757,0.757-1.757,2.59c0,1.077,0.75,1.644,0.75,2.793
			c0,1.151-0.743,1.458-0.743,1.458C76.68,65.672,77.551,65.417,77.551,64.165z M78.801,56.248c0.636,1.096,0.991,1.73,0.728,2.638
			c-0.266,0.905-1.214,1.363-1.477,2.435c-0.193,0.776,0.195,1.713,0.039,2.363c0.016-0.59-0.713-1.419-0.498-2.424
			c0.217-1.006,1.767-1.547,1.767-2.634s-1.156-2.078-1.479-2.959c-0.1,1.056,0.993,1.785,0.993,2.972
			c0,1.188-1.691,1.471-1.691,2.772c0,1.038,0.605,1.763,0.605,2.769c0,0.711-0.518,1.42-0.518,1.42
			c2.006-1.088,0.867-2.487,1.23-4.211c0.228-1.065,1.085-1.41,1.432-2.281C80.232,58.346,79.973,57.055,78.801,56.248z
			 M80.459,57.689c0.049-0.742-0.497-1.541-0.698-1.348C79.561,56.536,80.369,57.047,80.459,57.689z M81.133,61.514
			c-0.999-2.184,0.942-3.164-0.507-4.843C81.619,58.638,79.678,59.56,81.133,61.514z M82.205,65.551
			c0.251,1.291,1.68,0.339,1.311,1.348C84.337,65.772,82.605,66.298,82.205,65.551z M82.29,60.444
			c-0.425-0.828,0.657-3.48-0.425-4.366c0.85,1.749-0.859,3.541,0.173,5.092c-1.43-1.055,0.628-3.596-0.788-4.794
			c0.801,1.428-0.34,2.714-0.127,4.044c0.242,1.515,1.228,1.44,1.294,2.546c0.064,1.11-0.627,1.562-0.143,2.303
			c0.479,0.727,1.951,0.451,1.646,1.383c0.493-0.916-0.685-1.033-0.879-2.046c-0.188-0.979,0.744-1.672,0.564-2.382
			C83.424,61.515,82.705,61.273,82.29,60.444z M84.521,57.71c-0.559-0.961,0.271-2.296-0.767-3.186
			C84.33,55.925,83.405,56.458,84.521,57.71z M88.247,59.032c-0.223,0.205,0.537,0.249,0.613,0.613
			C89.043,59.343,88.472,58.83,88.247,59.032z M93.623,55.504c-0.587-1.055-2.007-0.535-2.458,0.67
			c-0.036,0.092-0.01,0.16,0.078,0.049c0.583-0.765,1.529-1.461,2.259-0.727C93.606,55.597,93.651,55.557,93.623,55.504z
			 M81.97,54.024c-0.031,0.07-0.22,0.146-0.623,0.302c-0.054,0.09-0.18,0.234-0.298,0.312C81.526,54.767,82.056,54.285,81.97,54.024
			z M82.871,63.118c0,0,1.134-0.674-0.099-1.346C83.136,62.457,82.871,63.118,82.871,63.118z M81.255,49.505
			c0.669,0,0.774-0.313,1.279-0.313c0.508,0,0.691,0.333,1.099,0.333c0.401,0,0.647-0.294,0.464-0.549
			c-0.264,0.431-0.728-0.156-1.078-0.156c-0.528,0-0.751,0.22-1.099,0.391c-0.38,0.196-0.749,0.009-0.604-0.214
			c-0.295-0.006-0.489-0.372,0.018-0.803C80.443,48.292,80.582,49.505,81.255,49.505z M78.157,46.771
			c-0.076,0-0.148-0.024-0.21-0.065c-0.349-0.221-0.538-0.83-0.894-0.765c0.21,0.161,0.112,0.734,0.407,1.053
			c0.14,0.156,0.345,0.255,0.572,0.255c0.417,0,0.762-0.341,0.762-0.762c0-0.246-0.117-0.464-0.298-0.604
			c-0.271-0.208-0.649-0.349-1.764-0.728c-2.658-0.902,1.319-3.594-0.509-5.104c1.003,2.169-1.936,3.457-0.412,4.979
			c0.667,0.688,2.108,0.582,2.609,1.075c0.072,0.07,0.12,0.17,0.12,0.278C78.54,46.598,78.369,46.771,78.157,46.771z M78.44,48.942
			c-0.501-0.006-1.083,0.557-1.183,0.194c-0.086-0.282,0.429-0.753,1.107-0.802c-0.571-0.157-1.514,0.369-1.683,0.948
			c-0.18,0.02-0.495-0.215-0.495-0.215c0.156,1.325,1.389,0.16,1.861,0.16c0.415,0,1.74,0.957,1.765-0.234
			C79.354,49.535,79.022,48.942,78.44,48.942z M74.464,43.81c0.067-0.88,0.629-1.658,0.619-2.556
			c-0.008-1.318-1.517-0.071-1.747-0.627c-0.604-1.47,3.861-2.215,3.805,0.392c-0.028,1.375-0.403,2.893,0.667,3.051l0.811-3.327
			l0.852,4.772c-0.777-0.983-2.227-0.604-2.576-2.176c-0.251-1.141,1.087-3.982-2.055-3.768c3.637,1.11-2.026,4.202,1.342,6.178
			c0.898,0.534,1.212,1.474,0.812,1.879c-0.056-1.339-1.386-1.506-1.87-2.075c-0.438-0.51-0.612-0.966-0.657-1.396l-1.253-0.599
			L74.464,43.81z M75.122,40.56c-0.276-0.929-1.787-0.516-1.482-0.145C73.784,40.59,74.376,40.072,75.122,40.56z M76.316,43.147
			c-1.479,2.802,3.646,1.528,2.978,3.912C80.369,44.481,75.757,45.916,76.316,43.147z M78.833,51.046
			c-0.428-0.235-1.487-0.287-1.943-0.944c0.483-0.223,0.981-0.648,1.402-0.563C79.246,49.73,78.926,50.899,78.833,51.046z
			 M78.13,49.71c-0.576-0.12-0.76,0.715-0.325,0.881C77.832,50.286,78.096,49.777,78.13,49.71z M78.491,49.917
			c-0.033,0.075-0.162,0.568-0.355,0.772C78.491,50.827,78.909,50.237,78.491,49.917z M82.302,49.539
			c0.414-0.085,0.916,0.339,1.399,0.563c-0.455,0.656-1.515,0.709-1.936,0.944C81.664,50.899,81.345,49.73,82.302,49.539z
			 M82.788,50.591c0.432-0.166,0.249-1.002-0.327-0.881C82.495,49.777,82.759,50.286,82.788,50.591z M82.455,50.689
			c-0.189-0.204-0.325-0.697-0.355-0.772C81.682,50.237,82.097,50.827,82.455,50.689z M87.434,42.189
			c-0.497,1.089-1.918,1.058-2.458,1.858c-0.948,1.402,0.305,2.841-1.679,3.336c2.352,0.026,1.137-1.978,1.991-3.131
			C86.146,43.097,87.119,43.524,87.434,42.189"/>
		<g>
			<path fill="#A8A8A8" d="M33.535,74.646h-3.291v5.625h0.747v-2.37h2.544c1.447,0,2.183-0.548,2.183-1.632
				C35.718,75.193,34.982,74.646,33.535,74.646 M33.361,77.234h-2.37v-1.923h2.37c1.185,0,1.644,0.271,1.644,0.966
				C35.005,76.967,34.546,77.234,33.361,77.234z"/>
			<path fill="#A8A8A8" d="M42.562,74.646v3.306c0,1.19-0.743,1.821-2.149,1.821c-1.408,0-2.15-0.631-2.15-1.821v-3.306H37.52v3.306
				c0,2.03,1.572,2.455,2.893,2.455c1.319,0,2.892-0.427,2.892-2.455v-3.306H42.562"/>
			<path fill="#A8A8A8" d="M50.241,77.299c0.341-0.166,0.804-0.431,0.804-1.167c0-1.486-1.538-1.486-2.192-1.486h-3.249v5.624h2.876
				c0.961,0,2.751,0,2.751-1.594C51.23,77.783,50.604,77.459,50.241,77.299 M46.345,75.281h2.095c0.958,0,1.859,0,1.859,0.861
				c0,0.586-0.533,0.872-1.631,0.872h-2.323V75.281z M48.914,79.605h-2.568v-1.956h2.646c0.997,0,1.483,0.329,1.483,1.005
				C50.475,79.492,49.687,79.605,48.914,79.605z"/>
			<polyline fill="#A8A8A8" points="53.522,74.646 53.522,80.271 58.474,80.271 58.474,79.605 54.265,79.605 54.265,74.646 
				53.522,74.646 			"/>
			<rect x="60.168" y="74.646" fill="#A8A8A8" width="0.745" height="5.624"/>
			<path fill="#A8A8A8" d="M62.87,77.469c0,1.812,1.227,2.938,3.204,2.938c1.507,0,2.476-0.569,3.025-1.663l-0.654-0.32
				c-0.447,0.828-1.177,1.318-2.311,1.318c-1.548,0-2.507-0.839-2.507-2.186c0-1.556,0.87-2.412,2.447-2.412
				c1.25,0,1.973,0.522,2.295,1.302l0.645-0.295c-0.308-0.755-1.224-1.643-2.947-1.643C64.062,74.508,62.87,75.617,62.87,77.469"/>
			<rect x="71.101" y="74.646" fill="#A8A8A8" width="0.742" height="5.624"/>
			<path fill="#A8A8A8" d="M74.126,76.209c0,1.241,1.44,1.379,2.71,1.503c1.099,0.105,2.134,0.206,2.134,0.957
				c0,1.021-1.655,1.073-1.99,1.073c-1.882,0-2.332-0.941-2.517-1.146l-0.576,0.49c0.4,0.413,1.013,1.321,3.017,1.321
				c2.08,0,2.82-0.898,2.82-1.738c0-1.398-1.489-1.535-2.805-1.655c-1.094-0.1-2.036-0.186-2.036-0.911
				c0-0.834,1.172-0.959,1.865-0.959c1.543,0,2.063,0.748,2.273,0.985l0.546-0.439c-0.159-0.199-0.876-1.181-2.805-1.181
				C75.062,74.508,74.126,75.113,74.126,76.209"/>
			<path fill="#A8A8A8" d="M85.679,77.465c0,1.812,1.223,2.938,3.199,2.938c1.246,0,1.927-0.463,2.273-0.846v0.711h0.667v-2.77
				h-2.934v0.667h2.244c-0.11,1.082-1.221,1.572-2.217,1.572c-1.532,0-2.48-0.837-2.48-2.186c0-1.555,0.859-2.41,2.415-2.41
				c0.542,0,1.799,0.143,2.273,1.273l0.625-0.33c-0.374-0.885-1.423-1.578-2.871-1.578C86.87,74.505,85.679,75.61,85.679,77.465"/>
			<path fill="#A8A8A8" d="M98.108,77.788c0.808-0.059,1.721-0.49,1.721-1.558c0-1.052-0.747-1.585-2.219-1.585h-3.243v5.623h0.739
				V77.81h2.135l1.786,2.458h0.918L98.108,77.788 M95.106,77.144v-1.832h2.35c0.998,0,1.663,0.155,1.663,0.913
				c0,0.763-0.665,0.919-1.663,0.919H95.106z"/>
			<path fill="#A8A8A8" d="M104.85,74.508c-1.998,0-3.287,1.171-3.287,2.984c0,2.002,1.701,2.916,3.287,2.916
				c1.583,0,3.29-0.913,3.29-2.916C108.14,75.68,106.847,74.508,104.85,74.508 M104.85,79.74c-1.226,0-2.531-0.623-2.531-2.372
				c0-1.311,1.038-2.225,2.531-2.225c1.488,0,2.529,0.914,2.529,2.225C107.383,79.116,106.074,79.74,104.85,79.74z"/>
			<path fill="#A8A8A8" d="M115.042,74.646v3.304c0,1.191-0.745,1.821-2.154,1.821c-1.406,0-2.146-0.63-2.146-1.821v-3.304h-0.745
				v3.304c0,2.03,1.575,2.457,2.89,2.457c1.321,0,2.893-0.429,2.893-2.457v-3.304H115.042"/>
			<path fill="#A8A8A8" d="M121.211,74.646h-3.291v5.623h0.742v-2.369h2.549c1.445,0,2.175-0.548,2.175-1.631
				C123.386,75.192,122.653,74.646,121.211,74.646 M121.03,77.235h-2.369v-1.925h2.369c1.183,0,1.646,0.271,1.646,0.966
				C122.676,76.966,122.213,77.235,121.03,77.235z"/>
			<polyline fill="#A8A8A8" points="125.103,74.646 125.103,80.271 130.244,80.271 130.244,79.605 125.845,79.605 125.845,77.663 
				129.445,77.663 129.445,77.006 125.845,77.006 125.845,75.312 130.153,75.312 130.153,74.646 125.103,74.646 			"/>
		</g>
	</g>
</g>
</svg>
