<?xml version="1.0" encoding="utf-8"?>

<!DOCTYPE svg PUBLIC "-//W3C//DTD SVG 1.1//EN" "http://www.w3.org/Graphics/SVG/1.1/DTD/svg11.dtd">
<svg version="1.1" id="Layer_30" xmlns="http://www.w3.org/2000/svg" xmlns:xlink="http://www.w3.org/1999/xlink" x="0px" y="0px"
	 width="159px" height="119px" viewBox="0 0 159 119" enable-background="new 0 0 159 119" xml:space="preserve">
<g>
	<path fill="#A8A8A8" d="M43.367,53.799c-0.887,0.142-1.25,0.052-1.321-0.281c-0.063-0.293,0.048-0.607,1.06-0.851
		c4.521-1.092,16.318-0.483,16.62,3.406c0.106,1.364-1.82,2.621-7.235,3.513c-2.307,0.38-7.971,0.487-7.922-1.368
		c0,0,0.11-2.239,0.129-2.556c0.018-0.303,0.293-0.648,0.825-0.632c0.405,0.013,0.783,0.205,0.811,0.896
		c0.033,0.853,0.11,1.616,0.11,1.616c0,0.27,0.161,0.786,1.481,0.918c3.384,0.34,8.257-0.818,8.27-2.331
		C56.218,53.658,48.526,53.296,43.367,53.799 M42.061,56.315c-0.01-0.238-0.31-0.589-0.673-0.638
		c-1.368-0.187-4.024-0.073-4.949-0.026c-0.926,0.047-0.85,1.004,0,1.076c0.562,0.047,3.096,0.196,3.096,0.196
		c0.205,0,0.383,0.116,0.383,0.307c0,0.483-1.225,1.309-4.107,1.309c-2.03,0-3.36-0.969-3.36-2.417c0-2.029,2.734-3.103,6.46-2.542
		c0.477,0.072,0.994-0.265,0.979-0.603c-0.036-0.718-2.3-0.789-3.269-0.789c-4.242,0-6.571,1.597-6.571,3.933
		c0,2.188,1.88,3.658,5.45,3.661C40.243,59.786,42.12,57.812,42.061,56.315 M73.423,52.803c-0.029-0.312-0.439-0.435-0.886-0.465
		c-1.78-0.123-6.722-0.436-9.253,0.744c-1.346,0.625-1.939,1.524-2.148,2.478c-0.269,1.226-0.273,3.224,0.23,3.753
		c0.575,0.603,2.008,0.185,1.99-0.396c-0.012-0.437-0.082-1.115-0.082-1.115c-0.055-1.239,2.18-0.791,4.893-1.104
		c0.781-0.028,0.938-1.15-0.083-1.115c-0.391,0.014-3.328,0.094-4.031,0.114c-0.098,0.002-0.133-0.081-0.129-0.124
		c0.162-2.489,8.702-2.227,8.916-2.247C73.276,53.285,73.444,53.029,73.423,52.803 M91.554,52.876
		c-0.101-0.222-0.289-0.344-0.572-0.344c-0.459,0-0.681,0.344-0.681,0.659c0,0.334,0.649,1.895,1.862,3.369
		c0.998,1.219,3.006,2.949,5.698,2.949c3.184,0,6.553-2.009,10.01-5.927c0.144-0.168,0.286-0.335,0.286-0.532
		c0-0.286-0.254-0.519-0.596-0.519c-0.181,0-0.311,0.095-0.589,0.344c-3.008,2.75-6.105,4.282-8.623,4.282
		C95.762,57.159,93.13,55.518,91.554,52.876 M122.485,57.132l6.087-2.922c0.312-0.137,0.49-0.486,0.49-0.852
		c0-0.481-0.381-0.911-0.938-0.911h-7.38c-0.314,0-0.508,0.264-0.508,0.549c0,0.337,0.193,0.528,0.48,0.56l4.062,0.486
		c0.34,0.031,0.396,0.229,0.396,0.375c0,0.081-0.056,0.247-0.226,0.332l-4.564,2.064c-0.625,0.292-0.935,0.688-0.935,1.247
		c0,0.691,0.591,1.363,1.294,1.363h8.618c0.366,0,0.615-0.253,0.615-0.561c0-0.34-0.249-0.547-0.534-0.574l-6.881-0.562
		c-0.193-0.029-0.334-0.114-0.334-0.281C122.229,57.306,122.284,57.217,122.485,57.132 M114.653,58.578
		c-1.965,0-4.019-0.657-4.019-2.688c0-1.449,1.067-2.42,2.693-2.42c2.307,0,3.287,0.825,3.287,1.311
		c0,0.191-0.142,0.305-0.307,0.305l-3.258,0.196c-0.312,0.023-0.533,0.236-0.533,0.559c0,0.297,0.222,0.521,0.533,0.521l3.393,0.143
		c0.983,0.029,1.581-0.681,1.581-1.447c0-1.922-2.615-2.833-4.945-2.833c-2.86,0-4.746,1.473-4.746,3.666
		c0,2.338,2.246,3.937,5.642,3.937c2.246,0,3.709-0.434,4.103-0.658c0.141-0.083,0.423-0.194,0.423-0.506
		c0-0.311-0.253-0.518-0.592-0.518C117.549,58.145,116.221,58.578,114.653,58.578 M86.493,57.757
		c-0.773,0.21-2.682,0.222-3.285,0.222c-2.859,0-4.688-0.168-4.927-0.168c-0.433,0-0.627,0.28-0.627,0.542
		c0,0.374,0.399,0.509,0.842,0.594c0.405,0.085,3.517,0.533,7.386,0.533c1.584,0,2.969-0.125,4.045-0.337
		c0.469-0.093,0.736-0.391,0.793-0.729c0.064-0.353-0.092-0.666-0.502-0.998c-0.424-0.346-3.823-2.237-4.332-2.546
		c-0.7-0.43-0.556-1.148,0.05-1.202c0.426-0.036,2.216-0.162,2.653-0.198c0.366-0.031,0.546-0.278,0.546-0.519
		c0-0.357-0.36-0.476-0.65-0.504c-0.883-0.111-2.241-0.198-3.143-0.198c-1.114,0-2.444,0.145-2.922,0.282
		c-0.359,0.104-0.54,0.363-0.552,0.605c-0.016,0.285,0.182,0.561,0.372,0.73c0.647,0.577,4.146,2.489,4.573,2.761
		C87.239,56.9,87.244,57.553,86.493,57.757 M31.138,63.24c14.748,2.283,31.582,3.575,49.456,3.575
		c17.872,0,34.704-1.292,49.454-3.575H31.138z"/>
</g>
</svg>
