<?xml version="1.0" encoding="utf-8"?>

<!DOCTYPE svg PUBLIC "-//W3C//DTD SVG 1.1//EN" "http://www.w3.org/Graphics/SVG/1.1/DTD/svg11.dtd">
<svg version="1.1" id="Layer_30" xmlns="http://www.w3.org/2000/svg" xmlns:xlink="http://www.w3.org/1999/xlink" x="0px" y="0px"
	 width="159px" height="119px" viewBox="0 0 159 119" enable-background="new 0 0 159 119" xml:space="preserve">
<g>
	<path id="path68518_1_" fill="#A8A8A8" d="M119,49.5v20H39v-20H119z"/>
	<path id="path68520_1_" fill="#FFFFFF" d="M115.878,60.514c0,0-0.016,0.034-0.07,0.034h-4.316c-0.068,0-0.101,0.032-0.101,0.032
		s-0.054,0.019-0.054,0.104v4.598c0,0.07-0.032,0.085-0.032,0.085s-0.021,0.036-0.07,0.036h-3.431c-0.049,0-0.084-0.036-0.084-0.036
		s-0.018-0.015-0.018-0.101v-4.601c0-0.048-0.041-0.085-0.041-0.085s-0.025-0.032-0.07-0.032h-4.428
		c-0.085,0-0.101-0.019-0.101-0.019s-0.034-0.033-0.034-0.137v-3.364c0-0.042,0.034-0.085,0.034-0.085s0.016-0.016,0.051-0.016
		h4.522c0.035,0,0.035-0.018,0.035-0.018s0.031-0.018,0.031-0.052V52.83c0-0.05,0.018-0.085,0.018-0.085s0.035-0.018,0.137-0.018
		h3.365c0.062,0,0.083,0.018,0.083,0.018s0.032,0.036,0.032,0.103v4.045h4.395c0.112,0,0.146,0.018,0.146,0.018
		s0.049,0.018,0.049,0.119v3.401C115.927,60.463,115.878,60.514,115.878,60.514z M102.489,65.252
		c-0.016,0.101-0.033,0.133-0.033,0.133s-0.018,0.037-0.104,0.037h-6.953c-0.203,0-0.255-0.054-0.255-0.054
		s-0.034-0.067-0.019-0.219l1.723-11.97c0.019-0.144,0.054-0.196,0.054-0.196s0.017,0,0.178,0h3.166
		c0.086,0,0.111,0.016,0.111,0.016s0.019,0.055,0,0.121l-1.297,9.354c-0.018,0.1,0.034,0.11,0.034,0.11s0.034,0.019,0.172,0.019
		h3.438c0.074,0,0.101,0.031,0.101,0.031s0.019,0.017,0.019,0.102L102.489,65.252z M93.625,65.438h-3.09
		c-0.066,0.033-0.12-0.034-0.12-0.034s-0.017-0.019-0.035-0.121l-0.408-1.908c-0.034-0.092-0.068-0.145-0.068-0.145
		s-0.083-0.051-0.188-0.051h-4.017c-0.078,0-0.128,0.051-0.128,0.051s-0.066,0.06-0.104,0.162l-0.911,1.945
		c-0.02,0.048-0.05,0.066-0.05,0.066s-0.07,0.018-0.104,0.018h-3.483c-0.081,0.016-0.108-0.037-0.108-0.037
		s-0.016-0.032,0.027-0.103l6.133-12.214c0.034-0.015,0.066-0.07,0.066-0.07s0.035-0.016,0.139-0.016h3.797
		c0.086,0,0.135,0.052,0.135,0.052s0.019,0.018,0.037,0.067l2.548,12.266c0,0.036-0.019,0.054-0.019,0.054
		S93.673,65.438,93.625,65.438z M79.146,65.422h-3.088c-0.054,0-0.102,0-0.102,0s-0.011-0.018-0.029-0.037l-4.291-7.598
		c-0.034-0.033-0.051-0.033-0.051-0.033s-0.035,0-0.035,0.049l-1.064,7.464c-0.018,0.086-0.035,0.101-0.035,0.101
		s-0.033,0.018-0.086,0.018h-3.072c-0.047,0-0.084-0.032-0.084-0.032s-0.067-0.07-0.041-0.137l1.68-12.078
		c0.018-0.07,0.053-0.085,0.053-0.085s0.049-0.055,0.101-0.055h3.429c0.053,0,0.087,0.037,0.087,0.037s0.034,0.018,0.052,0.067
		l3.865,6.774c0.067,0.133,0.119,0.118,0.119,0.118s0.05,0,0.084-0.154l0.977-6.738c0-0.049,0.029-0.067,0.029-0.067
		s0.019-0.037,0.07-0.037l3.223,0.037c0.07,0,0.089,0.018,0.089,0.018s0.016,0.015,0.016,0.049l-1.741,12.181
		c-0.018,0.07-0.051,0.121-0.051,0.121S79.231,65.422,79.146,65.422z M65.638,65.385l-3.002,0.019c-0.07,0-0.12-0.036-0.12-0.036
		s-0.016-0.015-0.034-0.134l-0.47-1.943c0-0.042-0.032-0.06-0.032-0.06s-0.018,0-0.053,0h-4.242c-0.083,0-0.135,0.06-0.135,0.06
		s-0.066,0.051-0.117,0.169l-0.847,1.808c-0.034,0.07-0.052,0.086-0.052,0.086s-0.05,0.032-0.094,0.032h-3.495
		c-0.104,0.019-0.122-0.032-0.122-0.032s-0.019-0.052,0.018-0.119l6.065-12.166c0.024-0.07,0.077-0.085,0.077-0.085s0.035,0,0.118,0
		h3.867c0.067,0,0.118,0.052,0.118,0.052s0.018,0.018,0.035,0.067l2.602,12.199c0,0.052-0.033,0.067-0.033,0.067
		S65.672,65.385,65.638,65.385z M88.54,56.502c0,0-0.018,0-0.035,0.068l-1.688,3.807c-0.036,0.119-0.018,0.137-0.018,0.137
		s0.048,0.034,0.086,0.034l2.497-0.019c0.019,0,0.034,0,0.034,0s0.018-0.016,0-0.067l-0.843-3.911
		C88.558,56.502,88.54,56.502,88.54,56.502z M60.511,56.552c0,0-0.018,0-0.034,0.036l-1.688,3.824
		c-0.034,0.051-0.018,0.085-0.018,0.085s0.018,0.018,0.101,0.018l2.483,0.016c0.018,0,0.025-0.016,0.025-0.016s0.016-0.018,0-0.069
		l-0.854-3.857C60.526,56.552,60.511,56.552,60.511,56.552z M51.86,64.961c-0.018,0.134-0.084,0.237-0.084,0.237
		s-0.073,0.069-0.182,0.103c-1.629,0.656-3.432,0.435-3.432,0.435c-2.926-0.314-4.776-2.105-5.374-4.413
		c-0.88-3.458,0.863-5.911,1.289-6.438c1.023-1.229,2.628-2.104,4.206-2.31c2.006-0.281,3.492,0.188,4.106,0.393
		c0,0,0.672,0.212,1.175,0.554c0.255,0.17,0.291,0.238,0.291,0.238s0.016,0.035-0.055,0.298l-0.474,2.477
		c-0.019,0.103-0.081,0.155-0.081,0.155s-0.033,0.018-0.271-0.137c-1.518-1.074-3.291-0.945-3.291-0.945
		c-1.348,0.085-2.927,0.793-3.398,2.58c-0.418,1.586,0.019,2.915,0.963,3.705c0.642,0.563,1.642,0.844,2.689,0.795
		c1.144-0.084,2.057-0.538,1.988-0.505c0,0,0.05-0.017,0.104-0.032c0.237-0.119,0.289-0.104,0.289-0.104s0.052,0.051,0.017,0.206
		L51.86,64.961"/>
</g>
</svg>
