<?xml version="1.0" encoding="utf-8"?>

<!DOCTYPE svg PUBLIC "-//W3C//DTD SVG 1.1//EN" "http://www.w3.org/Graphics/SVG/1.1/DTD/svg11.dtd">
<svg version="1.1" id="Layer_30" xmlns="http://www.w3.org/2000/svg" xmlns:xlink="http://www.w3.org/1999/xlink" x="0px" y="0px"
	 width="159px" height="119px" viewBox="0 0 159 119" enable-background="new 0 0 159 119" xml:space="preserve">
<g>
	<g>
		<g opacity="0.5">
			<path fill="#A8A8A8" d="M72.149,52.129c1.999,0.764,3.326,2.033,3.326,2.033c0.015-0.617,0.176-1.25,0.408-1.786
				c0,0-0.642-1.196-2.532-2.491c-2.03-1.393-4.349-1.78-4.349-1.78c-0.473,1.025-0.809,2.127-0.984,3.282
				C68.018,51.387,69.717,51.202,72.149,52.129"/>
			<path fill="#A8A8A8" d="M73.587,48.087c1.909,1.847,2.6,3.702,2.6,3.702c0.352-0.567,0.821-1.055,1.377-1.431
				c0,0-0.712-2.228-1.858-3.872c-1.149-1.643-3.01-3.01-3.01-3.01c-0.909,0.701-1.715,1.524-2.399,2.443
				C70.296,45.919,72.19,46.739,73.587,48.087"/>
			<path fill="#A8A8A8" d="M76.944,45.783c0.864,2.203,1.085,4.295,1.085,4.295c0.565-0.299,1.301-0.529,1.972-0.584
				c0,0,0.034-2.13-0.435-4.316c-0.547-2.555-1.171-4.142-1.171-4.142c-1.132,0.175-2.214,0.501-3.222,0.956
				C75.174,41.99,76.349,44.259,76.944,45.783"/>
			<path fill="#A8A8A8" d="M88.352,52.129c-2.002,0.764-3.329,2.033-3.329,2.033c-0.012-0.617-0.175-1.25-0.404-1.786
				c0,0,0.64-1.196,2.531-2.491c2.032-1.393,4.346-1.78,4.346-1.78c0.474,1.025,0.81,2.127,0.983,3.282
				C92.479,51.387,90.785,51.202,88.352,52.129"/>
			<path fill="#A8A8A8" d="M86.914,48.087c-1.908,1.847-2.601,3.702-2.601,3.702c-0.352-0.567-0.823-1.055-1.375-1.431
				c0,0,0.707-2.228,1.858-3.872c1.148-1.643,3.006-3.01,3.006-3.01c0.911,0.701,1.717,1.524,2.4,2.443
				C90.203,45.919,88.308,46.739,86.914,48.087"/>
			<path fill="#A8A8A8" d="M83.556,45.783c-0.866,2.203-1.084,4.295-1.084,4.295c-0.566-0.299-1.301-0.529-1.973-0.584
				c0,0-0.035-2.13,0.433-4.316c0.548-2.555,1.172-4.142,1.172-4.142c1.135,0.175,2.214,0.501,3.222,0.956
				C85.325,41.99,84.149,44.259,83.556,45.783"/>
		</g>
		<g>
			<path fill="#A8A8A8" d="M73.81,59.637c2.385-1.135,4.79-0.9,4.79-0.9c-0.855-0.318-1.592-0.867-2.137-1.569
				c0,0-2.136-0.257-3.773,0.073c-2.477,0.501-3.578,1.361-3.578,1.361c0.507,1.036,1.15,1.989,1.912,2.839
				C71.024,61.44,72.046,60.478,73.81,59.637"/>
			<path fill="#A8A8A8" d="M71.954,56.043c2.434-0.117,4.109,0.517,4.109,0.517c-0.302-0.544-0.499-1.15-0.565-1.797
				c0,0-1.931-1.1-3.712-1.34c-2.464-0.329-3.9,0.143-3.9,0.143c0.03,1.168,0.224,2.293,0.558,3.358
				C68.444,56.925,70.024,56.136,71.954,56.043"/>
			<path fill="#A8A8A8" d="M80.251,61.499c3.479,0,5.002,3.014,5.002,3.014c1.085-0.484,2.089-1.112,2.983-1.866
				c0,0-2.944-3.699-7.985-3.699c-5.045,0-7.986,3.699-7.986,3.699c0.892,0.754,1.894,1.382,2.98,1.866
				C75.245,64.513,76.77,61.499,80.251,61.499"/>
			<path fill="#A8A8A8" d="M86.688,59.637c-2.381-1.135-4.789-0.9-4.789-0.9c0.856-0.318,1.591-0.867,2.139-1.569
				c0,0,2.134-0.257,3.772,0.073c2.477,0.501,3.575,1.361,3.575,1.361c-0.503,1.036-1.147,1.989-1.91,2.839
				C89.476,61.44,88.453,60.478,86.688,59.637"/>
			<path fill="#A8A8A8" d="M88.542,56.043c-2.431-0.117-4.108,0.517-4.108,0.517c0.305-0.544,0.503-1.15,0.567-1.797
				c0,0,1.932-1.1,3.713-1.34c2.466-0.329,3.901,0.143,3.901,0.143c-0.033,1.168-0.228,2.293-0.562,3.358
				C92.053,56.925,90.475,56.136,88.542,56.043"/>
			<path fill="#A8A8A8" d="M34.979,73.888h1.87c0.924,0,1.669-0.111,2.374-0.786c0.617-0.591,0.949-1.362,0.949-2.215
				c0-0.898-0.414-1.776-1.13-2.314c-0.676-0.496-1.474-0.634-2.286-0.634h-4.022v0.909h1.254v8.014h-1.254v0.91h3.5v-0.91h-1.254
				V73.888 M34.979,72.98v-4.132h1.763c0.633,0,1.13,0.07,1.655,0.469c0.479,0.383,0.782,0.977,0.782,1.598
				c0,0.633-0.262,1.197-0.758,1.612c-0.494,0.411-1.046,0.453-1.665,0.453H34.979z"/>
			<path fill="#A8A8A8" d="M46.546,75.749c-0.525,0.908-1.462,1.403-2.509,1.403c-1.485,0-2.754-1.171-2.837-2.656h6.609V74.22
				c0-2.135-1.649-3.801-3.801-3.801c-2.089,0-3.717,1.76-3.717,3.815c0,2.064,1.694,3.731,3.773,3.731
				c1.489,0,2.838-0.867,3.444-2.216H46.546 M41.2,73.75c0.167-1.363,1.405-2.505,2.796-2.505c1.476,0,2.753,1.034,2.962,2.505H41.2
				z"/>
			<path fill="#A8A8A8" d="M50.427,72.017c0.332-1.005,1.281-1.433,2.314-1.473v0.853c-1.6,0.136-2.314,1.073-2.314,2.615v2.908
				h1.213v0.853h-3.333V76.92h1.211v-5.523h-1.211v-0.853h2.12V72.017"/>
			<path fill="#A8A8A8" d="M56.197,71.808c0.455-0.893,1.432-1.389,2.421-1.389c0.814,0,2.023,0.439,2.494,1.389
				c0.179,0.358,0.399,1.009,0.399,1.887v3.224h1.212v0.853H59.39V76.92h1.21v-2.894c0-0.645-0.01-1.267-0.339-1.83
				c-0.391-0.676-1.201-0.881-1.888-0.881c-0.633,0-1.282,0.273-1.695,0.756c-0.467,0.552-0.48,1.171-0.48,1.846v3.003h1.21v0.853
				h-3.334V76.92h1.214v-5.523h-1.214v-0.853h2.124V71.808"/>
			<path fill="#A8A8A8" d="M66.59,77.965c2.12,0,3.787-1.722,3.787-3.827c0-2.04-1.709-3.719-3.76-3.719
				c-2.108,0-3.816,1.679-3.816,3.787C62.801,76.273,64.497,77.965,66.59,77.965 M66.59,77.071c-1.613,0-2.88-1.322-2.88-2.894
				c0-1.582,1.296-2.863,2.895-2.863c1.596,0,2.86,1.308,2.86,2.878C69.465,75.774,68.187,77.071,66.59,77.071z"/>
			<path fill="#A8A8A8" d="M77.83,77.772h2.122V76.92h-1.212v-8.98h-2.121v0.854h1.211v3.417c-0.58-1.13-1.75-1.79-3.002-1.79
				c-2.011,0-3.689,1.735-3.689,3.744c0,0.718,0.261,1.49,0.632,2.079c0.634,1.005,1.955,1.722,3.1,1.722
				c1.251,0,2.341-0.646,2.959-1.722V77.772 M74.965,77.112c-1.583,0-2.919-1.294-2.919-2.892c0-1.611,1.295-2.933,2.919-2.933
				c1.585,0,2.894,1.279,2.894,2.876C77.858,75.79,76.594,77.112,74.965,77.112z"/>
			<path fill="#A8A8A8" d="M92.757,77.772h-1.913l-3.041-4.242h0.371c0.742,0,1.458,0.029,2.106-0.372
				c0.688-0.428,1.099-1.17,1.099-1.97c0-0.688-0.244-1.322-0.743-1.774c-0.577-0.538-1.209-0.566-1.953-0.566h-1.928v8.014h1.168
				v0.91h-3.426v-0.91h1.267v-8.014h-1.267v-0.909h4.255c0.949,0,1.75,0.082,2.506,0.733c0.742,0.631,1.115,1.512,1.115,2.475
				c0,1.669-1.295,3.03-2.975,3.03l2.05,2.685h1.308V77.772"/>
			<path fill="#A8A8A8" d="M94.795,67.939h0.909v1.419h-0.909V67.939 M95.704,76.92h1.213v0.853h-3.361V76.92h1.239v-5.523h-1.211
				v-0.853h2.12V76.92L95.704,76.92z"/>
			<path fill="#A8A8A8" d="M103.843,72.718h-0.854c-0.523-0.854-1.474-1.391-2.479-1.391c-1.597,0-2.852,1.296-2.852,2.893
				c0,1.611,1.297,2.835,2.92,2.835c1.035,0,2.053-0.579,2.479-1.541h1.019c-0.538,1.501-1.996,2.451-3.579,2.451
				c-2.051,0-3.745-1.706-3.745-3.731c0-1.036,0.396-1.982,1.062-2.657c0.685-0.704,1.595-1.157,2.643-1.157
				c1.021,0,1.874,0.412,2.532,1.157v-1.033h0.854V72.718"/>
			<path fill="#A8A8A8" d="M111.156,77.772h2.107V76.92h-1.198v-5.523h1.198v-0.853h-2.107v1.583
				c-0.661-1.102-1.654-1.708-2.962-1.708c-1.307,0-2.533,0.66-3.126,1.708c-0.302,0.537-0.605,1.017-0.605,2.065
				c-0.025,0.801,0.221,1.488,0.579,2.081c0.636,1.046,1.846,1.692,3.169,1.692c1.254,0,2.313-0.605,2.945-1.692V77.772
				 M108.292,71.314c1.582,0,2.88,1.281,2.88,2.863c0,1.613-1.283,2.905-2.922,2.905c-1.584,0-2.879-1.32-2.879-2.876
				C105.371,72.609,106.695,71.314,108.292,71.314z"/>
			<path fill="#A8A8A8" d="M116.358,72.017c0.327-1.005,1.277-1.433,2.31-1.473v0.853c-1.597,0.136-2.31,1.073-2.31,2.615v2.908
				h1.21v0.853h-3.334V76.92h1.211v-5.523h-1.211v-0.853h2.125V72.017"/>
			<path fill="#A8A8A8" d="M125.612,77.772h2.123V76.92h-1.213v-8.98h-2.12v0.854h1.21v3.417c-0.574-1.13-1.748-1.79-3-1.79
				c-2.01,0-3.69,1.735-3.69,3.744c0,0.718,0.262,1.49,0.633,2.079c0.634,1.005,1.955,1.722,3.1,1.722
				c1.254,0,2.34-0.646,2.958-1.722V77.772 M122.748,77.112c-1.582,0-2.918-1.294-2.918-2.892c0-1.611,1.295-2.933,2.918-2.933
				c1.585,0,2.891,1.279,2.891,2.876C125.639,75.79,124.373,77.112,122.748,77.112z"/>
		</g>
	</g>
</g>
</svg>
