<?xml version="1.0" encoding="utf-8"?>

<!DOCTYPE svg PUBLIC "-//W3C//DTD SVG 1.1//EN" "http://www.w3.org/Graphics/SVG/1.1/DTD/svg11.dtd">
<svg version="1.1" id="Layer_30" xmlns="http://www.w3.org/2000/svg" xmlns:xlink="http://www.w3.org/1999/xlink" x="0px" y="0px"
	 width="159px" height="119px" viewBox="0 0 159 119" enable-background="new 0 0 159 119" xml:space="preserve">
<g>
	<path fill="none" stroke="#A8A8A8" stroke-width="0.3545" d="M138.456,55.535c0.576,0,1.044-0.468,1.044-1.046
		c0-0.578-0.469-1.046-1.044-1.046c-0.58,0-1.048,0.468-1.048,1.046C137.407,55.068,137.876,55.535,138.456,55.535z"/>
	<g>
		<g opacity="0.5">
			<circle fill="#A8A8A8" cx="22.739" cy="56.331" r="3.239"/>
			<path fill="#A8A8A8" d="M40.361,53.075c-0.827,0.032-1.271,0.763-1.271,1.527v9.632c0,0.828,0.635,1.463,1.336,1.463
				c0.698,0,1.271-0.429,1.271-1.446v-9.713C41.697,53.584,41.316,53.075,40.361,53.075z"/>
			<path fill="#A8A8A8" d="M46.564,57.672v6.627c0,1.017-0.525,1.399-1.226,1.399c-0.699,0-1.336-0.635-1.336-1.463v-9.632
				c0-0.764,0.494-1.495,1.32-1.527c1.305,0,1.4,0.684,1.686,1.066l4.39,6.586v-6.125c0-0.764,0.445-1.495,1.272-1.527
				c0.954,0,1.384,0.509,1.384,1.463v9.738c0,1.018-0.573,1.448-1.272,1.448c-1.097,0-1.241-0.652-1.623-1.225L46.564,57.672z"/>
			<path fill="#A8A8A8" d="M61.065,55.319l0.004,8.957c0,1.018-0.573,1.448-1.272,1.448c-0.7,0-1.336-0.637-1.336-1.463l0.012-8.942
				l-2.367-0.012c-0.953,0-1.495-0.303-1.526-1.13c0-0.89,0.371-1.073,1.453-1.073l7.62-0.001c0.764,0,1.329,0.167,1.329,1.057
				c0,0.764-0.446,1.146-1.462,1.146L61.065,55.319z"/>
			<path fill="#A8A8A8" d="M75.09,54.184c0-0.835-0.478-1.073-1.36-1.073h-7.206c-0.619,0-1.026,0.452-1.026,1.336V64.6
				c0,0.597,0.263,1.097,0.979,1.097h7.467c0.891,0,1.24-0.342,1.24-0.954c0-0.74-0.382-1.146-1.265-1.146h-5.726v-3.43h5.082
				c0.468,0,1.033-0.223,1.002-1.097c-0.024-0.669-0.405-0.979-1.217-0.979h-4.867v-2.884h5.606
				C74.508,55.209,75.09,55.026,75.09,54.184z"/>
			<path fill="#A8A8A8" d="M86.184,63.758c-0.077-0.462-0.096-1.098-0.096-1.456c-0.048-1.936-1.113-2.514-2.292-2.635
				c1.775-0.246,2.529-1.298,2.529-2.983c0-3.244-2.782-3.578-4.77-3.578h-3.269c-0.858,0-1.909,0.191-1.909,1.719v9.172
				c0,1.311,0.358,1.717,1.336,1.717s1.36-0.382,1.36-1.717v-3.614h1.646c1.305,0.011,2.888,0.31,2.888,2.635
				c0,1.742,0.047,2.744,1.572,2.744c0.407,0,0.915-0.189,1.146-0.739C86.518,64.568,86.25,64.153,86.184,63.758z M81.746,58.808
				H79.05v-3.793h2.673c0.843,0,2.147,0.413,2.147,1.86S82.716,58.808,81.746,58.808z"/>
		</g>
		<g>
			<path fill="#A8A8A8" d="M36.035,59.169v-6.082c-3.968,0-6.319,1.807-7.506,3.308c-1.209,1.526-2.884,3.244-5.664,3.244v6.084
				c3.118,0,5.409-1.209,7.062-2.991C31.582,60.951,32.664,59.169,36.035,59.169z"/>
			<path fill="#A8A8A8" d="M135.591,53.106h-7.514c-0.692,0-0.955,0.382-0.955,1.098v0.811c-0.359-0.883-2.003-1.909-3.483-1.909
				h-4.365c-0.622,0-0.907,0.167-0.907,0.979v3.387c-0.454-1.288-2.124-4.556-6.37-4.556c-2.022,0-4.417,0.879-5.679,2.838
				c-0.978-1.701-2.577-2.614-4.747-2.614h-3.388c-0.668,0-1.026,0-1.026,0.835v5.906c-0.608-1.32-2.029-2.247-3.507-2.247H91.79
				c-0.859,0-1.121-0.462-1.121-0.892c0-0.239,0.149-0.55,0.596-0.55h4.033c0.523,0,0.931-0.118,0.931-0.787
				c0-0.668,0-1.479,0-1.479c0-0.597-0.288-0.788-1.146-0.788h-4.151c-1.597,0-4.032,0.964-4.032,3.922s3.173,3.817,4.629,3.817
				h1.574c0.526,0,0.646,0.358,0.646,0.572c0,0.31-0.145,0.625-0.573,0.625H88.45c-0.668,0-0.812,0.262-0.812,0.882v1.957
				c0,0.502,0.167,0.787,0.812,0.787h5.224c1.121,0,3.483-0.834,3.483-2.624v1.862c0,0.454,0.119,0.787,0.622,0.787h2.266
				c0.596,0,0.619-0.406,0.596-0.834v-1.337c0-0.342,0.238-0.494,0.572-0.494c1.436,0.001,4.279-0.501,4.279-1.717
				c0.612,2.179,2.997,4.74,6.505,4.74c3.506,0,6.37-2.934,6.37-5.344v3.96c0,0.429,0,1.025,0.644,1.025h2.362
				c0.404,0,0.62-0.262,0.62-0.811v-3.555l2.741,3.913c0.192,0.191,0.312,0.429,0.717,0.429h2.816c0.381,0,0.31-0.309,0.118-0.62
				c-0.192-0.31-2.242-3.46-2.242-3.46c1.408-0.859,2.171-1.789,2.171-3.841c0-0.357-0.023-0.74-0.047-0.882h1.909v8.016
				c0,0.43,0.167,0.787,0.833,0.787h2.412c0.668,0,0.596-0.356,0.596-0.763v-8.04h1.48c0.881,0,1.024-0.167,1.024-0.908v-2.194
				C136.521,53.321,136.307,53.106,135.591,53.106z M102.136,59.587h-1.558v-3.02h1.431c0.923,0,1.48,0.668,1.494,1.368
				C103.524,59.053,102.839,59.592,102.136,59.587z M123.428,59.384h-1.416v-2.839h1.027c0.857,0,1.685,0.613,1.685,1.344
				C124.724,58.822,124.265,59.384,123.428,59.384z M111.966,62.024c-1.416,0-2.566-1.148-2.566-2.563
				c0-1.416,1.15-2.564,2.566-2.564c1.415,0,2.564,1.148,2.564,2.564C114.53,60.876,113.381,62.024,111.966,62.024z"/>
			<path fill="#A8A8A8" d="M139.008,55.181h-0.355l-0.366-0.551h-0.003v0.551h-0.293v-1.368h0.397c0.296,0,0.501,0.12,0.501,0.412
				c0,0.174-0.105,0.348-0.306,0.379L139.008,55.181z M138.283,54.444h0.038c0.163,0,0.275-0.044,0.275-0.211
				c0-0.169-0.117-0.201-0.272-0.201h-0.041V54.444z"/>
		</g>
	</g>
</g>
</svg>
