<?xml version="1.0" encoding="utf-8"?>

<!DOCTYPE svg PUBLIC "-//W3C//DTD SVG 1.1//EN" "http://www.w3.org/Graphics/SVG/1.1/DTD/svg11.dtd">
<svg version="1.1" id="Layer_30" xmlns="http://www.w3.org/2000/svg" xmlns:xlink="http://www.w3.org/1999/xlink" x="0px" y="0px"
	 width="159px" height="119px" viewBox="0 0 159 119" enable-background="new 0 0 159 119" xml:space="preserve">
<g>
	<g>
		<path fill="#A8A8A8" d="M56.335,65.343c-0.254,0.269-0.956,0.371-1.15,0.686c-0.3,0.461-1.001,1.543-1.533,2.051
			c-1.736,1.649-5.463,2.483-7.305,0.902c-0.113,0.01-0.046,0.082,0.099,0.532c0.133,0.851,0.822,2.86,0.568,3.369
			c0.165,0.568,0.343,0.364,0.651,0.678c0.212,0.212,0.3,0.766,0.548,0.924c0.273-0.021,0.556-0.038,0.838-0.059
			c0.049,0.156,0.1,0.313,0.154,0.47c0.358-0.029,0.714-0.051,1.071-0.08c0.203,0.051,0.818,0.364,0.995,0.413
			c0.399-0.032,0.799-0.058,1.198-0.083c0.912,0.241,1.707-0.141,2.482-0.656c0.427-0.293,0.899-0.247,1.281-0.578
			c0.553-0.47,1.305-1.397,1.659-2.038c0.866-1.573,0.567-5.337-0.213-6.267C57.373,65.271,57.015,65.271,56.335,65.343
			 M63.572,64.312c-0.646,0.496-0.92,0.373-1.3,1.136c-0.04,0,0.055,0.115,0.02,0.115c0.388,0.775,1.272,1.085,1.92,1.629
			c0.204,0.168,0.756,1.122,1.015,1.195c0.293,0.352,0.492,1.317,0.676,1.317c0.206,0.271-0.015,0.916,0.185,1.162
			c0.011,1.144-0.148,1.229-0.348,1.444c0,0.081,0.104,0.294,0.104,0.37c0.059,0.055,0.518,0.39,0.722,0.346
			c0.619,0.017,3.177,2.014,3.382,2.399c1.841,0.145,1.708-0.422,2.975-0.96c0.342-0.144,0.614-0.006,0.839-0.237
			c0.234-0.242,0.255-0.721,0.481-0.964C74.275,68.746,68.127,64.465,63.572,64.312 M68.562,54.763
			c-2.275,0.344-3.665,1.073-4.526,1.666c-0.598,0.414-0.771,0.702-0.908,0.877c-0.125,0.174-0.219,0.563-0.146,0.97
			c0.059,0.416,0.225,0.848,0.584,1.094c2.797-0.208,7.646-0.385,8.588,1.963c0.054,0.331,0.127,0.521,0.135,0.601
			c0.926-0.229,0.251-0.147,1.607,0.064c0.313,0.05,1.089-0.122,1.598-0.245c0.23-0.061,0.361-0.264,0.361-0.264
			s-0.044-0.23-0.035-0.348c0,0,0.479,0.035,0.678-0.119c1.289-0.21,0.614-0.818,1.226-1.5
			C77.348,55.131,72.846,54.115,68.562,54.763 M51.234,62.765c0.5-0.127,1.348-0.19,1.797-0.418
			c0.716-0.352,3.159-2.065,2.387-3.455c-0.241-2.932-3.789-0.458-5.289-1.483c-1.525-0.198-3.247-3.081-3.706-4.319
			c-0.177-0.487-0.102-0.319-0.345-0.708c0-0.043-0.157,0.136-0.157,0.098c-0.445,0.516-0.364,0.967-0.438,2.233
			c-0.204-0.013-0.397-0.02-0.596-0.037c-0.043,0.461-0.084,0.711-0.298,0.948c-0.051,0.076-0.094,0.152-0.138,0.228
			c-0.384-0.135-0.188,0.051-0.344-0.262c-1.41,0.068-1.302,1.479-1.946,2.28C42.188,60.506,47.402,63.762,51.234,62.765
			 M61.396,48.438c0.119-0.995-0.031-2.454,0.758-3.136c0.23-1.063,1.909-0.818,1.645-1.494c-0.171-0.417-0.948-0.219-1.272-0.138
			c-0.238,0.052-2.529,0.779-3.411,0.877c-0.372-0.105-0.744-0.212-1.119-0.308c-1.44,0.189-2.268,1.331-3.071,2.246
			c-0.669,0.762-1.585,2.627-0.852,3.746c-0.05,0.245-0.087,0.487-0.131,0.729l1.64,2.39c0.566,0.407,0.639,0.708,1.249,1.11
			c0.119,0.187,0.245,0.374,0.372,0.563c0.497,0.324,1.96,0.327,2.204,0.115c2.361,0.22,2.108-4.553,2.854-5.553
			C62.167,49.134,61.767,48.668,61.396,48.438"/>
		<path fill="#A8A8A8" d="M99.321,66.121c2.095,0,3.789-0.684,3.789-4.381c0-3.133-1.694-4.175-3.789-4.175h-1.089v8.556H99.321z
			 M100.427,55.076c3.786,0,6.346,2.387,6.346,6.663c0,5.379-3.519,6.969-7.196,6.969h-4.933c0.019-0.298,0-1.093,0-2.09v-9.447
			c0-1.001,0.019-1.636,0-2.095H100.427z"/>
		<path fill="#A8A8A8" d="M112.131,66.618c0,0.997,0.046,2.09,0.046,2.09h-3.659c0,0,0.026-1.093,0.026-2.09v-9.447
			c0-1.001-0.026-2.095-0.026-2.095h8.643v2.636c0,0-1.931-0.045-2.581-0.045h-2.449v2.746l2.449,0.024
			c0.455,0,2.035-0.024,2.035-0.024v2.508c0,0-1.397-0.038-2.035-0.038l-2.449,0.014V66.618z"/>
		<path fill="#A8A8A8" d="M84.309,60.226c0.051-0.788,0.334-2.619,2.326-2.619c2.044,0,2.157,1.721,2.157,2.633v0.182
			c0,0-1.363,0.034-2.186,0.034c-0.813,0-2.317-0.034-2.317-0.034L84.309,60.226z M87.348,65.956c-1.716,0-3.039-1.158-3.039-2.968
			V62.83c0,0,3.188-0.069,4.276-0.069c1.838,0,2.602-0.021,4.048-0.048v-1.025c0-4.646-1.967-6.904-6.026-6.904
			c-1.866,0-6.217,0.703-6.217,7.208c0,4.338,2.19,6.934,6.019,6.934c3.012,0,4.861-0.771,6.198-1.746
			c-0.154-0.224-1.279-2.232-1.42-2.453C90.379,65.343,89.055,65.956,87.348,65.956"/>
	</g>
</g>
</svg>
