<?xml version="1.0" encoding="utf-8"?>
<!-- Generator: Adobe Illustrator 16.0.0, SVG Export Plug-In . SVG Version: 6.00 Build 0)  -->
<!DOCTYPE svg PUBLIC "-//W3C//DTD SVG 1.1//EN" "http://www.w3.org/Graphics/SVG/1.1/DTD/svg11.dtd">
<svg version="1.1" id="Calque_1" xmlns="http://www.w3.org/2000/svg" xmlns:xlink="http://www.w3.org/1999/xlink" x="0px" y="0px"
	 width="300px" height="225px" viewBox="0 0 300 225" enable-background="new 0 0 300 225" xml:space="preserve">
<g id="Focus_Background">
</g>
<g id="Focus">
</g>
<g id="Default">
	<g>
		<g>
			<g>
				<rect x="50" y="151" fill="#0F373F" width="1" height="1"/>
			</g>
			<g>
				<rect x="65" y="151" fill="#0F373F" width="1" height="1"/>
			</g>
			<g>
				<rect x="80" y="151" fill="#0F373F" width="1" height="1"/>
			</g>
			<g>
				<rect x="95" y="151" fill="#0F373F" width="1" height="1"/>
			</g>
			<g>
				<polygon fill="#A4B8C3" points="54.992,148 56,148 47,139 46,139 				"/>
				<polygon fill="#0F373F" points="52.438,145.438 52.994,145.036 51.848,143.891 50.9,143.879 				"/>
				<rect x="55" y="146" fill="#A4B8C3" width="1" height="2"/>
				<rect x="52" y="147" fill="#A4B8C3" width="1" height="2"/>
				<polygon fill="#A4B8C3" points="51.994,149 53.002,149 44,140 43,140 				"/>
				<rect x="48" y="133" fill="#0F5B7A" width="4" height="6"/>
				<path fill="#0F373F" d="M47.879,144.9l0.979-0.021l1.058,1.048l-0.517,0.511L47.879,144.9z"/>
				<polygon fill="#0F5B7A" points="51,144 52,144.021 52,139 51,139 				"/>
				<polygon fill="#0F5B7A" points="48,144.979 49,145.062 49,139 48,139 				"/>
				<rect x="48" y="130" fill="#E8C9AA" width="4" height="3"/>
				<rect x="48" y="128" fill="#E01C24" width="4" height="2"/>
				<polygon fill="#E01C24" points="53.002,133 52.002,133 49.002,133 48.002,133 47.002,133 46,133 46,137 47,137 47,134 48,134 
					48,138 52,138 52,134 53,134 53,137 54,137 54,134 54,133 				"/>
				<rect x="50" y="127" fill="#0F373F" width="1" height="1"/>
			</g>
			<g>
				<polygon fill="#A4B8C3" points="69.992,148 71,148 62,139 61,139 				"/>
				<polygon fill="#0F373F" points="67.438,145.438 67.994,145.036 66.848,143.891 65.9,143.879 				"/>
				<rect x="70" y="146" fill="#A4B8C3" width="1" height="2"/>
				<rect x="67" y="147" fill="#A4B8C3" width="1" height="2"/>
				<polygon fill="#A4B8C3" points="66.994,149 68.002,149 59,140 58,140 				"/>
				<rect x="63" y="133" fill="#0F5B7A" width="4" height="6"/>
				<path fill="#0F373F" d="M62.879,144.9l0.979-0.021l1.058,1.048l-0.517,0.511L62.879,144.9z"/>
				<polygon fill="#0F5B7A" points="66,144 67,144.021 67,139 66,139 				"/>
				<polygon fill="#0F5B7A" points="63,144.979 64,145.062 64,139 63,139 				"/>
				<rect x="63" y="130" fill="#E8C9AA" width="4" height="3"/>
				<rect x="63" y="128" fill="#E01C24" width="4" height="2"/>
				<polygon fill="#E01C24" points="68.002,133 67.002,133 64.002,133 63.002,133 62.002,133 61,133 61,137 62,137 62,134 63,134 
					63,138 67,138 67,134 68,134 68,137 69,137 69,134 69,133 				"/>
				<rect x="65" y="127" fill="#0F373F" width="1" height="1"/>
			</g>
			<g>
				<polygon fill="#A4B8C3" points="84.992,148 86,148 77,139 76,139 				"/>
				<polygon fill="#0F373F" points="82.438,145.438 82.994,145.036 81.848,143.891 80.9,143.879 				"/>
				<rect x="85" y="146" fill="#A4B8C3" width="1" height="2"/>
				<rect x="82" y="147" fill="#A4B8C3" width="1" height="2"/>
				<polygon fill="#A4B8C3" points="81.994,149 83.002,149 74,140 73,140 				"/>
				<rect x="78" y="133" fill="#0F5B7A" width="4" height="6"/>
				<path fill="#0F373F" d="M77.879,144.9l0.979-0.021l1.058,1.048l-0.517,0.511L77.879,144.9z"/>
				<polygon fill="#0F5B7A" points="81,144 82,144.021 82,139 81,139 				"/>
				<polygon fill="#0F5B7A" points="78,144.979 79,145.062 79,139 78,139 				"/>
				<rect x="78" y="130" fill="#E8C9AA" width="4" height="3"/>
				<rect x="78" y="128" fill="#E01C24" width="4" height="2"/>
				<polygon fill="#E01C24" points="83.002,133 82.002,133 79.002,133 78.002,133 77.002,133 76,133 76,137 77,137 77,134 78,134 
					78,138 82,138 82,134 83,134 83,137 84,137 84,134 84,133 				"/>
				<rect x="80" y="127" fill="#0F373F" width="1" height="1"/>
			</g>
			<g>
				<polygon fill="#A4B8C3" points="99.992,148 101,148 92,139 91,139 				"/>
				<polygon fill="#0F373F" points="97.438,145.438 97.994,145.036 96.848,143.891 95.9,143.879 				"/>
				<rect x="100" y="146" fill="#A4B8C3" width="1" height="2"/>
				<rect x="97" y="147" fill="#A4B8C3" width="1" height="2"/>
				<polygon fill="#A4B8C3" points="96.994,149 98.002,149 89,140 88,140 				"/>
				<rect x="93" y="133" fill="#0F5B7A" width="4" height="6"/>
				<path fill="#0F373F" d="M92.879,144.9l0.979-0.021l1.058,1.048l-0.517,0.511L92.879,144.9z"/>
				<polygon fill="#0F5B7A" points="96,144 97,144.021 97,139 96,139 				"/>
				<polygon fill="#0F5B7A" points="93,144.979 94,145.062 94,139 93,139 				"/>
				<rect x="93" y="130" fill="#E8C9AA" width="4" height="3"/>
				<rect x="93" y="128" fill="#E01C24" width="4" height="2"/>
				<polygon fill="#E01C24" points="98.002,133 97.002,133 94.002,133 93.002,133 92.002,133 91,133 91,137 92,137 92,134 93,134 
					93,138 97,138 97,134 98,134 98,137 99,137 99,134 99,133 				"/>
				<rect x="95" y="127" fill="#0F373F" width="1" height="1"/>
			</g>
			<g>
				<polygon fill="#A4B8C3" points="84.992,124 86,124 77,115 76,115 				"/>
				<polygon fill="#0F373F" points="82.438,121.438 82.994,121.036 81.848,119.891 80.9,119.879 				"/>
				<rect x="85" y="122" fill="#A4B8C3" width="1" height="2"/>
				<rect x="82" y="123" fill="#A4B8C3" width="1" height="2"/>
				<polygon fill="#A4B8C3" points="81.994,125 83.002,125 74,116 73,116 				"/>
				<rect x="78" y="109" fill="#0F5B7A" width="4" height="6"/>
				<path fill="#0F373F" d="M77.879,120.9l0.979-0.021l1.058,1.048l-0.517,0.511L77.879,120.9z"/>
				<polygon fill="#0F5B7A" points="81,120 82,120.021 82,115 81,115 				"/>
				<polygon fill="#0F5B7A" points="78,120.979 79,121.062 79,115 78,115 				"/>
				<rect x="78" y="106" fill="#E8C9AA" width="4" height="3"/>
				<rect x="78" y="104" fill="#E01C24" width="4" height="2"/>
				<polygon fill="#E01C24" points="83.002,109 82.002,109 79.002,109 78.002,109 77.002,109 76,109 76,113 77,113 77,110 78,110 
					78,114 82,114 82,110 83,110 83,113 84,113 84,110 84,109 				"/>
				<rect x="80" y="103" fill="#0F373F" width="1" height="1"/>
			</g>
			<g>
				<polygon fill="#A4B8C3" points="99.992,124 101,124 92,115 91,115 				"/>
				<polygon fill="#0F373F" points="97.438,121.438 97.994,121.036 96.848,119.891 95.9,119.879 				"/>
				<rect x="100" y="122" fill="#A4B8C3" width="1" height="2"/>
				<rect x="97" y="123" fill="#A4B8C3" width="1" height="2"/>
				<polygon fill="#A4B8C3" points="96.994,125 98.002,125 89,116 88,116 				"/>
				<rect x="93" y="109" fill="#0F5B7A" width="4" height="6"/>
				<path fill="#0F373F" d="M92.879,120.9l0.979-0.021l1.058,1.048l-0.517,0.511L92.879,120.9z"/>
				<polygon fill="#0F5B7A" points="96,120 97,120.021 97,115 96,115 				"/>
				<polygon fill="#0F5B7A" points="93,120.979 94,121.062 94,115 93,115 				"/>
				<rect x="93" y="106" fill="#E8C9AA" width="4" height="3"/>
				<rect x="93" y="104" fill="#E01C24" width="4" height="2"/>
				<polygon fill="#E01C24" points="98.002,109 97.002,109 94.002,109 93.002,109 92.002,109 91,109 91,113 92,113 92,110 93,110 
					93,114 97,114 97,110 98,110 98,113 99,113 99,110 99,109 				"/>
				<rect x="95" y="103" fill="#0F373F" width="1" height="1"/>
			</g>
		</g>
		<g>
			<g>
				<rect x="130" y="151" fill="#0F373F" width="1" height="1"/>
			</g>
			<g>
				<rect x="145" y="151" fill="#0F373F" width="1" height="1"/>
			</g>
			<g>
				<polygon fill="#A4B8C3" points="134.992,148 136,148 127,139 126,139 				"/>
				<polygon fill="#0F373F" points="132.438,145.438 132.994,145.036 131.848,143.891 130.9,143.879 				"/>
				<rect x="135" y="146" fill="#A4B8C3" width="1" height="2"/>
				<rect x="132" y="147" fill="#A4B8C3" width="1" height="2"/>
				<polygon fill="#A4B8C3" points="131.994,149 133.002,149 124,140 123,140 				"/>
				<rect x="128" y="133" fill="#0F5B7A" width="4" height="6"/>
				<path fill="#0F373F" d="M127.879,144.9l0.979-0.021l1.058,1.048l-0.517,0.511L127.879,144.9z"/>
				<polygon fill="#0F5B7A" points="131,144 132,144.021 132,139 131,139 				"/>
				<polygon fill="#0F5B7A" points="128,144.979 129,145.062 129,139 128,139 				"/>
				<rect x="128" y="130" fill="#E8C9AA" width="4" height="3"/>
				<rect x="128" y="128" fill="#E01C24" width="4" height="2"/>
				<polygon fill="#E01C24" points="133.002,133 132.002,133 129.002,133 128.002,133 127.002,133 126,133 126,137 127,137 127,134 
					128,134 128,138 132,138 132,134 133,134 133,137 134,137 134,134 134,133 				"/>
				<rect x="130" y="127" fill="#0F373F" width="1" height="1"/>
			</g>
			<g>
				<polygon fill="#A4B8C3" points="149.992,148 151,148 142,139 141,139 				"/>
				<polygon fill="#0F373F" points="147.438,145.438 147.994,145.036 146.848,143.891 145.9,143.879 				"/>
				<rect x="150" y="146" fill="#A4B8C3" width="1" height="2"/>
				<rect x="147" y="147" fill="#A4B8C3" width="1" height="2"/>
				<polygon fill="#A4B8C3" points="146.994,149 148.002,149 139,140 138,140 				"/>
				<rect x="143" y="133" fill="#0F5B7A" width="4" height="6"/>
				<path fill="#0F373F" d="M142.879,144.9l0.979-0.021l1.058,1.048l-0.517,0.511L142.879,144.9z"/>
				<polygon fill="#0F5B7A" points="146,144 147,144.021 147,139 146,139 				"/>
				<polygon fill="#0F5B7A" points="143,144.979 144,145.062 144,139 143,139 				"/>
				<rect x="143" y="130" fill="#E8C9AA" width="4" height="3"/>
				<rect x="143" y="128" fill="#E01C24" width="4" height="2"/>
				<polygon fill="#E01C24" points="148.002,133 147.002,133 144.002,133 143.002,133 142.002,133 141,133 141,137 142,137 142,134 
					143,134 143,138 147,138 147,134 148,134 148,137 149,137 149,134 149,133 				"/>
				<rect x="145" y="127" fill="#0F373F" width="1" height="1"/>
			</g>
			<g>
				<polygon fill="#A4B8C3" points="134.992,124 136,124 127,115 126,115 				"/>
				<polygon fill="#0F373F" points="132.438,121.438 132.994,121.036 131.848,119.891 130.9,119.879 				"/>
				<rect x="135" y="122" fill="#A4B8C3" width="1" height="2"/>
				<rect x="132" y="123" fill="#A4B8C3" width="1" height="2"/>
				<polygon fill="#A4B8C3" points="131.994,125 133.002,125 124,116 123,116 				"/>
				<rect x="128" y="109" fill="#0F5B7A" width="4" height="6"/>
				<path fill="#0F373F" d="M127.879,120.9l0.979-0.021l1.058,1.048l-0.517,0.511L127.879,120.9z"/>
				<polygon fill="#0F5B7A" points="131,120 132,120.021 132,115 131,115 				"/>
				<polygon fill="#0F5B7A" points="128,120.979 129,121.062 129,115 128,115 				"/>
				<rect x="128" y="106" fill="#E8C9AA" width="4" height="3"/>
				<rect x="128" y="104" fill="#E01C24" width="4" height="2"/>
				<polygon fill="#E01C24" points="133.002,109 132.002,109 129.002,109 128.002,109 127.002,109 126,109 126,113 127,113 127,110 
					128,110 128,114 132,114 132,110 133,110 133,113 134,113 134,110 134,109 				"/>
				<rect x="130" y="103" fill="#0F373F" width="1" height="1"/>
			</g>
			<g>
				<polygon fill="#A4B8C3" points="149.992,124 151,124 142,115 141,115 				"/>
				<polygon fill="#0F373F" points="147.438,121.438 147.994,121.036 146.848,119.891 145.9,119.879 				"/>
				<rect x="150" y="122" fill="#A4B8C3" width="1" height="2"/>
				<rect x="147" y="123" fill="#A4B8C3" width="1" height="2"/>
				<polygon fill="#A4B8C3" points="146.994,125 148.002,125 139,116 138,116 				"/>
				<rect x="143" y="109" fill="#0F5B7A" width="4" height="6"/>
				<path fill="#0F373F" d="M142.879,120.9l0.979-0.021l1.058,1.048l-0.517,0.511L142.879,120.9z"/>
				<polygon fill="#0F5B7A" points="146,120 147,120.021 147,115 146,115 				"/>
				<polygon fill="#0F5B7A" points="143,120.979 144,121.062 144,115 143,115 				"/>
				<rect x="143" y="106" fill="#E8C9AA" width="4" height="3"/>
				<rect x="143" y="104" fill="#E01C24" width="4" height="2"/>
				<polygon fill="#E01C24" points="148.002,109 147.002,109 144.002,109 143.002,109 142.002,109 141,109 141,113 142,113 142,110 
					143,110 143,114 147,114 147,110 148,110 148,113 149,113 149,110 149,109 				"/>
				<rect x="145" y="103" fill="#0F373F" width="1" height="1"/>
			</g>
			<g>
				<polygon fill="#A4B8C3" points="164.992,124 166,124 157,115 156,115 				"/>
				<polygon fill="#0F373F" points="162.438,121.438 162.994,121.036 161.848,119.891 160.9,119.879 				"/>
				<rect x="165" y="122" fill="#A4B8C3" width="1" height="2"/>
				<rect x="162" y="123" fill="#A4B8C3" width="1" height="2"/>
				<polygon fill="#A4B8C3" points="161.994,125 163.002,125 154,116 153,116 				"/>
				<rect x="158" y="109" fill="#0F5B7A" width="4" height="6"/>
				<path fill="#0F373F" d="M157.879,120.9l0.979-0.021l1.06,1.048l-0.519,0.511L157.879,120.9z"/>
				<polygon fill="#0F5B7A" points="161,120 162,120.021 162,115 161,115 				"/>
				<polygon fill="#0F5B7A" points="158,120.979 159,121.062 159,115 158,115 				"/>
				<rect x="158" y="106" fill="#E8C9AA" width="4" height="3"/>
				<rect x="158" y="104" fill="#E01C24" width="4" height="2"/>
				<polygon fill="#E01C24" points="163.002,109 162.002,109 159.002,109 158.002,109 157.002,109 156,109 156,113 157,113 157,110 
					158,110 158,114 162,114 162,110 163,110 163,113 164,113 164,110 164,109 				"/>
				<rect x="160" y="103" fill="#0F373F" width="1" height="1"/>
			</g>
			<g>
				<polygon fill="#A4B8C3" points="179.992,124 181,124 172,115 171,115 				"/>
				<polygon fill="#0F373F" points="177.438,121.438 177.994,121.036 176.848,119.891 175.9,119.879 				"/>
				<rect x="180" y="122" fill="#A4B8C3" width="1" height="2"/>
				<rect x="177" y="123" fill="#A4B8C3" width="1" height="2"/>
				<polygon fill="#A4B8C3" points="176.994,125 178.002,125 169,116 168,116 				"/>
				<rect x="173" y="109" fill="#0F5B7A" width="4" height="6"/>
				<path fill="#0F373F" d="M172.879,120.9l0.979-0.021l1.06,1.048l-0.519,0.511L172.879,120.9z"/>
				<polygon fill="#0F5B7A" points="176,120 177,120.021 177,115 176,115 				"/>
				<polygon fill="#0F5B7A" points="173,120.979 174,121.062 174,115 173,115 				"/>
				<rect x="173" y="106" fill="#E8C9AA" width="4" height="3"/>
				<rect x="173" y="104" fill="#E01C24" width="4" height="2"/>
				<polygon fill="#E01C24" points="178.002,109 177.002,109 174.002,109 173.002,109 172.002,109 171,109 171,113 172,113 172,110 
					173,110 173,114 177,114 177,110 178,110 178,113 179,113 179,110 179,109 				"/>
				<rect x="175" y="103" fill="#0F373F" width="1" height="1"/>
			</g>
		</g>
		<g>
			<g>
				<polygon fill="#A4B8C3" points="214.992,124 216,124 207,115 206,115 				"/>
				<polygon fill="#0F373F" points="212.438,121.438 212.994,121.036 211.848,119.891 210.9,119.879 				"/>
				<rect x="215" y="122" fill="#A4B8C3" width="1" height="2"/>
				<rect x="212" y="123" fill="#A4B8C3" width="1" height="2"/>
				<polygon fill="#A4B8C3" points="211.994,125 213.002,125 204,116 203,116 				"/>
				<rect x="208" y="109" fill="#0F5B7A" width="4" height="6"/>
				<path fill="#0F373F" d="M207.879,120.9l0.979-0.021l1.06,1.048l-0.519,0.511L207.879,120.9z"/>
				<polygon fill="#0F5B7A" points="211,120 212,120.021 212,115 211,115 				"/>
				<polygon fill="#0F5B7A" points="208,120.979 209,121.062 209,115 208,115 				"/>
				<rect x="208" y="106" fill="#E8C9AA" width="4" height="3"/>
				<rect x="208" y="104" fill="#E01C24" width="4" height="2"/>
				<polygon fill="#E01C24" points="213.002,109 212.002,109 209.002,109 208.002,109 207.002,109 206,109 206,113 207,113 207,110 
					208,110 208,114 212,114 212,110 213,110 213,113 214,113 214,110 214,109 				"/>
				<rect x="210" y="103" fill="#0F373F" width="1" height="1"/>
			</g>
			<g>
				<polygon fill="#A4B8C3" points="229.992,124 231,124 222,115 221,115 				"/>
				<polygon fill="#0F373F" points="227.438,121.438 227.994,121.036 226.848,119.891 225.9,119.879 				"/>
				<rect x="230" y="122" fill="#A4B8C3" width="1" height="2"/>
				<rect x="227" y="123" fill="#A4B8C3" width="1" height="2"/>
				<polygon fill="#A4B8C3" points="226.994,125 228.002,125 219,116 218,116 				"/>
				<rect x="223" y="109" fill="#0F5B7A" width="4" height="6"/>
				<path fill="#0F373F" d="M222.879,120.9l0.979-0.021l1.06,1.048l-0.519,0.511L222.879,120.9z"/>
				<polygon fill="#0F5B7A" points="226,120 227,120.021 227,115 226,115 				"/>
				<polygon fill="#0F5B7A" points="223,120.979 224,121.062 224,115 223,115 				"/>
				<rect x="223" y="106" fill="#E8C9AA" width="4" height="3"/>
				<rect x="223" y="104" fill="#E01C24" width="4" height="2"/>
				<polygon fill="#E01C24" points="228.002,109 227.002,109 224.002,109 223.002,109 222.002,109 221,109 221,113 222,113 222,110 
					223,110 223,114 227,114 227,110 228,110 228,113 229,113 229,110 229,109 				"/>
				<rect x="225" y="103" fill="#0F373F" width="1" height="1"/>
			</g>
			<g>
				<polygon fill="#A4B8C3" points="244.992,124 246,124 237,115 236,115 				"/>
				<polygon fill="#0F373F" points="242.438,121.438 242.994,121.036 241.848,119.891 240.9,119.879 				"/>
				<rect x="245" y="122" fill="#A4B8C3" width="1" height="2"/>
				<rect x="242" y="123" fill="#A4B8C3" width="1" height="2"/>
				<polygon fill="#A4B8C3" points="241.994,125 243.002,125 234,116 233,116 				"/>
				<rect x="238" y="109" fill="#0F5B7A" width="4" height="6"/>
				<path fill="#0F373F" d="M237.879,120.9l0.979-0.021l1.06,1.048l-0.519,0.511L237.879,120.9z"/>
				<polygon fill="#0F5B7A" points="241,120 242,120.021 242,115 241,115 				"/>
				<polygon fill="#0F5B7A" points="238,120.979 239,121.062 239,115 238,115 				"/>
				<rect x="238" y="106" fill="#E8C9AA" width="4" height="3"/>
				<rect x="238" y="104" fill="#E01C24" width="4" height="2"/>
				<polygon fill="#E01C24" points="243.002,109 242.002,109 239.002,109 238.002,109 237.002,109 236,109 236,113 237,113 237,110 
					238,110 238,114 242,114 242,110 243,110 243,113 244,113 244,110 244,109 				"/>
				<rect x="240" y="103" fill="#0F373F" width="1" height="1"/>
			</g>
			<g>
				<polygon fill="#A4B8C3" points="214.992,100 216,100 207,91 206,91 				"/>
				<polygon fill="#0F373F" points="212.438,97.438 212.994,97.036 211.848,95.891 210.9,95.879 				"/>
				<rect x="215" y="98" fill="#A4B8C3" width="1" height="2"/>
				<rect x="212" y="99" fill="#A4B8C3" width="1" height="2"/>
				<polygon fill="#A4B8C3" points="211.994,101 213.002,101 204,92 203,92 				"/>
				<rect x="208" y="85" fill="#0F5B7A" width="4" height="6"/>
				<path fill="#0F373F" d="M207.879,96.9l0.979-0.021l1.06,1.048l-0.519,0.51L207.879,96.9z"/>
				<polygon fill="#0F5B7A" points="211,96 212,96.021 212,91 211,91 				"/>
				<polygon fill="#0F5B7A" points="208,96.979 209,97.062 209,91 208,91 				"/>
				<rect x="208" y="82" fill="#E8C9AA" width="4" height="3"/>
				<rect x="208" y="80" fill="#E01C24" width="4" height="2"/>
				<polygon fill="#E01C24" points="213.002,85 212.002,85 209.002,85 208.002,85 207.002,85 206,85 206,89 207,89 207,86 208,86 
					208,90 212,90 212,86 213,86 213,89 214,89 214,86 214,85 				"/>
				<rect x="210" y="79" fill="#0F373F" width="1" height="1"/>
			</g>
			<g>
				<polygon fill="#A4B8C3" points="229.992,100 231,100 222,91 221,91 				"/>
				<polygon fill="#0F373F" points="227.438,97.438 227.994,97.036 226.848,95.891 225.9,95.879 				"/>
				<rect x="230" y="98" fill="#A4B8C3" width="1" height="2"/>
				<rect x="227" y="99" fill="#A4B8C3" width="1" height="2"/>
				<polygon fill="#A4B8C3" points="226.994,101 228.002,101 219,92 218,92 				"/>
				<rect x="223" y="85" fill="#0F5B7A" width="4" height="6"/>
				<path fill="#0F373F" d="M222.879,96.9l0.979-0.021l1.06,1.048l-0.519,0.51L222.879,96.9z"/>
				<polygon fill="#0F5B7A" points="226,96 227,96.021 227,91 226,91 				"/>
				<polygon fill="#0F5B7A" points="223,96.979 224,97.062 224,91 223,91 				"/>
				<rect x="223" y="82" fill="#E8C9AA" width="4" height="3"/>
				<rect x="223" y="80" fill="#E01C24" width="4" height="2"/>
				<polygon fill="#E01C24" points="228.002,85 227.002,85 224.002,85 223.002,85 222.002,85 221,85 221,89 222,89 222,86 223,86 
					223,90 227,90 227,86 228,86 228,89 229,89 229,86 229,85 				"/>
				<rect x="225" y="79" fill="#0F373F" width="1" height="1"/>
			</g>
			<g>
				<polygon fill="#A4B8C3" points="244.992,100 246,100 237,91 236,91 				"/>
				<polygon fill="#0F373F" points="242.438,97.438 242.994,97.036 241.848,95.891 240.9,95.879 				"/>
				<rect x="245" y="98" fill="#A4B8C3" width="1" height="2"/>
				<rect x="242" y="99" fill="#A4B8C3" width="1" height="2"/>
				<polygon fill="#A4B8C3" points="241.994,101 243.002,101 234,92 233,92 				"/>
				<rect x="238" y="85" fill="#0F5B7A" width="4" height="6"/>
				<path fill="#0F373F" d="M237.879,96.9l0.979-0.021l1.06,1.048l-0.519,0.51L237.879,96.9z"/>
				<polygon fill="#0F5B7A" points="241,96 242,96.021 242,91 241,91 				"/>
				<polygon fill="#0F5B7A" points="238,96.979 239,97.062 239,91 238,91 				"/>
				<rect x="238" y="82" fill="#E8C9AA" width="4" height="3"/>
				<rect x="238" y="80" fill="#E01C24" width="4" height="2"/>
				<polygon fill="#E01C24" points="243.002,85 242.002,85 239.002,85 238.002,85 237.002,85 236,85 236,89 237,89 237,86 238,86 
					238,90 242,90 242,86 243,86 243,89 244,89 244,86 244,85 				"/>
				<rect x="240" y="79" fill="#0F373F" width="1" height="1"/>
			</g>
			<g>
				<polygon fill="#A4B8C3" points="259.992,100 261,100 252,91 251,91 				"/>
				<polygon fill="#0F373F" points="257.438,97.438 257.994,97.036 256.848,95.891 255.9,95.879 				"/>
				<rect x="260" y="98" fill="#A4B8C3" width="1" height="2"/>
				<rect x="257" y="99" fill="#A4B8C3" width="1" height="2"/>
				<polygon fill="#A4B8C3" points="256.994,101 258.002,101 249,92 248,92 				"/>
				<rect x="253" y="85" fill="#0F5B7A" width="4" height="6"/>
				<path fill="#0F373F" d="M252.879,96.9l0.979-0.021l1.06,1.048l-0.519,0.51L252.879,96.9z"/>
				<polygon fill="#0F5B7A" points="256,96 257,96.021 257,91 256,91 				"/>
				<polygon fill="#0F5B7A" points="253,96.979 254,97.062 254,91 253,91 				"/>
				<rect x="253" y="82" fill="#E8C9AA" width="4" height="3"/>
				<rect x="253" y="80" fill="#E01C24" width="4" height="2"/>
				<polygon fill="#E01C24" points="258.002,85 257.002,85 254.002,85 253.002,85 252.002,85 251,85 251,89 252,89 252,86 253,86 
					253,90 257,90 257,86 258,86 258,89 259,89 259,86 259,85 				"/>
				<rect x="255" y="79" fill="#0F373F" width="1" height="1"/>
			</g>
			<g>
				<polygon fill="#A4B8C3" points="259.992,76 261,76 252,67 251,67 				"/>
				<polygon fill="#0F373F" points="257.438,73.438 257.994,73.036 256.848,71.891 255.9,71.879 				"/>
				<rect x="260" y="74" fill="#A4B8C3" width="1" height="2"/>
				<rect x="257" y="75" fill="#A4B8C3" width="1" height="2"/>
				<polygon fill="#A4B8C3" points="256.994,77 258.002,77 249,68 248,68 				"/>
				<rect x="253" y="61" fill="#0F5B7A" width="4" height="6"/>
				<path fill="#0F373F" d="M252.879,72.9l0.979-0.021l1.06,1.048l-0.519,0.51L252.879,72.9z"/>
				<polygon fill="#0F5B7A" points="256,72 257,72.021 257,67 256,67 				"/>
				<polygon fill="#0F5B7A" points="253,72.979 254,73.062 254,67 253,67 				"/>
				<rect x="253" y="58" fill="#E8C9AA" width="4" height="3"/>
				<rect x="253" y="56" fill="#E01C24" width="4" height="2"/>
				<polygon fill="#E01C24" points="258.002,61 257.002,61 254.002,61 253.002,61 252.002,61 251,61 251,65 252,65 252,62 253,62 
					253,66 257,66 257,62 258,62 258,65 259,65 259,62 259,61 				"/>
				<rect x="255" y="55" fill="#0F373F" width="1" height="1"/>
			</g>
		</g>
	</g>
	<g>
		<g>
			<polygon fill="#A4B8C3" points="54.992,196 56,196 47,187 46,187 			"/>
			<polygon fill="#0F373F" points="52.438,193.438 52.994,193.036 51.848,191.891 50.9,191.879 			"/>
			<rect x="55" y="194" fill="#A4B8C3" width="1" height="2"/>
			<rect x="52" y="195" fill="#A4B8C3" width="1" height="2"/>
			<polygon fill="#A4B8C3" points="51.994,197 53.002,197 44,188 43,188 			"/>
			<rect x="48" y="181" fill="#0F5B7A" width="4" height="6"/>
			<path fill="#0F373F" d="M47.879,192.9l0.979-0.021l1.058,1.048l-0.517,0.511L47.879,192.9z"/>
			<polygon fill="#0F5B7A" points="51,192 52,192.021 52,187 51,187 			"/>
			<polygon fill="#0F5B7A" points="48,192.979 49,193.062 49,187 48,187 			"/>
			<rect x="48" y="178" fill="#E8C9AA" width="4" height="3"/>
			<rect x="48" y="176" width="4" height="2"/>
			<polygon points="53.002,181 52.002,181 49.002,181 48.002,181 47.002,181 46,181 46,185 47,185 47,182 48,182 48,186 52,186 
				52,182 53,182 53,185 54,185 54,182 54,181 			"/>
			<rect x="50" y="175" fill="#0F373F" width="1" height="1"/>
		</g>
		<g>
			<polygon fill="#A4B8C3" points="69.992,196 71,196 62,187 61,187 			"/>
			<polygon fill="#0F373F" points="67.438,193.438 67.994,193.036 66.848,191.891 65.9,191.879 			"/>
			<rect x="70" y="194" fill="#A4B8C3" width="1" height="2"/>
			<rect x="67" y="195" fill="#A4B8C3" width="1" height="2"/>
			<polygon fill="#A4B8C3" points="66.994,197 68.002,197 59,188 58,188 			"/>
			<rect x="63" y="181" fill="#0F5B7A" width="4" height="6"/>
			<path fill="#0F373F" d="M62.879,192.9l0.979-0.021l1.058,1.048l-0.517,0.511L62.879,192.9z"/>
			<polygon fill="#0F5B7A" points="66,192 67,192.021 67,187 66,187 			"/>
			<polygon fill="#0F5B7A" points="63,192.979 64,193.062 64,187 63,187 			"/>
			<rect x="63" y="178" fill="#E8C9AA" width="4" height="3"/>
			<rect x="63" y="176" width="4" height="2"/>
			<polygon points="68.002,181 67.002,181 64.002,181 63.002,181 62.002,181 61,181 61,185 62,185 62,182 63,182 63,186 67,186 
				67,182 68,182 68,185 69,185 69,182 69,181 			"/>
			<rect x="65" y="175" fill="#0F373F" width="1" height="1"/>
		</g>
		<g>
			<polygon fill="#A4B8C3" points="84.992,196 86,196 77,187 76,187 			"/>
			<polygon fill="#0F373F" points="82.438,193.438 82.994,193.036 81.848,191.891 80.9,191.879 			"/>
			<rect x="85" y="194" fill="#A4B8C3" width="1" height="2"/>
			<rect x="82" y="195" fill="#A4B8C3" width="1" height="2"/>
			<polygon fill="#A4B8C3" points="81.994,197 83.002,197 74,188 73,188 			"/>
			<rect x="78" y="181" fill="#0F5B7A" width="4" height="6"/>
			<path fill="#0F373F" d="M77.879,192.9l0.979-0.021l1.058,1.048l-0.517,0.511L77.879,192.9z"/>
			<polygon fill="#0F5B7A" points="81,192 82,192.021 82,187 81,187 			"/>
			<polygon fill="#0F5B7A" points="78,192.979 79,193.062 79,187 78,187 			"/>
			<rect x="78" y="178" fill="#E8C9AA" width="4" height="3"/>
			<rect x="78" y="176" width="4" height="2"/>
			<polygon points="83.002,181 82.002,181 79.002,181 78.002,181 77.002,181 76,181 76,185 77,185 77,182 78,182 78,186 82,186 
				82,182 83,182 83,185 84,185 84,182 84,181 			"/>
			<rect x="80" y="175" fill="#0F373F" width="1" height="1"/>
		</g>
		<g>
			<polygon fill="#A4B8C3" points="99.992,196 101,196 92,187 91,187 			"/>
			<polygon fill="#0F373F" points="97.438,193.438 97.994,193.036 96.848,191.891 95.9,191.879 			"/>
			<rect x="100" y="194" fill="#A4B8C3" width="1" height="2"/>
			<rect x="97" y="195" fill="#A4B8C3" width="1" height="2"/>
			<polygon fill="#A4B8C3" points="96.994,197 98.002,197 89,188 88,188 			"/>
			<rect x="93" y="181" fill="#0F5B7A" width="4" height="6"/>
			<path fill="#0F373F" d="M92.879,192.9l0.979-0.021l1.058,1.048l-0.517,0.511L92.879,192.9z"/>
			<polygon fill="#0F5B7A" points="96,192 97,192.021 97,187 96,187 			"/>
			<polygon fill="#0F5B7A" points="93,192.979 94,193.062 94,187 93,187 			"/>
			<rect x="93" y="178" fill="#E8C9AA" width="4" height="3"/>
			<rect x="93" y="176" width="4" height="2"/>
			<polygon points="98.002,181 97.002,181 94.002,181 93.002,181 92.002,181 91,181 91,185 92,185 92,182 93,182 93,186 97,186 
				97,182 98,182 98,185 99,185 99,182 99,181 			"/>
			<rect x="95" y="175" fill="#0F373F" width="1" height="1"/>
		</g>
		<g>
			<polygon fill="#A4B8C3" points="54.992,172 56,172 47,163 46,163 			"/>
			<polygon fill="#0F373F" points="52.438,169.438 52.994,169.036 51.848,167.891 50.9,167.879 			"/>
			<rect x="55" y="170" fill="#A4B8C3" width="1" height="2"/>
			<rect x="52" y="171" fill="#A4B8C3" width="1" height="2"/>
			<polygon fill="#A4B8C3" points="51.994,173 53.002,173 44,164 43,164 			"/>
			<rect x="48" y="157" fill="#0F5B7A" width="4" height="6"/>
			<path fill="#0F373F" d="M47.879,168.9l0.979-0.021l1.058,1.048l-0.517,0.511L47.879,168.9z"/>
			<polygon fill="#0F5B7A" points="51,168 52,168.021 52,163 51,163 			"/>
			<polygon fill="#0F5B7A" points="48,168.979 49,169.062 49,163 48,163 			"/>
			<rect x="48" y="154" fill="#E8C9AA" width="4" height="3"/>
			<rect x="48" y="152" width="4" height="2"/>
			<polygon points="53.002,157 52.002,157 49.002,157 48.002,157 47.002,157 46,157 46,161 47,161 47,158 48,158 48,162 52,162 
				52,158 53,158 53,161 54,161 54,158 54,157 			"/>
			<rect x="50" y="151" fill="#0F373F" width="1" height="1"/>
		</g>
		<g>
			<polygon fill="#A4B8C3" points="69.992,172 71,172 62,163 61,163 			"/>
			<polygon fill="#0F373F" points="67.438,169.438 67.994,169.036 66.848,167.891 65.9,167.879 			"/>
			<rect x="70" y="170" fill="#A4B8C3" width="1" height="2"/>
			<rect x="67" y="171" fill="#A4B8C3" width="1" height="2"/>
			<polygon fill="#A4B8C3" points="66.994,173 68.002,173 59,164 58,164 			"/>
			<rect x="63" y="157" fill="#0F5B7A" width="4" height="6"/>
			<path fill="#0F373F" d="M62.879,168.9l0.979-0.021l1.058,1.048l-0.517,0.511L62.879,168.9z"/>
			<polygon fill="#0F5B7A" points="66,168 67,168.021 67,163 66,163 			"/>
			<polygon fill="#0F5B7A" points="63,168.979 64,169.062 64,163 63,163 			"/>
			<rect x="63" y="154" fill="#E8C9AA" width="4" height="3"/>
			<rect x="63" y="152" width="4" height="2"/>
			<polygon points="68.002,157 67.002,157 64.002,157 63.002,157 62.002,157 61,157 61,161 62,161 62,158 63,158 63,162 67,162 
				67,158 68,158 68,161 69,161 69,158 69,157 			"/>
			<rect x="65" y="151" fill="#0F373F" width="1" height="1"/>
		</g>
		<g>
			<polygon fill="#A4B8C3" points="84.992,172 86,172 77,163 76,163 			"/>
			<polygon fill="#0F373F" points="82.438,169.438 82.994,169.036 81.848,167.891 80.9,167.879 			"/>
			<rect x="85" y="170" fill="#A4B8C3" width="1" height="2"/>
			<rect x="82" y="171" fill="#A4B8C3" width="1" height="2"/>
			<polygon fill="#A4B8C3" points="81.994,173 83.002,173 74,164 73,164 			"/>
			<rect x="78" y="157" fill="#0F5B7A" width="4" height="6"/>
			<path fill="#0F373F" d="M77.879,168.9l0.979-0.021l1.058,1.048l-0.517,0.511L77.879,168.9z"/>
			<polygon fill="#0F5B7A" points="81,168 82,168.021 82,163 81,163 			"/>
			<polygon fill="#0F5B7A" points="78,168.979 79,169.062 79,163 78,163 			"/>
			<rect x="78" y="154" fill="#E8C9AA" width="4" height="3"/>
			<rect x="78" y="152" width="4" height="2"/>
			<polygon points="83.002,157 82.002,157 79.002,157 78.002,157 77.002,157 76,157 76,161 77,161 77,158 78,158 78,162 82,162 
				82,158 83,158 83,161 84,161 84,158 84,157 			"/>
			<rect x="80" y="151" fill="#0F373F" width="1" height="1"/>
		</g>
		<g>
			<polygon fill="#A4B8C3" points="99.992,172 101,172 92,163 91,163 			"/>
			<polygon fill="#0F373F" points="97.438,169.438 97.994,169.036 96.848,167.891 95.9,167.879 			"/>
			<rect x="100" y="170" fill="#A4B8C3" width="1" height="2"/>
			<rect x="97" y="171" fill="#A4B8C3" width="1" height="2"/>
			<polygon fill="#A4B8C3" points="96.994,173 98.002,173 89,164 88,164 			"/>
			<rect x="93" y="157" fill="#0F5B7A" width="4" height="6"/>
			<path fill="#0F373F" d="M92.879,168.9l0.979-0.021l1.058,1.048l-0.517,0.511L92.879,168.9z"/>
			<polygon fill="#0F5B7A" points="96,168 97,168.021 97,163 96,163 			"/>
			<polygon fill="#0F5B7A" points="93,168.979 94,169.062 94,163 93,163 			"/>
			<rect x="93" y="154" fill="#E8C9AA" width="4" height="3"/>
			<rect x="93" y="152" width="4" height="2"/>
			<polygon points="98.002,157 97.002,157 94.002,157 93.002,157 92.002,157 91,157 91,161 92,161 92,158 93,158 93,162 97,162 
				97,158 98,158 98,161 99,161 99,158 99,157 			"/>
			<rect x="95" y="151" fill="#0F373F" width="1" height="1"/>
		</g>
		<g>
			<polygon fill="#A4B8C3" points="134.992,196 136,196 127,187 126,187 			"/>
			<polygon fill="#0F373F" points="132.438,193.438 132.994,193.036 131.848,191.891 130.9,191.879 			"/>
			<rect x="135" y="194" fill="#A4B8C3" width="1" height="2"/>
			<rect x="132" y="195" fill="#A4B8C3" width="1" height="2"/>
			<polygon fill="#A4B8C3" points="131.994,197 133.002,197 124,188 123,188 			"/>
			<rect x="128" y="181" fill="#0F5B7A" width="4" height="6"/>
			<path fill="#0F373F" d="M127.879,192.9l0.979-0.021l1.058,1.048l-0.517,0.511L127.879,192.9z"/>
			<polygon fill="#0F5B7A" points="131,192 132,192.021 132,187 131,187 			"/>
			<polygon fill="#0F5B7A" points="128,192.979 129,193.062 129,187 128,187 			"/>
			<rect x="128" y="178" fill="#E8C9AA" width="4" height="3"/>
			<rect x="128" y="176" width="4" height="2"/>
			<polygon points="133.002,181 132.002,181 129.002,181 128.002,181 127.002,181 126,181 126,185 127,185 127,182 128,182 128,186 
				132,186 132,182 133,182 133,185 134,185 134,182 134,181 			"/>
			<rect x="130" y="175" fill="#0F373F" width="1" height="1"/>
		</g>
		<g>
			<polygon fill="#A4B8C3" points="149.992,196 151,196 142,187 141,187 			"/>
			<polygon fill="#0F373F" points="147.438,193.438 147.994,193.036 146.848,191.891 145.9,191.879 			"/>
			<rect x="150" y="194" fill="#A4B8C3" width="1" height="2"/>
			<rect x="147" y="195" fill="#A4B8C3" width="1" height="2"/>
			<polygon fill="#A4B8C3" points="146.994,197 148.002,197 139,188 138,188 			"/>
			<rect x="143" y="181" fill="#0F5B7A" width="4" height="6"/>
			<path fill="#0F373F" d="M142.879,192.9l0.979-0.021l1.058,1.048l-0.517,0.511L142.879,192.9z"/>
			<polygon fill="#0F5B7A" points="146,192 147,192.021 147,187 146,187 			"/>
			<polygon fill="#0F5B7A" points="143,192.979 144,193.062 144,187 143,187 			"/>
			<rect x="143" y="178" fill="#E8C9AA" width="4" height="3"/>
			<rect x="143" y="176" width="4" height="2"/>
			<polygon points="148.002,181 147.002,181 144.002,181 143.002,181 142.002,181 141,181 141,185 142,185 142,182 143,182 143,186 
				147,186 147,182 148,182 148,185 149,185 149,182 149,181 			"/>
			<rect x="145" y="175" fill="#0F373F" width="1" height="1"/>
		</g>
		<g>
			<polygon fill="#A4B8C3" points="164.992,196 166,196 157,187 156,187 			"/>
			<polygon fill="#0F373F" points="162.438,193.438 162.994,193.036 161.848,191.891 160.9,191.879 			"/>
			<rect x="165" y="194" fill="#A4B8C3" width="1" height="2"/>
			<rect x="162" y="195" fill="#A4B8C3" width="1" height="2"/>
			<polygon fill="#A4B8C3" points="161.994,197 163.002,197 154,188 153,188 			"/>
			<rect x="158" y="181" fill="#0F5B7A" width="4" height="6"/>
			<path fill="#0F373F" d="M157.879,192.9l0.979-0.021l1.06,1.048l-0.519,0.511L157.879,192.9z"/>
			<polygon fill="#0F5B7A" points="161,192 162,192.021 162,187 161,187 			"/>
			<polygon fill="#0F5B7A" points="158,192.979 159,193.062 159,187 158,187 			"/>
			<rect x="158" y="178" fill="#E8C9AA" width="4" height="3"/>
			<rect x="158" y="176" width="4" height="2"/>
			<polygon points="163.002,181 162.002,181 159.002,181 158.002,181 157.002,181 156,181 156,185 157,185 157,182 158,182 158,186 
				162,186 162,182 163,182 163,185 164,185 164,182 164,181 			"/>
			<rect x="160" y="175" fill="#0F373F" width="1" height="1"/>
		</g>
		<g>
			<polygon fill="#A4B8C3" points="179.992,196 181,196 172,187 171,187 			"/>
			<polygon fill="#0F373F" points="177.438,193.438 177.994,193.036 176.848,191.891 175.9,191.879 			"/>
			<rect x="180" y="194" fill="#A4B8C3" width="1" height="2"/>
			<rect x="177" y="195" fill="#A4B8C3" width="1" height="2"/>
			<polygon fill="#A4B8C3" points="176.994,197 178.002,197 169,188 168,188 			"/>
			<rect x="173" y="181" fill="#0F5B7A" width="4" height="6"/>
			<path fill="#0F373F" d="M172.879,192.9l0.979-0.021l1.06,1.048l-0.519,0.511L172.879,192.9z"/>
			<polygon fill="#0F5B7A" points="176,192 177,192.021 177,187 176,187 			"/>
			<polygon fill="#0F5B7A" points="173,192.979 174,193.062 174,187 173,187 			"/>
			<rect x="173" y="178" fill="#E8C9AA" width="4" height="3"/>
			<rect x="173" y="176" width="4" height="2"/>
			<polygon points="178.002,181 177.002,181 174.002,181 173.002,181 172.002,181 171,181 171,185 172,185 172,182 173,182 173,186 
				177,186 177,182 178,182 178,185 179,185 179,182 179,181 			"/>
			<rect x="175" y="175" fill="#0F373F" width="1" height="1"/>
		</g>
		<g>
			<polygon fill="#A4B8C3" points="134.992,172 136,172 127,163 126,163 			"/>
			<polygon fill="#0F373F" points="132.438,169.438 132.994,169.036 131.848,167.891 130.9,167.879 			"/>
			<rect x="135" y="170" fill="#A4B8C3" width="1" height="2"/>
			<rect x="132" y="171" fill="#A4B8C3" width="1" height="2"/>
			<polygon fill="#A4B8C3" points="131.994,173 133.002,173 124,164 123,164 			"/>
			<rect x="128" y="157" fill="#0F5B7A" width="4" height="6"/>
			<path fill="#0F373F" d="M127.879,168.9l0.979-0.021l1.058,1.048l-0.517,0.511L127.879,168.9z"/>
			<polygon fill="#0F5B7A" points="131,168 132,168.021 132,163 131,163 			"/>
			<polygon fill="#0F5B7A" points="128,168.979 129,169.062 129,163 128,163 			"/>
			<rect x="128" y="154" fill="#E8C9AA" width="4" height="3"/>
			<rect x="128" y="152" width="4" height="2"/>
			<polygon points="133.002,157 132.002,157 129.002,157 128.002,157 127.002,157 126,157 126,161 127,161 127,158 128,158 128,162 
				132,162 132,158 133,158 133,161 134,161 134,158 134,157 			"/>
			<rect x="130" y="151" fill="#0F373F" width="1" height="1"/>
		</g>
		<g>
			<polygon fill="#A4B8C3" points="149.992,172 151,172 142,163 141,163 			"/>
			<polygon fill="#0F373F" points="147.438,169.438 147.994,169.036 146.848,167.891 145.9,167.879 			"/>
			<rect x="150" y="170" fill="#A4B8C3" width="1" height="2"/>
			<rect x="147" y="171" fill="#A4B8C3" width="1" height="2"/>
			<polygon fill="#A4B8C3" points="146.994,173 148.002,173 139,164 138,164 			"/>
			<rect x="143" y="157" fill="#0F5B7A" width="4" height="6"/>
			<path fill="#0F373F" d="M142.879,168.9l0.979-0.021l1.058,1.048l-0.517,0.511L142.879,168.9z"/>
			<polygon fill="#0F5B7A" points="146,168 147,168.021 147,163 146,163 			"/>
			<polygon fill="#0F5B7A" points="143,168.979 144,169.062 144,163 143,163 			"/>
			<rect x="143" y="154" fill="#E8C9AA" width="4" height="3"/>
			<rect x="143" y="152" width="4" height="2"/>
			<polygon points="148.002,157 147.002,157 144.002,157 143.002,157 142.002,157 141,157 141,161 142,161 142,158 143,158 143,162 
				147,162 147,158 148,158 148,161 149,161 149,158 149,157 			"/>
			<rect x="145" y="151" fill="#0F373F" width="1" height="1"/>
		</g>
		<g>
			<polygon fill="#A4B8C3" points="164.992,172 166,172 157,163 156,163 			"/>
			<polygon fill="#0F373F" points="162.438,169.438 162.994,169.036 161.848,167.891 160.9,167.879 			"/>
			<rect x="165" y="170" fill="#A4B8C3" width="1" height="2"/>
			<rect x="162" y="171" fill="#A4B8C3" width="1" height="2"/>
			<polygon fill="#A4B8C3" points="161.994,173 163.002,173 154,164 153,164 			"/>
			<rect x="158" y="157" fill="#0F5B7A" width="4" height="6"/>
			<path fill="#0F373F" d="M157.879,168.9l0.979-0.021l1.06,1.048l-0.519,0.511L157.879,168.9z"/>
			<polygon fill="#0F5B7A" points="161,168 162,168.021 162,163 161,163 			"/>
			<polygon fill="#0F5B7A" points="158,168.979 159,169.062 159,163 158,163 			"/>
			<rect x="158" y="154" fill="#E8C9AA" width="4" height="3"/>
			<rect x="158" y="152" width="4" height="2"/>
			<polygon points="163.002,157 162.002,157 159.002,157 158.002,157 157.002,157 156,157 156,161 157,161 157,158 158,158 158,162 
				162,162 162,158 163,158 163,161 164,161 164,158 164,157 			"/>
			<rect x="160" y="151" fill="#0F373F" width="1" height="1"/>
		</g>
		<g>
			<polygon fill="#A4B8C3" points="179.992,172 181,172 172,163 171,163 			"/>
			<polygon fill="#0F373F" points="177.438,169.438 177.994,169.036 176.848,167.891 175.9,167.879 			"/>
			<rect x="180" y="170" fill="#A4B8C3" width="1" height="2"/>
			<rect x="177" y="171" fill="#A4B8C3" width="1" height="2"/>
			<polygon fill="#A4B8C3" points="176.994,173 178.002,173 169,164 168,164 			"/>
			<rect x="173" y="157" fill="#0F5B7A" width="4" height="6"/>
			<path fill="#0F373F" d="M172.879,168.9l0.979-0.021l1.06,1.048l-0.519,0.511L172.879,168.9z"/>
			<polygon fill="#0F5B7A" points="176,168 177,168.021 177,163 176,163 			"/>
			<polygon fill="#0F5B7A" points="173,168.979 174,169.062 174,163 173,163 			"/>
			<rect x="173" y="154" fill="#E8C9AA" width="4" height="3"/>
			<rect x="173" y="152" width="4" height="2"/>
			<polygon points="178.002,157 177.002,157 174.002,157 173.002,157 172.002,157 171,157 171,161 172,161 172,158 173,158 173,162 
				177,162 177,158 178,158 178,161 179,161 179,158 179,157 			"/>
			<rect x="175" y="151" fill="#0F373F" width="1" height="1"/>
		</g>
		<g>
			<polygon fill="#A4B8C3" points="164.992,148 166,148 157,139 156,139 			"/>
			<polygon fill="#0F373F" points="162.438,145.438 162.994,145.036 161.848,143.891 160.9,143.879 			"/>
			<rect x="165" y="146" fill="#A4B8C3" width="1" height="2"/>
			<rect x="162" y="147" fill="#A4B8C3" width="1" height="2"/>
			<polygon fill="#A4B8C3" points="161.994,149 163.002,149 154,140 153,140 			"/>
			<rect x="158" y="133" fill="#0F5B7A" width="4" height="6"/>
			<path fill="#0F373F" d="M157.879,144.9l0.979-0.021l1.06,1.048l-0.519,0.511L157.879,144.9z"/>
			<polygon fill="#0F5B7A" points="161,144 162,144.021 162,139 161,139 			"/>
			<polygon fill="#0F5B7A" points="158,144.979 159,145.062 159,139 158,139 			"/>
			<rect x="158" y="130" fill="#E8C9AA" width="4" height="3"/>
			<rect x="158" y="128" width="4" height="2"/>
			<polygon points="163.002,133 162.002,133 159.002,133 158.002,133 157.002,133 156,133 156,137 157,137 157,134 158,134 158,138 
				162,138 162,134 163,134 163,137 164,137 164,134 164,133 			"/>
			<rect x="160" y="127" fill="#0F373F" width="1" height="1"/>
		</g>
		<g>
			<polygon fill="#A4B8C3" points="179.992,148 181,148 172,139 171,139 			"/>
			<polygon fill="#0F373F" points="177.438,145.438 177.994,145.036 176.848,143.891 175.9,143.879 			"/>
			<rect x="180" y="146" fill="#A4B8C3" width="1" height="2"/>
			<rect x="177" y="147" fill="#A4B8C3" width="1" height="2"/>
			<polygon fill="#A4B8C3" points="176.994,149 178.002,149 169,140 168,140 			"/>
			<rect x="173" y="133" fill="#0F5B7A" width="4" height="6"/>
			<path fill="#0F373F" d="M172.879,144.9l0.979-0.021l1.06,1.048l-0.519,0.511L172.879,144.9z"/>
			<polygon fill="#0F5B7A" points="176,144 177,144.021 177,139 176,139 			"/>
			<polygon fill="#0F5B7A" points="173,144.979 174,145.062 174,139 173,139 			"/>
			<rect x="173" y="130" fill="#E8C9AA" width="4" height="3"/>
			<rect x="173" y="128" width="4" height="2"/>
			<polygon points="178.002,133 177.002,133 174.002,133 173.002,133 172.002,133 171,133 171,137 172,137 172,134 173,134 173,138 
				177,138 177,134 178,134 178,137 179,137 179,134 179,133 			"/>
			<rect x="175" y="127" fill="#0F373F" width="1" height="1"/>
		</g>
		<g>
			<polygon fill="#A4B8C3" points="214.992,196 216,196 207,187 206,187 			"/>
			<polygon fill="#0F373F" points="212.438,193.438 212.994,193.036 211.848,191.891 210.9,191.879 			"/>
			<rect x="215" y="194" fill="#A4B8C3" width="1" height="2"/>
			<rect x="212" y="195" fill="#A4B8C3" width="1" height="2"/>
			<polygon fill="#A4B8C3" points="211.994,197 213.002,197 204,188 203,188 			"/>
			<rect x="208" y="181" fill="#0F5B7A" width="4" height="6"/>
			<path fill="#0F373F" d="M207.879,192.9l0.979-0.021l1.06,1.048l-0.519,0.511L207.879,192.9z"/>
			<polygon fill="#0F5B7A" points="211,192 212,192.021 212,187 211,187 			"/>
			<polygon fill="#0F5B7A" points="208,192.979 209,193.062 209,187 208,187 			"/>
			<rect x="208" y="178" fill="#E8C9AA" width="4" height="3"/>
			<rect x="208" y="176" width="4" height="2"/>
			<polygon points="213.002,181 212.002,181 209.002,181 208.002,181 207.002,181 206,181 206,185 207,185 207,182 208,182 208,186 
				212,186 212,182 213,182 213,185 214,185 214,182 214,181 			"/>
			<rect x="210" y="175" fill="#0F373F" width="1" height="1"/>
		</g>
		<g>
			<polygon fill="#A4B8C3" points="229.992,196 231,196 222,187 221,187 			"/>
			<polygon fill="#0F373F" points="227.438,193.438 227.994,193.036 226.848,191.891 225.9,191.879 			"/>
			<rect x="230" y="194" fill="#A4B8C3" width="1" height="2"/>
			<rect x="227" y="195" fill="#A4B8C3" width="1" height="2"/>
			<polygon fill="#A4B8C3" points="226.994,197 228.002,197 219,188 218,188 			"/>
			<rect x="223" y="181" fill="#0F5B7A" width="4" height="6"/>
			<path fill="#0F373F" d="M222.879,192.9l0.979-0.021l1.06,1.048l-0.519,0.511L222.879,192.9z"/>
			<polygon fill="#0F5B7A" points="226,192 227,192.021 227,187 226,187 			"/>
			<polygon fill="#0F5B7A" points="223,192.979 224,193.062 224,187 223,187 			"/>
			<rect x="223" y="178" fill="#E8C9AA" width="4" height="3"/>
			<rect x="223" y="176" width="4" height="2"/>
			<polygon points="228.002,181 227.002,181 224.002,181 223.002,181 222.002,181 221,181 221,185 222,185 222,182 223,182 223,186 
				227,186 227,182 228,182 228,185 229,185 229,182 229,181 			"/>
			<rect x="225" y="175" fill="#0F373F" width="1" height="1"/>
		</g>
		<g>
			<polygon fill="#A4B8C3" points="244.992,196 246,196 237,187 236,187 			"/>
			<polygon fill="#0F373F" points="242.438,193.438 242.994,193.036 241.848,191.891 240.9,191.879 			"/>
			<rect x="245" y="194" fill="#A4B8C3" width="1" height="2"/>
			<rect x="242" y="195" fill="#A4B8C3" width="1" height="2"/>
			<polygon fill="#A4B8C3" points="241.994,197 243.002,197 234,188 233,188 			"/>
			<rect x="238" y="181" fill="#0F5B7A" width="4" height="6"/>
			<path fill="#0F373F" d="M237.879,192.9l0.979-0.021l1.06,1.048l-0.519,0.511L237.879,192.9z"/>
			<polygon fill="#0F5B7A" points="241,192 242,192.021 242,187 241,187 			"/>
			<polygon fill="#0F5B7A" points="238,192.979 239,193.062 239,187 238,187 			"/>
			<rect x="238" y="178" fill="#E8C9AA" width="4" height="3"/>
			<rect x="238" y="176" width="4" height="2"/>
			<polygon points="243.002,181 242.002,181 239.002,181 238.002,181 237.002,181 236,181 236,185 237,185 237,182 238,182 238,186 
				242,186 242,182 243,182 243,185 244,185 244,182 244,181 			"/>
			<rect x="240" y="175" fill="#0F373F" width="1" height="1"/>
		</g>
		<g>
			<polygon fill="#A4B8C3" points="259.992,196 261,196 252,187 251,187 			"/>
			<polygon fill="#0F373F" points="257.438,193.438 257.994,193.036 256.848,191.891 255.9,191.879 			"/>
			<rect x="260" y="194" fill="#A4B8C3" width="1" height="2"/>
			<rect x="257" y="195" fill="#A4B8C3" width="1" height="2"/>
			<polygon fill="#A4B8C3" points="256.994,197 258.002,197 249,188 248,188 			"/>
			<rect x="253" y="181" fill="#0F5B7A" width="4" height="6"/>
			<path fill="#0F373F" d="M252.879,192.9l0.979-0.021l1.06,1.048l-0.519,0.511L252.879,192.9z"/>
			<polygon fill="#0F5B7A" points="256,192 257,192.021 257,187 256,187 			"/>
			<polygon fill="#0F5B7A" points="253,192.979 254,193.062 254,187 253,187 			"/>
			<rect x="253" y="178" fill="#E8C9AA" width="4" height="3"/>
			<rect x="253" y="176" width="4" height="2"/>
			<polygon points="258.002,181 257.002,181 254.002,181 253.002,181 252.002,181 251,181 251,185 252,185 252,182 253,182 253,186 
				257,186 257,182 258,182 258,185 259,185 259,182 259,181 			"/>
			<rect x="255" y="175" fill="#0F373F" width="1" height="1"/>
		</g>
		<g>
			<polygon fill="#A4B8C3" points="214.992,172 216,172 207,163 206,163 			"/>
			<polygon fill="#0F373F" points="212.438,169.438 212.994,169.036 211.848,167.891 210.9,167.879 			"/>
			<rect x="215" y="170" fill="#A4B8C3" width="1" height="2"/>
			<rect x="212" y="171" fill="#A4B8C3" width="1" height="2"/>
			<polygon fill="#A4B8C3" points="211.994,173 213.002,173 204,164 203,164 			"/>
			<rect x="208" y="157" fill="#0F5B7A" width="4" height="6"/>
			<path fill="#0F373F" d="M207.879,168.9l0.979-0.021l1.06,1.048l-0.519,0.511L207.879,168.9z"/>
			<polygon fill="#0F5B7A" points="211,168 212,168.021 212,163 211,163 			"/>
			<polygon fill="#0F5B7A" points="208,168.979 209,169.062 209,163 208,163 			"/>
			<rect x="208" y="154" fill="#E8C9AA" width="4" height="3"/>
			<rect x="208" y="152" width="4" height="2"/>
			<polygon points="213.002,157 212.002,157 209.002,157 208.002,157 207.002,157 206,157 206,161 207,161 207,158 208,158 208,162 
				212,162 212,158 213,158 213,161 214,161 214,158 214,157 			"/>
			<rect x="210" y="151" fill="#0F373F" width="1" height="1"/>
		</g>
		<g>
			<polygon fill="#A4B8C3" points="229.992,172 231,172 222,163 221,163 			"/>
			<polygon fill="#0F373F" points="227.438,169.438 227.994,169.036 226.848,167.891 225.9,167.879 			"/>
			<rect x="230" y="170" fill="#A4B8C3" width="1" height="2"/>
			<rect x="227" y="171" fill="#A4B8C3" width="1" height="2"/>
			<polygon fill="#A4B8C3" points="226.994,173 228.002,173 219,164 218,164 			"/>
			<rect x="223" y="157" fill="#0F5B7A" width="4" height="6"/>
			<path fill="#0F373F" d="M222.879,168.9l0.979-0.021l1.06,1.048l-0.519,0.511L222.879,168.9z"/>
			<polygon fill="#0F5B7A" points="226,168 227,168.021 227,163 226,163 			"/>
			<polygon fill="#0F5B7A" points="223,168.979 224,169.062 224,163 223,163 			"/>
			<rect x="223" y="154" fill="#E8C9AA" width="4" height="3"/>
			<rect x="223" y="152" width="4" height="2"/>
			<polygon points="228.002,157 227.002,157 224.002,157 223.002,157 222.002,157 221,157 221,161 222,161 222,158 223,158 223,162 
				227,162 227,158 228,158 228,161 229,161 229,158 229,157 			"/>
			<rect x="225" y="151" fill="#0F373F" width="1" height="1"/>
		</g>
		<g>
			<polygon fill="#A4B8C3" points="244.992,172 246,172 237,163 236,163 			"/>
			<polygon fill="#0F373F" points="242.438,169.438 242.994,169.036 241.848,167.891 240.9,167.879 			"/>
			<rect x="245" y="170" fill="#A4B8C3" width="1" height="2"/>
			<rect x="242" y="171" fill="#A4B8C3" width="1" height="2"/>
			<polygon fill="#A4B8C3" points="241.994,173 243.002,173 234,164 233,164 			"/>
			<rect x="238" y="157" fill="#0F5B7A" width="4" height="6"/>
			<path fill="#0F373F" d="M237.879,168.9l0.979-0.021l1.06,1.048l-0.519,0.511L237.879,168.9z"/>
			<polygon fill="#0F5B7A" points="241,168 242,168.021 242,163 241,163 			"/>
			<polygon fill="#0F5B7A" points="238,168.979 239,169.062 239,163 238,163 			"/>
			<rect x="238" y="154" fill="#E8C9AA" width="4" height="3"/>
			<rect x="238" y="152" width="4" height="2"/>
			<polygon points="243.002,157 242.002,157 239.002,157 238.002,157 237.002,157 236,157 236,161 237,161 237,158 238,158 238,162 
				242,162 242,158 243,158 243,161 244,161 244,158 244,157 			"/>
			<rect x="240" y="151" fill="#0F373F" width="1" height="1"/>
		</g>
		<g>
			<polygon fill="#A4B8C3" points="259.992,172 261,172 252,163 251,163 			"/>
			<polygon fill="#0F373F" points="257.438,169.438 257.994,169.036 256.848,167.891 255.9,167.879 			"/>
			<rect x="260" y="170" fill="#A4B8C3" width="1" height="2"/>
			<rect x="257" y="171" fill="#A4B8C3" width="1" height="2"/>
			<polygon fill="#A4B8C3" points="256.994,173 258.002,173 249,164 248,164 			"/>
			<rect x="253" y="157" fill="#0F5B7A" width="4" height="6"/>
			<path fill="#0F373F" d="M252.879,168.9l0.979-0.021l1.06,1.048l-0.519,0.511L252.879,168.9z"/>
			<polygon fill="#0F5B7A" points="256,168 257,168.021 257,163 256,163 			"/>
			<polygon fill="#0F5B7A" points="253,168.979 254,169.062 254,163 253,163 			"/>
			<rect x="253" y="154" fill="#E8C9AA" width="4" height="3"/>
			<rect x="253" y="152" width="4" height="2"/>
			<polygon points="258.002,157 257.002,157 254.002,157 253.002,157 252.002,157 251,157 251,161 252,161 252,158 253,158 253,162 
				257,162 257,158 258,158 258,161 259,161 259,158 259,157 			"/>
			<rect x="255" y="151" fill="#0F373F" width="1" height="1"/>
		</g>
		<g>
			<polygon fill="#A4B8C3" points="214.992,148 216,148 207,139 206,139 			"/>
			<polygon fill="#0F373F" points="212.438,145.438 212.994,145.036 211.848,143.891 210.9,143.879 			"/>
			<rect x="215" y="146" fill="#A4B8C3" width="1" height="2"/>
			<rect x="212" y="147" fill="#A4B8C3" width="1" height="2"/>
			<polygon fill="#A4B8C3" points="211.994,149 213.002,149 204,140 203,140 			"/>
			<rect x="208" y="133" fill="#0F5B7A" width="4" height="6"/>
			<path fill="#0F373F" d="M207.879,144.9l0.979-0.021l1.06,1.048l-0.519,0.511L207.879,144.9z"/>
			<polygon fill="#0F5B7A" points="211,144 212,144.021 212,139 211,139 			"/>
			<polygon fill="#0F5B7A" points="208,144.979 209,145.062 209,139 208,139 			"/>
			<rect x="208" y="130" fill="#E8C9AA" width="4" height="3"/>
			<rect x="208" y="128" width="4" height="2"/>
			<polygon points="213.002,133 212.002,133 209.002,133 208.002,133 207.002,133 206,133 206,137 207,137 207,134 208,134 208,138 
				212,138 212,134 213,134 213,137 214,137 214,134 214,133 			"/>
			<rect x="210" y="127" fill="#0F373F" width="1" height="1"/>
		</g>
		<g>
			<polygon fill="#A4B8C3" points="229.992,148 231,148 222,139 221,139 			"/>
			<polygon fill="#0F373F" points="227.438,145.438 227.994,145.036 226.848,143.891 225.9,143.879 			"/>
			<rect x="230" y="146" fill="#A4B8C3" width="1" height="2"/>
			<rect x="227" y="147" fill="#A4B8C3" width="1" height="2"/>
			<polygon fill="#A4B8C3" points="226.994,149 228.002,149 219,140 218,140 			"/>
			<rect x="223" y="133" fill="#0F5B7A" width="4" height="6"/>
			<path fill="#0F373F" d="M222.879,144.9l0.979-0.021l1.06,1.048l-0.519,0.511L222.879,144.9z"/>
			<polygon fill="#0F5B7A" points="226,144 227,144.021 227,139 226,139 			"/>
			<polygon fill="#0F5B7A" points="223,144.979 224,145.062 224,139 223,139 			"/>
			<rect x="223" y="130" fill="#E8C9AA" width="4" height="3"/>
			<rect x="223" y="128" width="4" height="2"/>
			<polygon points="228.002,133 227.002,133 224.002,133 223.002,133 222.002,133 221,133 221,137 222,137 222,134 223,134 223,138 
				227,138 227,134 228,134 228,137 229,137 229,134 229,133 			"/>
			<rect x="225" y="127" fill="#0F373F" width="1" height="1"/>
		</g>
		<g>
			<polygon fill="#A4B8C3" points="244.992,148 246,148 237,139 236,139 			"/>
			<polygon fill="#0F373F" points="242.438,145.438 242.994,145.036 241.848,143.891 240.9,143.879 			"/>
			<rect x="245" y="146" fill="#A4B8C3" width="1" height="2"/>
			<rect x="242" y="147" fill="#A4B8C3" width="1" height="2"/>
			<polygon fill="#A4B8C3" points="241.994,149 243.002,149 234,140 233,140 			"/>
			<rect x="238" y="133" fill="#0F5B7A" width="4" height="6"/>
			<path fill="#0F373F" d="M237.879,144.9l0.979-0.021l1.06,1.048l-0.519,0.511L237.879,144.9z"/>
			<polygon fill="#0F5B7A" points="241,144 242,144.021 242,139 241,139 			"/>
			<polygon fill="#0F5B7A" points="238,144.979 239,145.062 239,139 238,139 			"/>
			<rect x="238" y="130" fill="#E8C9AA" width="4" height="3"/>
			<rect x="238" y="128" width="4" height="2"/>
			<polygon points="243.002,133 242.002,133 239.002,133 238.002,133 237.002,133 236,133 236,137 237,137 237,134 238,134 238,138 
				242,138 242,134 243,134 243,137 244,137 244,134 244,133 			"/>
			<rect x="240" y="127" fill="#0F373F" width="1" height="1"/>
		</g>
		<g>
			<polygon fill="#A4B8C3" points="259.992,148 261,148 252,139 251,139 			"/>
			<polygon fill="#0F373F" points="257.438,145.438 257.994,145.036 256.848,143.891 255.9,143.879 			"/>
			<rect x="260" y="146" fill="#A4B8C3" width="1" height="2"/>
			<rect x="257" y="147" fill="#A4B8C3" width="1" height="2"/>
			<polygon fill="#A4B8C3" points="256.994,149 258.002,149 249,140 248,140 			"/>
			<rect x="253" y="133" fill="#0F5B7A" width="4" height="6"/>
			<path fill="#0F373F" d="M252.879,144.9l0.979-0.021l1.06,1.048l-0.519,0.511L252.879,144.9z"/>
			<polygon fill="#0F5B7A" points="256,144 257,144.021 257,139 256,139 			"/>
			<polygon fill="#0F5B7A" points="253,144.979 254,145.062 254,139 253,139 			"/>
			<rect x="253" y="130" fill="#E8C9AA" width="4" height="3"/>
			<rect x="253" y="128" width="4" height="2"/>
			<polygon points="258.002,133 257.002,133 254.002,133 253.002,133 252.002,133 251,133 251,137 252,137 252,134 253,134 253,138 
				257,138 257,134 258,134 258,137 259,137 259,134 259,133 			"/>
			<rect x="255" y="127" fill="#0F373F" width="1" height="1"/>
		</g>
		<g>
			<polygon fill="#A4B8C3" points="259.992,124 261,124 252,115 251,115 			"/>
			<polygon fill="#0F373F" points="257.438,121.438 257.994,121.036 256.848,119.891 255.9,119.879 			"/>
			<rect x="260" y="122" fill="#A4B8C3" width="1" height="2"/>
			<rect x="257" y="123" fill="#A4B8C3" width="1" height="2"/>
			<polygon fill="#A4B8C3" points="256.994,125 258.002,125 249,116 248,116 			"/>
			<rect x="253" y="109" fill="#0F5B7A" width="4" height="6"/>
			<path fill="#0F373F" d="M252.879,120.9l0.979-0.021l1.06,1.048l-0.519,0.511L252.879,120.9z"/>
			<polygon fill="#0F5B7A" points="256,120 257,120.021 257,115 256,115 			"/>
			<polygon fill="#0F5B7A" points="253,120.979 254,121.062 254,115 253,115 			"/>
			<rect x="253" y="106" fill="#E8C9AA" width="4" height="3"/>
			<rect x="253" y="104" width="4" height="2"/>
			<polygon points="258.002,109 257.002,109 254.002,109 253.002,109 252.002,109 251,109 251,113 252,113 252,110 253,110 253,114 
				257,114 257,110 258,110 258,113 259,113 259,110 259,109 			"/>
			<rect x="255" y="103" fill="#0F373F" width="1" height="1"/>
		</g>
	</g>
	<g>
		<g>
			<polygon fill="#A4B8C3" points="54.992,124 56,124 47,115 46,115 			"/>
			<polygon fill="#0F373F" points="52.438,121.438 52.994,121.036 51.848,119.891 50.9,119.879 			"/>
			<rect x="55" y="122" fill="#A4B8C3" width="1" height="2"/>
			<rect x="52" y="123" fill="#A4B8C3" width="1" height="2"/>
			<polygon fill="#A4B8C3" points="51.994,125 53.002,125 44,116 43,116 			"/>
			<rect x="48" y="109" fill="#0F5B7A" width="4" height="6"/>
			<path fill="#0F373F" d="M47.879,120.9l0.979-0.021l1.058,1.048l-0.517,0.511L47.879,120.9z"/>
			<polygon fill="#0F5B7A" points="51,120 52,120.021 52,115 51,115 			"/>
			<polygon fill="#0F5B7A" points="48,120.979 49,121.062 49,115 48,115 			"/>
			<rect x="48" y="106" fill="#E8C9AA" width="4" height="3"/>
			<rect x="48" y="104" fill="#009CCC" width="4" height="2"/>
			<polygon fill="#009CCC" points="53.002,109 52.002,109 49.002,109 48.002,109 47.002,109 46,109 46,113 47,113 47,110 48,110 
				48,114 52,114 52,110 53,110 53,113 54,113 54,110 54,109 			"/>
			<rect x="50" y="103" fill="#0F373F" width="1" height="1"/>
		</g>
		<g>
			<polygon fill="#A4B8C3" points="69.992,124 71,124 62,115 61,115 			"/>
			<polygon fill="#0F373F" points="67.438,121.438 67.994,121.036 66.848,119.891 65.9,119.879 			"/>
			<rect x="70" y="122" fill="#A4B8C3" width="1" height="2"/>
			<rect x="67" y="123" fill="#A4B8C3" width="1" height="2"/>
			<polygon fill="#A4B8C3" points="66.994,125 68.002,125 59,116 58,116 			"/>
			<rect x="63" y="109" fill="#0F5B7A" width="4" height="6"/>
			<path fill="#0F373F" d="M62.879,120.9l0.979-0.021l1.058,1.048l-0.517,0.511L62.879,120.9z"/>
			<polygon fill="#0F5B7A" points="66,120 67,120.021 67,115 66,115 			"/>
			<polygon fill="#0F5B7A" points="63,120.979 64,121.062 64,115 63,115 			"/>
			<rect x="63" y="106" fill="#E8C9AA" width="4" height="3"/>
			<rect x="63" y="104" fill="#009CCC" width="4" height="2"/>
			<polygon fill="#009CCC" points="68.002,109 67.002,109 64.002,109 63.002,109 62.002,109 61,109 61,113 62,113 62,110 63,110 
				63,114 67,114 67,110 68,110 68,113 69,113 69,110 69,109 			"/>
			<rect x="65" y="103" fill="#0F373F" width="1" height="1"/>
		</g>
	</g>
	<g>
		<g>
			<polygon fill="#A4B8C3" points="99.992,100 101,100 92,91 91,91 			"/>
			<polygon fill="#0F373F" points="97.438,97.438 97.994,97.036 96.848,95.891 95.9,95.879 			"/>
			<rect x="100" y="98" fill="#A4B8C3" width="1" height="2"/>
			<rect x="97" y="99" fill="#A4B8C3" width="1" height="2"/>
			<polygon fill="#A4B8C3" points="96.994,101 98.002,101 89,92 88,92 			"/>
			<rect x="93" y="85" fill="#0F5B7A" width="4" height="6"/>
			<path fill="#0F373F" d="M92.879,96.9l0.979-0.021l1.058,1.048l-0.517,0.51L92.879,96.9z"/>
			<polygon fill="#0F5B7A" points="96,96 97,96.021 97,91 96,91 			"/>
			<polygon fill="#0F5B7A" points="93,96.979 94,97.062 94,91 93,91 			"/>
			<rect x="93" y="82" fill="#E8C9AA" width="4" height="3"/>
			<rect x="93" y="80" fill="#009CCC" width="4" height="2"/>
			<polygon fill="#009CCC" points="98.002,85 97.002,85 94.002,85 93.002,85 92.002,85 91,85 91,89 92,89 92,86 93,86 93,90 97,90 
				97,86 98,86 98,89 99,89 99,86 99,85 			"/>
			<rect x="95" y="79" fill="#0F373F" width="1" height="1"/>
		</g>
	</g>
	<g>
		<g>
			<polygon fill="#A4B8C3" points="134.992,100 136,100 127,91 126,91 			"/>
			<polygon fill="#0F373F" points="132.438,97.438 132.994,97.036 131.848,95.891 130.9,95.879 			"/>
			<rect x="135" y="98" fill="#A4B8C3" width="1" height="2"/>
			<rect x="132" y="99" fill="#A4B8C3" width="1" height="2"/>
			<polygon fill="#A4B8C3" points="131.994,101 133.002,101 124,92 123,92 			"/>
			<rect x="128" y="85" fill="#0F5B7A" width="4" height="6"/>
			<path fill="#0F373F" d="M127.879,96.9l0.979-0.021l1.058,1.048l-0.517,0.51L127.879,96.9z"/>
			<polygon fill="#0F5B7A" points="131,96 132,96.021 132,91 131,91 			"/>
			<polygon fill="#0F5B7A" points="128,96.979 129,97.062 129,91 128,91 			"/>
			<rect x="128" y="82" fill="#E8C9AA" width="4" height="3"/>
			<rect x="128" y="80" fill="#009CCC" width="4" height="2"/>
			<polygon fill="#009CCC" points="133.002,85 132.002,85 129.002,85 128.002,85 127.002,85 126,85 126,89 127,89 127,86 128,86 
				128,90 132,90 132,86 133,86 133,89 134,89 134,86 134,85 			"/>
			<rect x="130" y="79" fill="#0F373F" width="1" height="1"/>
		</g>
		<g>
			<polygon fill="#A4B8C3" points="149.992,100 151,100 142,91 141,91 			"/>
			<polygon fill="#0F373F" points="147.438,97.438 147.994,97.036 146.848,95.891 145.9,95.879 			"/>
			<rect x="150" y="98" fill="#A4B8C3" width="1" height="2"/>
			<rect x="147" y="99" fill="#A4B8C3" width="1" height="2"/>
			<polygon fill="#A4B8C3" points="146.994,101 148.002,101 139,92 138,92 			"/>
			<rect x="143" y="85" fill="#0F5B7A" width="4" height="6"/>
			<path fill="#0F373F" d="M142.879,96.9l0.979-0.021l1.058,1.048l-0.517,0.51L142.879,96.9z"/>
			<polygon fill="#0F5B7A" points="146,96 147,96.021 147,91 146,91 			"/>
			<polygon fill="#0F5B7A" points="143,96.979 144,97.062 144,91 143,91 			"/>
			<rect x="143" y="82" fill="#E8C9AA" width="4" height="3"/>
			<rect x="143" y="80" fill="#009CCC" width="4" height="2"/>
			<polygon fill="#009CCC" points="148.002,85 147.002,85 144.002,85 143.002,85 142.002,85 141,85 141,89 142,89 142,86 143,86 
				143,90 147,90 147,86 148,86 148,89 149,89 149,86 149,85 			"/>
			<rect x="145" y="79" fill="#0F373F" width="1" height="1"/>
		</g>
		<g>
			<polygon fill="#A4B8C3" points="164.992,100 166,100 157,91 156,91 			"/>
			<polygon fill="#0F373F" points="162.438,97.438 162.994,97.036 161.848,95.891 160.9,95.879 			"/>
			<rect x="165" y="98" fill="#A4B8C3" width="1" height="2"/>
			<rect x="162" y="99" fill="#A4B8C3" width="1" height="2"/>
			<polygon fill="#A4B8C3" points="161.994,101 163.002,101 154,92 153,92 			"/>
			<rect x="158" y="85" fill="#0F5B7A" width="4" height="6"/>
			<path fill="#0F373F" d="M157.879,96.9l0.979-0.021l1.06,1.048l-0.519,0.51L157.879,96.9z"/>
			<polygon fill="#0F5B7A" points="161,96 162,96.021 162,91 161,91 			"/>
			<polygon fill="#0F5B7A" points="158,96.979 159,97.062 159,91 158,91 			"/>
			<rect x="158" y="82" fill="#E8C9AA" width="4" height="3"/>
			<rect x="158" y="80" fill="#009CCC" width="4" height="2"/>
			<polygon fill="#009CCC" points="163.002,85 162.002,85 159.002,85 158.002,85 157.002,85 156,85 156,89 157,89 157,86 158,86 
				158,90 162,90 162,86 163,86 163,89 164,89 164,86 164,85 			"/>
			<rect x="160" y="79" fill="#0F373F" width="1" height="1"/>
		</g>
		<g>
			<polygon fill="#A4B8C3" points="179.992,100 181,100 172,91 171,91 			"/>
			<polygon fill="#0F373F" points="177.438,97.438 177.994,97.036 176.848,95.891 175.9,95.879 			"/>
			<rect x="180" y="98" fill="#A4B8C3" width="1" height="2"/>
			<rect x="177" y="99" fill="#A4B8C3" width="1" height="2"/>
			<polygon fill="#A4B8C3" points="176.994,101 178.002,101 169,92 168,92 			"/>
			<rect x="173" y="85" fill="#0F5B7A" width="4" height="6"/>
			<path fill="#0F373F" d="M172.879,96.9l0.979-0.021l1.06,1.048l-0.519,0.51L172.879,96.9z"/>
			<polygon fill="#0F5B7A" points="176,96 177,96.021 177,91 176,91 			"/>
			<polygon fill="#0F5B7A" points="173,96.979 174,97.062 174,91 173,91 			"/>
			<rect x="173" y="82" fill="#E8C9AA" width="4" height="3"/>
			<rect x="173" y="80" fill="#009CCC" width="4" height="2"/>
			<polygon fill="#009CCC" points="178.002,85 177.002,85 174.002,85 173.002,85 172.002,85 171,85 171,89 172,89 172,86 173,86 
				173,90 177,90 177,86 178,86 178,89 179,89 179,86 179,85 			"/>
			<rect x="175" y="79" fill="#0F373F" width="1" height="1"/>
		</g>
	</g>
	<g>
		<g>
			<polygon fill="#A4B8C3" points="149.992,76 151,76 142,67 141,67 			"/>
			<polygon fill="#0F373F" points="147.438,73.438 147.994,73.036 146.848,71.891 145.9,71.879 			"/>
			<rect x="150" y="74" fill="#A4B8C3" width="1" height="2"/>
			<rect x="147" y="75" fill="#A4B8C3" width="1" height="2"/>
			<polygon fill="#A4B8C3" points="146.994,77 148.002,77 139,68 138,68 			"/>
			<rect x="143" y="61" fill="#0F5B7A" width="4" height="6"/>
			<path fill="#0F373F" d="M142.879,72.9l0.979-0.021l1.058,1.048l-0.517,0.51L142.879,72.9z"/>
			<polygon fill="#0F5B7A" points="146,72 147,72.021 147,67 146,67 			"/>
			<polygon fill="#0F5B7A" points="143,72.979 144,73.062 144,67 143,67 			"/>
			<rect x="143" y="58" fill="#E8C9AA" width="4" height="3"/>
			<rect x="143" y="56" fill="#009CCC" width="4" height="2"/>
			<polygon fill="#009CCC" points="148.002,61 147.002,61 144.002,61 143.002,61 142.002,61 141,61 141,65 142,65 142,62 143,62 
				143,66 147,66 147,62 148,62 148,65 149,65 149,62 149,61 			"/>
			<rect x="145" y="55" fill="#0F373F" width="1" height="1"/>
		</g>
		<g>
			<polygon fill="#A4B8C3" points="164.992,76 166,76 157,67 156,67 			"/>
			<polygon fill="#0F373F" points="162.438,73.438 162.994,73.036 161.848,71.891 160.9,71.879 			"/>
			<rect x="165" y="74" fill="#A4B8C3" width="1" height="2"/>
			<rect x="162" y="75" fill="#A4B8C3" width="1" height="2"/>
			<polygon fill="#A4B8C3" points="161.994,77 163.002,77 154,68 153,68 			"/>
			<rect x="158" y="61" fill="#0F5B7A" width="4" height="6"/>
			<path fill="#0F373F" d="M157.879,72.9l0.979-0.021l1.06,1.048l-0.519,0.51L157.879,72.9z"/>
			<polygon fill="#0F5B7A" points="161,72 162,72.021 162,67 161,67 			"/>
			<polygon fill="#0F5B7A" points="158,72.979 159,73.062 159,67 158,67 			"/>
			<rect x="158" y="58" fill="#E8C9AA" width="4" height="3"/>
			<rect x="158" y="56" fill="#009CCC" width="4" height="2"/>
			<polygon fill="#009CCC" points="163.002,61 162.002,61 159.002,61 158.002,61 157.002,61 156,61 156,65 157,65 157,62 158,62 
				158,66 162,66 162,62 163,62 163,65 164,65 164,62 164,61 			"/>
			<rect x="160" y="55" fill="#0F373F" width="1" height="1"/>
		</g>
		<g>
			<polygon fill="#A4B8C3" points="179.992,76 181,76 172,67 171,67 			"/>
			<polygon fill="#0F373F" points="177.438,73.438 177.994,73.036 176.848,71.891 175.9,71.879 			"/>
			<rect x="180" y="74" fill="#A4B8C3" width="1" height="2"/>
			<rect x="177" y="75" fill="#A4B8C3" width="1" height="2"/>
			<polygon fill="#A4B8C3" points="176.994,77 178.002,77 169,68 168,68 			"/>
			<rect x="173" y="61" fill="#0F5B7A" width="4" height="6"/>
			<path fill="#0F373F" d="M172.879,72.9l0.979-0.021l1.06,1.048l-0.519,0.51L172.879,72.9z"/>
			<polygon fill="#0F5B7A" points="176,72 177,72.021 177,67 176,67 			"/>
			<polygon fill="#0F5B7A" points="173,72.979 174,73.062 174,67 173,67 			"/>
			<rect x="173" y="58" fill="#E8C9AA" width="4" height="3"/>
			<rect x="173" y="56" fill="#009CCC" width="4" height="2"/>
			<polygon fill="#009CCC" points="178.002,61 177.002,61 174.002,61 173.002,61 172.002,61 171,61 171,65 172,65 172,62 173,62 
				173,66 177,66 177,62 178,62 178,65 179,65 179,62 179,61 			"/>
			<rect x="175" y="55" fill="#0F373F" width="1" height="1"/>
		</g>
	</g>
	<g>
		<g>
			<polygon fill="#A4B8C3" points="214.992,76 216,76 207,67 206,67 			"/>
			<polygon fill="#0F373F" points="212.438,73.438 212.994,73.036 211.848,71.891 210.9,71.879 			"/>
			<rect x="215" y="74" fill="#A4B8C3" width="1" height="2"/>
			<rect x="212" y="75" fill="#A4B8C3" width="1" height="2"/>
			<polygon fill="#A4B8C3" points="211.994,77 213.002,77 204,68 203,68 			"/>
			<rect x="208" y="61" fill="#0F5B7A" width="4" height="6"/>
			<path fill="#0F373F" d="M207.879,72.9l0.979-0.021l1.06,1.048l-0.519,0.51L207.879,72.9z"/>
			<polygon fill="#0F5B7A" points="211,72 212,72.021 212,67 211,67 			"/>
			<polygon fill="#0F5B7A" points="208,72.979 209,73.062 209,67 208,67 			"/>
			<rect x="208" y="58" fill="#E8C9AA" width="4" height="3"/>
			<rect x="208" y="56" fill="#009CCC" width="4" height="2"/>
			<polygon fill="#009CCC" points="213.002,61 212.002,61 209.002,61 208.002,61 207.002,61 206,61 206,65 207,65 207,62 208,62 
				208,66 212,66 212,62 213,62 213,65 214,65 214,62 214,61 			"/>
			<rect x="210" y="55" fill="#0F373F" width="1" height="1"/>
		</g>
		<g>
			<polygon fill="#A4B8C3" points="229.992,76 231,76 222,67 221,67 			"/>
			<polygon fill="#0F373F" points="227.438,73.438 227.994,73.036 226.848,71.891 225.9,71.879 			"/>
			<rect x="230" y="74" fill="#A4B8C3" width="1" height="2"/>
			<rect x="227" y="75" fill="#A4B8C3" width="1" height="2"/>
			<polygon fill="#A4B8C3" points="226.994,77 228.002,77 219,68 218,68 			"/>
			<rect x="223" y="61" fill="#0F5B7A" width="4" height="6"/>
			<path fill="#0F373F" d="M222.879,72.9l0.979-0.021l1.06,1.048l-0.519,0.51L222.879,72.9z"/>
			<polygon fill="#0F5B7A" points="226,72 227,72.021 227,67 226,67 			"/>
			<polygon fill="#0F5B7A" points="223,72.979 224,73.062 224,67 223,67 			"/>
			<rect x="223" y="58" fill="#E8C9AA" width="4" height="3"/>
			<rect x="223" y="56" fill="#009CCC" width="4" height="2"/>
			<polygon fill="#009CCC" points="228.002,61 227.002,61 224.002,61 223.002,61 222.002,61 221,61 221,65 222,65 222,62 223,62 
				223,66 227,66 227,62 228,62 228,65 229,65 229,62 229,61 			"/>
			<rect x="225" y="55" fill="#0F373F" width="1" height="1"/>
		</g>
		<g>
			<polygon fill="#A4B8C3" points="244.992,76 246,76 237,67 236,67 			"/>
			<polygon fill="#0F373F" points="242.438,73.438 242.994,73.036 241.848,71.891 240.9,71.879 			"/>
			<rect x="245" y="74" fill="#A4B8C3" width="1" height="2"/>
			<rect x="242" y="75" fill="#A4B8C3" width="1" height="2"/>
			<polygon fill="#A4B8C3" points="241.994,77 243.002,77 234,68 233,68 			"/>
			<rect x="238" y="61" fill="#0F5B7A" width="4" height="6"/>
			<path fill="#0F373F" d="M237.879,72.9l0.979-0.021l1.06,1.048l-0.519,0.51L237.879,72.9z"/>
			<polygon fill="#0F5B7A" points="241,72 242,72.021 242,67 241,67 			"/>
			<polygon fill="#0F5B7A" points="238,72.979 239,73.062 239,67 238,67 			"/>
			<rect x="238" y="58" fill="#E8C9AA" width="4" height="3"/>
			<rect x="238" y="56" fill="#009CCC" width="4" height="2"/>
			<polygon fill="#009CCC" points="243.002,61 242.002,61 239.002,61 238.002,61 237.002,61 236,61 236,65 237,65 237,62 238,62 
				238,66 242,66 242,62 243,62 243,65 244,65 244,62 244,61 			"/>
			<rect x="240" y="55" fill="#0F373F" width="1" height="1"/>
		</g>
	</g>
	<g>
		<g>
			<polygon fill="#A4B8C3" points="214.992,52 216,52 207,43 206,43 			"/>
			<polygon fill="#0F373F" points="212.438,49.438 212.994,49.036 211.848,47.891 210.9,47.879 			"/>
			<rect x="215" y="50" fill="#A4B8C3" width="1" height="2"/>
			<rect x="212" y="51" fill="#A4B8C3" width="1" height="2"/>
			<polygon fill="#A4B8C3" points="211.994,53 213.002,53 204,44 203,44 			"/>
			<rect x="208" y="37" fill="#0F5B7A" width="4" height="6"/>
			<path fill="#0F373F" d="M207.879,48.9l0.979-0.021l1.06,1.048l-0.519,0.51L207.879,48.9z"/>
			<polygon fill="#0F5B7A" points="211,48 212,48.021 212,43 211,43 			"/>
			<polygon fill="#0F5B7A" points="208,48.979 209,49.062 209,43 208,43 			"/>
			<rect x="208" y="34" fill="#E8C9AA" width="4" height="3"/>
			<rect x="208" y="32" fill="#009CCC" width="4" height="2"/>
			<polygon fill="#009CCC" points="213.002,37 212.002,37 209.002,37 208.002,37 207.002,37 206,37 206,41 207,41 207,38 208,38 
				208,42 212,42 212,38 213,38 213,41 214,41 214,38 214,37 			"/>
			<rect x="210" y="31" fill="#0F373F" width="1" height="1"/>
		</g>
		<g>
			<polygon fill="#A4B8C3" points="229.992,52 231,52 222,43 221,43 			"/>
			<polygon fill="#0F373F" points="227.438,49.438 227.994,49.036 226.848,47.891 225.9,47.879 			"/>
			<rect x="230" y="50" fill="#A4B8C3" width="1" height="2"/>
			<rect x="227" y="51" fill="#A4B8C3" width="1" height="2"/>
			<polygon fill="#A4B8C3" points="226.994,53 228.002,53 219,44 218,44 			"/>
			<rect x="223" y="37" fill="#0F5B7A" width="4" height="6"/>
			<path fill="#0F373F" d="M222.879,48.9l0.979-0.021l1.06,1.048l-0.519,0.51L222.879,48.9z"/>
			<polygon fill="#0F5B7A" points="226,48 227,48.021 227,43 226,43 			"/>
			<polygon fill="#0F5B7A" points="223,48.979 224,49.062 224,43 223,43 			"/>
			<rect x="223" y="34" fill="#E8C9AA" width="4" height="3"/>
			<rect x="223" y="32" fill="#009CCC" width="4" height="2"/>
			<polygon fill="#009CCC" points="228.002,37 227.002,37 224.002,37 223.002,37 222.002,37 221,37 221,41 222,41 222,38 223,38 
				223,42 227,42 227,38 228,38 228,41 229,41 229,38 229,37 			"/>
			<rect x="225" y="31" fill="#0F373F" width="1" height="1"/>
		</g>
		<g>
			<polygon fill="#A4B8C3" points="244.992,52 246,52 237,43 236,43 			"/>
			<polygon fill="#0F373F" points="242.438,49.438 242.994,49.036 241.848,47.891 240.9,47.879 			"/>
			<rect x="245" y="50" fill="#A4B8C3" width="1" height="2"/>
			<rect x="242" y="51" fill="#A4B8C3" width="1" height="2"/>
			<polygon fill="#A4B8C3" points="241.994,53 243.002,53 234,44 233,44 			"/>
			<rect x="238" y="37" fill="#0F5B7A" width="4" height="6"/>
			<path fill="#0F373F" d="M237.879,48.9l0.979-0.021l1.06,1.048l-0.519,0.51L237.879,48.9z"/>
			<polygon fill="#0F5B7A" points="241,48 242,48.021 242,43 241,43 			"/>
			<polygon fill="#0F5B7A" points="238,48.979 239,49.062 239,43 238,43 			"/>
			<rect x="238" y="34" fill="#E8C9AA" width="4" height="3"/>
			<rect x="238" y="32" fill="#009CCC" width="4" height="2"/>
			<polygon fill="#009CCC" points="243.002,37 242.002,37 239.002,37 238.002,37 237.002,37 236,37 236,41 237,41 237,38 238,38 
				238,42 242,42 242,38 243,38 243,41 244,41 244,38 244,37 			"/>
			<rect x="240" y="31" fill="#0F373F" width="1" height="1"/>
		</g>
		<g>
			<polygon fill="#A4B8C3" points="259.992,52 261,52 252,43 251,43 			"/>
			<polygon fill="#0F373F" points="257.438,49.438 257.994,49.036 256.848,47.891 255.9,47.879 			"/>
			<rect x="260" y="50" fill="#A4B8C3" width="1" height="2"/>
			<rect x="257" y="51" fill="#A4B8C3" width="1" height="2"/>
			<polygon fill="#A4B8C3" points="256.994,53 258.002,53 249,44 248,44 			"/>
			<rect x="253" y="37" fill="#0F5B7A" width="4" height="6"/>
			<path fill="#0F373F" d="M252.879,48.9l0.979-0.021l1.06,1.048l-0.519,0.51L252.879,48.9z"/>
			<polygon fill="#0F5B7A" points="256,48 257,48.021 257,43 256,43 			"/>
			<polygon fill="#0F5B7A" points="253,48.979 254,49.062 254,43 253,43 			"/>
			<rect x="253" y="34" fill="#E8C9AA" width="4" height="3"/>
			<rect x="253" y="32" fill="#009CCC" width="4" height="2"/>
			<polygon fill="#009CCC" points="258.002,37 257.002,37 254.002,37 253.002,37 252.002,37 251,37 251,41 252,41 252,38 253,38 
				253,42 257,42 257,38 258,38 258,41 259,41 259,38 259,37 			"/>
			<rect x="255" y="31" fill="#0F373F" width="1" height="1"/>
		</g>
	</g>
</g>
</svg>
