<?xml version="1.0" encoding="utf-8"?>
<!-- Generator: Adobe Illustrator 16.0.0, SVG Export Plug-In . SVG Version: 6.00 Build 0)  -->
<!DOCTYPE svg PUBLIC "-//W3C//DTD SVG 1.1//EN" "http://www.w3.org/Graphics/SVG/1.1/DTD/svg11.dtd">
<svg version="1.1" id="Layer_1" xmlns="http://www.w3.org/2000/svg" xmlns:xlink="http://www.w3.org/1999/xlink" x="0px" y="0px"
	 width="300px" height="225px" viewBox="0 0 300 225" enable-background="new 0 0 300 225" xml:space="preserve">
<g id="Pro_Filière_11_">
	<g>
		<path fill="#004169" fill-opacity="0.1" stroke="#002C47" stroke-width="0.5" stroke-miterlimit="10" d="M120.134,176.32
			c-9.748,0.006-21.111-2.742-30.944-8.548c-29.836-17.606-40.181-56.591-22.955-87.081l53.899,31.872v51.358V176.32z"/>
		<path fill="#004169" stroke="#002C47" stroke-width="0.5" stroke-miterlimit="10" d="M120.134,112.563V48.82
			c-21.444,0-42.879,12.149-54.022,31.871L120.134,112.563z"/>
	</g>
	<g>
		<rect x="152" y="171.5" fill="#004169" width="98" height="2"/>
		<rect x="152" y="159.5" fill="#004169" width="56" height="2"/>
		<rect x="152" y="147.5" fill="#004169" width="85" height="2"/>
		<rect x="152" y="135.5" fill="#004169" width="79" height="2"/>
		<rect x="152" y="123.5" fill="#004169" width="66" height="2"/>
		<rect x="152" y="111.5" opacity="0.9" fill="#004169" width="92" height="2"/>
		<rect x="152" y="99.5" fill="#004169" width="64" height="2"/>
		<rect x="152" y="87.5" fill="#004169" width="98" height="2"/>
		<rect x="152" y="75.5" fill="#004169" width="79" height="2"/>
		<rect x="152" y="63.5" fill="#004169" width="57" height="2"/>
		<rect x="152" y="51.5" fill="#004169" width="44" height="2"/>
		<polyline fill="none" stroke="#E6E6E6" stroke-miterlimit="10" points="141,183 136.5,183 136.5,85 132,80.5 136.5,76 136.5,42 
			142,42 		"/>
	</g>
</g>
</svg>
