<?xml version="1.0" encoding="utf-8"?>
<!-- Generator: Adobe Illustrator 16.0.0, SVG Export Plug-In . SVG Version: 6.00 Build 0)  -->
<!DOCTYPE svg PUBLIC "-//W3C//DTD SVG 1.1//EN" "http://www.w3.org/Graphics/SVG/1.1/DTD/svg11.dtd">
<svg version="1.1" id="Calque_1" xmlns="http://www.w3.org/2000/svg" xmlns:xlink="http://www.w3.org/1999/xlink" x="0px" y="0px"
	 width="300px" height="225px" viewBox="0 0 300 225" enable-background="new 0 0 300 225" xml:space="preserve">
<g id="Focus_Background">
</g>
<g id="Focus">
</g>
<g id="Default">
	<g>
		<g>
			
				<radialGradient id="SVGID_1_" cx="441.5" cy="-503.6826" r="149.9999" gradientTransform="matrix(1 0 0 -0.6639 -289.5 -218.8102)" gradientUnits="userSpaceOnUse">
				<stop  offset="0" style="stop-color:#3E4452"/>
				<stop  offset="1" style="stop-color:#191E28"/>
			</radialGradient>
			<rect fill="url(#SVGID_1_)" width="300" height="225"/>
		</g>
		<g>
			
				<circle fill="#FFFFFF" fill-opacity="0.1" stroke="#FFFFFF" stroke-width="0.5" stroke-miterlimit="10" stroke-opacity="0.1" cx="147.5" cy="118" r="75"/>
			
				<circle fill="#FFFFFF" fill-opacity="0.1" stroke="#FFFFFF" stroke-width="0.5" stroke-miterlimit="10" stroke-opacity="0.1" cx="147.5" cy="118" r="60"/>
			
				<circle fill="#FFFFFF" fill-opacity="0.1" stroke="#FFFFFF" stroke-width="0.5" stroke-miterlimit="10" stroke-opacity="0.1" cx="147.5" cy="118" r="45"/>
			
				<circle fill="#FFFFFF" fill-opacity="0.1" stroke="#FFFFFF" stroke-width="0.5" stroke-miterlimit="10" stroke-opacity="0.1" cx="147.5" cy="118" r="30"/>
			
				<circle fill="#FFFFFF" fill-opacity="0.1" stroke="#FFFFFF" stroke-width="0.5" stroke-miterlimit="10" stroke-opacity="0.1" cx="147.5" cy="118" r="15"/>
		</g>
		<g>
			<g id="lines_2_">
				<g id="_x31_4_2_">
					<path fill="none" stroke="#67328E" stroke-width="1.5" stroke-linecap="round" stroke-linejoin="round" d="M122.091,87.982
						l-3.408,6.289l2.799,0.543l25.825,23.09l28.815,22.349l-0.636,1.526l0.634,4.502l-1.408,12.971l-8.97,2.379					">
<title>actif</title>
					</path>
				</g>
				<g id="_x31_3_2_">
					<path fill="none" stroke="#89C7D6" stroke-width="1.5" stroke-linecap="round" stroke-linejoin="round" d="M101.281,187.631
						l0.068-11.835l-5.212-4.614l3.653-3.688l0.483,3.121l11.446-11.292l-1.304-1.222l5.153-14.015l-19.87-0.394l-1.89-12.7
						l1.216-10.15l-3.147-10.98l21.686-6.512l-7.433-14.832l15.959-0.537l-5.699-17.508c0,0,3.113-4.82,3.112-4.82l1.312,0.844
						l-5.241-3.69l-3.8-1.366l-2.208-4.738l-2.23-4.665l-3.274-2.536l0.718-4.213l16.036,21.209l2.551-6.737l2.893-4.077
						l5.228-6.961c0,0,2.745-1.807,2.745-1.808l8.734-11.692l11.149-2.366c0,0,1.511-0.429,1.511-0.43l1.664-5.374l34.468,67.811
						l14-0.268l3.949,3.247l-0.464,5.899					">
<title>actif</title>
					</path>
				</g>
				<g id="_x31_2_2_">
					<path fill="none" stroke="#328E5B" stroke-width="1.5" stroke-linecap="round" stroke-linejoin="round" d="M158.623,51.305
						l1.969,4.661l-12.211,13.798l-5.88-13.672l-10.818-8.085l-0.952,2.48l-1.372,7.837l-2.213,3.884l-0.183,6.132l-3.752,5.728
						c0-0.001-1.12,13.915-1.12,13.915l-3.408,6.289l-2.726,8.031l-17.943,7.08l-2.736,6.198l-2.25,8.71l8.717,12.234l8.414,6.209
						l0.135,11.303l5.277-9.949l-12.532,2.219l-0.458-0.902l-3.655,1.181l-9.045,4.162l6.226-2.87l-10.456,8.637l5.28-1.047
						l-7.635,5.403					">
<title>actif</title>
					</path>
				</g>
				<g id="_x31_1_2_">
					<path fill="none" stroke="#8E6538" stroke-width="1.5" stroke-linecap="round" stroke-linejoin="round" d="M147.307,117.904
						l10.716,0.046l5.094-21.497l0.509-3.066l9.147-0.527l3.863-0.216c0,0,3.01-0.32,3.01-0.319c0,0,3.761,0.85,3.761,0.849
						l-0.29,1.249l6.49-4.762l4.734,2.301l-2.584,2.902l3.579-1.117					">
<title>actif</title>
					</path>
				</g>
				<g id="_x31_0_2_">
					<path fill="none" stroke="#DFB039" stroke-width="1.5" stroke-linecap="round" stroke-linejoin="round" d="M178.045,161.158
						l-15.895-5.436l-7.571,12.147l-11.109-6.374l-13.796-3.512l-7.753-19.059l-11.423-1.598l-8.754-0.805l-3.554,4.703l-2.49,2.467
						l-2-6.305l-13.642-5.311l2.162,4.947l-0.676-1.539l-4.754-0.288l-7.014-2.068l-2.571-1.31l-5.817-0.204l-4.992,5.392
						l-5.686,1.359l2.854,0.82l15.25-4.24l4.212-1.318l3.764,1.569					">
<title>actif</title>
					</path>
				</g>
				<g id="_x39__2_">
					<path fill="none" stroke="#CDC83F" stroke-width="1.5" stroke-linecap="round" stroke-linejoin="round" d="M51.694,152.104
						l0.565-1.063l10.068-3.929l1.42-2.399l2.228-5.937l2.84-3.824l-1.609-3.127c0,0.001,3.752-5.906,3.752-5.906l-2.479-4.271
						l6.598-4.065l11.065-8.214l-7.333-1.234l7.741-1.819l3.274-1.706l21.249-2.907L97.075,89.529l9.057-1.01l1.282-8.992
						l2.86-5.804l15.611,10.322l-0.546-13.724l14.494-0.934l10.45,4.766l6.734,8.699l15.754,10.006l26.436-2.815l10.039,13.716
						l-0.189,13.218l3.971,7.614l-3.442,6.356l-14.166,1.156l15.938-4.09l1.342-2.164l3.248-1.847c0,0,4.383-3.411,4.383-3.41
						l11.404-3.518l2.869-6.009					">
<title>actif</title>
					</path>
				</g>
				<g id="_x38__2_">
					<path fill="none" stroke="#C5A3CA" stroke-width="1.5" stroke-linecap="round" stroke-linejoin="round" d="M215.234,190.529
						l-2.864-6.91l0.821-4.406l1.857-3.346c-0.001,0.001,2.902,2.145,2.902,2.145l-12.373-8.779l1.277-0.979l-4.488-4.834
						l3.258-2.977l0.438-8.17l-2.57-1.717h0.002l-7.791-4.646l4.77-1.995l-12.625-8.806l12.129-0.174l-1.852,0.522l-13.598-5.175
						l14.357-9.487l1.082-15.847l-7.428-13.326l-19.768,1.236l-15.754-10.006l-6.734-8.699l-10.45-4.766l-14.494,0.935
						l-1.127,19.724l-5.53,4.225l-2.726,8.031l-24.078,7.561l-1.748,7.651l-0.724,5.365l-9.349,9.2l2.802,8.03l-0.941,3.779
						l-0.648,1.266l-2.865,2.228l-1.834,3.243					">
<title>actif</title>
					</path>
				</g>
				<g id="_x37__2_">
					<path fill="none" stroke="#DF9AB1" stroke-width="1.5" stroke-linecap="round" stroke-linejoin="round" d="M175.213,174.934
						l-2.718-2.127l-4.144-0.633l-3.586,5.945l-7.332-10.652l-0.936,1.75l2.027,12.936l1.05-4.959l-1.814-2.455l-1.39-6.686
						l0.127,1.164l0.188-1.175l-1.631-5.501l-4.074-9.342l1.297,9.312l0.701-9.01l9.172,2.222l8.287-21.381l-1.431-0.492
						l-21.701-15.944l-25.582-6.191c0,0,2.055-8.739,2.055-8.738l-2.298-8.161l2.731-4.768l1.673-6.001l6.199-8.709l9.465,2.163
						l4.942-11.482l10.092,21.872l9.138-14.579l3.139-4.047l-0.94-0.963l5.942-0.133l1.5-1.899l2.227-0.032l2.912-2.396l0.784-0.944
						l2.897-2.984l7.862-11.73					">
<title>actif</title>
					</path>
				</g>
				<g id="_x36__2_">
					<path fill="none" stroke="#79BB92" stroke-width="1.5" stroke-linecap="round" stroke-linejoin="round" d="M168.859,69.264
						l7.627-1.991l10.935-3.315l10.312,4.944c0-0.001,4.41,2.009,4.41,2.009l1.123,1.324l1.25,6.091L189.607,89.66l13.189,48.427
						l-0.105,5.96l-6.988,1.862l-7.973-0.401l-12.244-3.728l3.505,17.342l-4.048,8.196l-10.117-2.756l-9.771-2.021l-5.165,23.479
						l-11.531-2.189l-7.542-13.867l-3.517-7.742l-4.209-7.529l-14.441,3.76l6.92-14.362l-12.99,1.315c0,0-11.146-1.963-11.146-1.961
						l-6.033-5.161l-5.343-6.2l-1.811-0.697l1.27-7.292l8.181-6.114l-8.89-9.847l6.962-6.037l6.496-4.648l9.36-0.499					">
<title>actif</title>
					</path>
				</g>
				<g id="_x35__2_">
					<path fill="none" stroke="#DE8A53" stroke-width="1.5" stroke-linecap="round" stroke-linejoin="round" d="M217.316,66.251
						l-14.096,9.251l-2.523-3.424c0-0.001-4.118-1.139-4.118-1.139l-6.235-0.279l-1.738-2.807l-8.854,4.226l-3.265-4.807
						L167.92,68.3l-13.111,5.877l1.776,13.712l14.94-10.355l1.248,15.325l26.436-2.815l-0.034,20.03l-2.126,12.688l-12.521,7.521
						l2.029,26.256l-8.512,4.619l-10.288,9.441l-4.532,6.287					">
<title>actif</title>
					</path>
				</g>
				<g id="_x34__2_">
					<path fill="none" stroke="#BB4D98" stroke-width="1.5" stroke-linecap="round" stroke-linejoin="round" d="M125.824,165.453
						l-3.092,1.896l5.824-10.578l-1.256,5.449l-4.209-7.529l-0.918-7.59l-6.604-3.015l3.077-5.099l-0.844-5.568l0.179-4.909
						l3.938,10.416l7.757-0.356l7.396-9.086l10.232-11.58l-10.398-26.354l15.578-4.395l2.396,1.755l2.138-6.058l0.029,4.496
						l-0.465,0.54l-1.775-13.712l-5.939,5.002l-0.845-11.199l0.357,1.783l-1.686,1.348l-3.093-9.326					">
<title>actif</title>
					</path>
				</g>
				<g id="_x33__2_">
					<path fill="none" stroke="#9A9940" stroke-width="1.5" stroke-linecap="round" stroke-linejoin="round" d="M84.929,62.469
						L83.22,64.82l11.184,11.072l-3.409-1.789l-1.661-4.352l8.619,4.103l6.318,0.937l0.173-2.125l9.168,4.066l8.479,11.25
						l-11.816-14.259l13.938,16.324l-7.451-17.818l8.178-5.009l15.247,7.509l14.695,14.182l8.743,4.476l14.057-11.023l-4.908,10.496
						l28.904-0.281c0,0,6.969,4.439,6.969,4.44l-2.826,8.343l3.424-1.619l5.146,1.811l10.615-0.625					">
<title>actif</title>
					</path>
				</g>
				<g id="_x32__2_">
					<path fill="none" stroke="#216EB4" stroke-width="1.5" stroke-linecap="round" stroke-linejoin="round" d="M195.419,132.105
						l9.567-4.254l6.142-6.591l3.488-4.639l-8.798-11.262l-4.426-8.192l-4.414-8.604l-17.334,3.76l6.152-26.079l-9.312,1.027
						l-8.566,1.028l-5.212-5.799L148.868,79.18l-8.056-23.26l-11.454,2.404l-4.728,0.73c0,0-5.126,6.6-5.127,6.6l-10.42-1.685
						l-4.641,8.696l-4.793,4.217l-1.294,4.449l-0.508,5.619l3.778,9.995l-11.329,4.198l-10.952-3.359					">
<title>actif</title>
					</path>
				</g>
				<g id="_x31__2_">
					<path fill="none" stroke="#F2C931" stroke-width="1.5" stroke-linecap="round" stroke-linejoin="round" d="M83.895,87.956
						l4.991,2.244l3.471,1.956l8.346,4.006l-4.993-2.456l8.255,4.202l-2.337-0.962l7.233,3.407l2.213,1.345l2.491,1.653l2.393-1.049
						l4.485,0.711l3.337-0.038c0-0.001-2.086-1.248-2.086-1.248l25.613,16.177l10.716,0.046l18.648,8.474l7.855,3.859l-8.405,9.97
						l11.726-5.146l7.571-3.002l-0.813-1.779l7.978,1.062l-0.22-0.699l10.213,1.473					">
<title>actif</title>
					</path>
				</g>
			</g>
			<g id="stations_2_">
				<circle fill="#FFFFFF" cx="130.73" cy="50.487" r="0.761">
				<title>Abbesses</title>
				</circle>
				<circle fill="#FFFFFF" cx="122.732" cy="167.35" r="0.762">
				<title>Alésia</title>
				</circle>
				<circle fill="#FFFFFF" cx="211.128" cy="121.262" r="0.762">
				<title>Alexandre Dumas</title>
				</circle>
				<circle fill="#FFFFFF" cx="89.824" cy="104.605" r="0.762">
				<title>Alma — Marceau</title>
				</circle>
				<circle fill="#FFFFFF" cx="83.22" cy="64.82" r="0.761">
				<title>Anatole France</title>
				</circle>
				<circle fill="#FFFFFF" cx="140.812" cy="55.92" r="0.762">
				<title>Anvers</title>
				</circle>
				<circle fill="#FFFFFF" cx="103.964" cy="97.908" r="0.762">
				<title>Argentine</title>
				</circle>
				<circle fill="#FFFFFF" cx="163.625" cy="93.386" r="0.761">
				<title>Arts Et Métiers</title>
				</circle>
				<circle fill="#FFFFFF" cx="104.062" cy="49.502" r="0.762">
				<title>Asnières — Gennevilliers — Les Agnettes</title>
				</circle>
				<circle fill="#FFFFFF" cx="104.779" cy="45.289" r="0.762">
				<title>Asnières — Gennevilliers — Les Courtilles</title>
				</circle>
				<circle fill="#FFFFFF" cx="98.014" cy="109.383" r="0.762">
				<title>Assemblée nationale</title>
				</circle>
				<circle fill="#FFFFFF" cx="181.284" cy="62.896" r="0.762">
				<title>Aubervilliers — Pantin — Quatre Chemins</title>
				</circle>
				<circle fill="#FFFFFF" cx="82.221" cy="137.029" r="0.761">
				<title>Avenue Émile-Zola</title>
				</circle>
				<circle fill="#FFFFFF" cx="204.986" cy="127.853" r="0.761">
				<title>Avron</title>
				</circle>
				<circle fill="#FFFFFF" cx="76.571" cy="150.627" r="0.761">
				<title>Balard</title>
				</circle>
				<circle fill="#FFFFFF" cx="148.868" cy="79.18" r="0.761">
				<title>Barbès — Rochechouart</title>
				</circle>
				<circle fill="#FFFFFF" cx="155.626" cy="32.428" r="0.762">
				<title>Basilique de Saint-Denis</title>
				</circle>
				<circle fill="#FFFFFF" cx="184.527" cy="130.283" r="0.762">
				<title>Bastille</title>
				</circle>
				<circle fill="#FFFFFF" cx="202.691" cy="144.046" r="0.761">
				<title>Bel-Air</title>
				</circle>
				<circle fill="#FFFFFF" cx="179.646" cy="92.324" r="0.761">
				<title>Belleville</title>
				</circle>
				<circle fill="#FFFFFF" cx="202.363" cy="130.689" r="0.762">
				<title>Bérault</title>
				</circle>
				<circle fill="#FFFFFF" cx="175.486" cy="141.779" r="0.762">
				<title>Bercy</title>
				</circle>
				<circle fill="#FFFFFF" cx="174.712" cy="159.252" r="0.762">
				<title>Bibliothèque François Mitterrand</title>
				</circle>
				<circle fill="#FFFFFF" cx="52.26" cy="151.039" r="0.762">
				<title>Billancourt</title>
				</circle>
				<circle fill="#FFFFFF" cx="79.518" cy="124.091" r="0.761">
				<title>Bir-Hakeim</title>
				</circle>
				<circle fill="#FFFFFF" cx="124.631" cy="59.055" r="0.762">
				<title>Blanche</title>
				</circle>
				<circle fill="#FFFFFF" cx="217.316" cy="66.25" r="0.761">
				<title>Bobigny — Pablo Picasso</title>
				</circle>
				<circle fill="#FFFFFF" cx="203.221" cy="75.502" r="0.762">
				<title>Bobigny — Pantin — Raymond Queneau</title>
				</circle>
				<circle fill="#FFFFFF" cx="85.771" cy="102.095" r="0.762">
				<title>Boissière</title>
				</circle>
				<circle fill="#FFFFFF" cx="187.421" cy="63.957" r="0.762">
				<title>Bolivar</title>
				</circle>
				<circle fill="#FFFFFF" cx="150.284" cy="74.154" r="0.762">
				<title>Bonne Nouvelle</title>
				</circle>
				<circle fill="#FFFFFF" cx="202.143" cy="70.91" r="0.762">
				<title>Botzaris</title>
				</circle>
				<circle fill="#FFFFFF" cx="81.271" cy="145.157" r="0.761">
				<title>Boucicaut</title>
				</circle>
				<circle fill="#FFFFFF" cx="56.396" cy="137.01" r="0.762">
				<title>Boulogne — Jean-Jaurès</title>
				</circle>
				<circle fill="#FFFFFF" cx="50.711" cy="138.37" r="0.761">
				<title>Boulogne — Pont de Saint-Cloud</title>
				</circle>
				<circle fill="#FFFFFF" cx="124.939" cy="67.221" r="0.762">
				<title>Bourse</title>
				</circle>
				<circle fill="#FFFFFF" cx="197.048" cy="122.762" r="0.762">
				<title>Bréguet — Sabin</title>
				</circle>
				<circle fill="#FFFFFF" cx="115.574" cy="62.807" r="0.761">
				<title>Brochant</title>
				</circle>
				<circle fill="#FFFFFF" cx="197.73" cy="68.901" r="0.762">
				<title>Buttes Chaumont</title>
				</circle>
				<circle fill="#FFFFFF" cx="211.357" cy="128.016" r="0.762">
				<title>Buzenval</title>
				</circle>
				<circle fill="#FFFFFF" cx="141.55" cy="77.5" r="0.762">
				<title>Cadet</title>
				</circle>
				<circle fill="#FFFFFF" cx="85.401" cy="138.283" r="0.761">
				<title>Cambronne</title>
				</circle>
				<circle fill="#FFFFFF" cx="163.225" cy="176.887" r="0.762">
				<title>Campo-Formio</title>
				</circle>
				<circle fill="#FFFFFF" cx="154.579" cy="167.871" r="0.762">
				<title>Cardinal Lemoine</title>
				</circle>
				<circle fill="#FFFFFF" cx="142.966" cy="35.223" r="0.762">
				<title>Carrefour Pleyel</title>
				</circle>
				<circle fill="#FFFFFF" cx="152.277" cy="162.512" r="0.762">
				<title>Censier — Daubenton</title>
				</circle>
				<circle fill="#FFFFFF" cx="113.564" cy="103.352" r="0.762">
				<title>Champs-Élysées — Clemenceau</title>
				</circle>
				<circle fill="#FFFFFF" cx="53.565" cy="139.191" r="0.762">
				<title>Chardon-Lagache</title>
				</circle>
				<circle fill="#FFFFFF" cx="206.857" cy="168.252" r="0.761">
				<title>Charenton — Écoles</title>
				</circle>
				<circle fill="#FFFFFF" cx="101.627" cy="96.946" r="0.761">
				<title>Charles de Gaulle — Étoile</title>
				</circle>
				<circle fill="#FFFFFF" cx="81.545" cy="135.489" r="0.761">
				<title>Charles Michels</title>
				</circle>
				<circle fill="#FFFFFF" cx="213.027" cy="124.592" r="0.762">
				<title>Charonne</title>
				</circle>
				<circle fill="#FFFFFF" cx="212.575" cy="132.163" r="0.762">
				<title>Château de Vincennes</title>
				</circle>
				<circle fill="#FFFFFF" cx="157.049" cy="87.35" r="0.762">
				<title>Château d&apos;Eau</title>
				</circle>
				<circle fill="#FFFFFF" cx="148.023" cy="67.98" r="0.762">
				<title>Château Rouge</title>
				</circle>
				<circle fill="#FFFFFF" cx="165.721" cy="73.311" r="0.762">
				<title>Château-Landon</title>
				</circle>
				<circle fill="#FFFFFF" cx="147.307" cy="117.906" r="0.762">
				<title>Châtelet</title>
				</circle>
				<circle fill="#FFFFFF" cx="101.281" cy="187.631" r="0.762">
				<title>Châtillon — Montrouge</title>
				</circle>
				<circle fill="#FFFFFF" cx="125.886" cy="84.045" r="0.761">
				<title>Chaussée d&apos;Antin — La Fayette</title>
				</circle>
				<circle fill="#FFFFFF" cx="198.887" cy="120.796" r="0.762">
				<title>Chemin Vert</title>
				</circle>
				<circle fill="#FFFFFF" cx="174.943" cy="167.319" r="0.762">
				<title>Chevaleret</title>
				</circle>
				<circle fill="#FFFFFF" cx="137.074" cy="129.484" r="0.762">
				<title>Cité</title>
				</circle>
				<circle fill="#FFFFFF" cx="129.674" cy="157.987" r="0.761">
				<title>Cluny — La Sorbonne</title>
				</circle>
				<circle fill="#FFFFFF" cx="185.798" cy="66.244" r="0.762">
				<title>Colonel Fabien</title>
				</circle>
				<circle fill="#FFFFFF" cx="82.86" cy="140.111" r="0.761">
				<title>Commerce</title>
				</circle>
				<circle fill="#FFFFFF" cx="115.957" cy="102.303" r="0.761">
				<title>Concorde</title>
				</circle>
				<circle fill="#FFFFFF" cx="96.105" cy="147.876" r="0.762">
				<title>Convention</title>
				</circle>
				<circle fill="#FFFFFF" cx="177.588" cy="66.236" r="0.762">
				<title>Corentin Cariou</title>
				</circle>
				<circle fill="#FFFFFF" cx="90.93" cy="155.466" r="0.762">
				<title>Corentin Celton</title>
				</circle>
				<circle fill="#FFFFFF" cx="149.891" cy="186.021" r="0.761">
				<title>Corvisart</title>
				</circle>
				<circle fill="#FFFFFF" cx="176.12" cy="146.281" r="0.762">
				<title>Cour Saint-Émilion</title>
				</circle>
				<circle fill="#FFFFFF" cx="98.356" cy="81.332" r="0.762">
				<title>Courcelles</title>
				</circle>
				<circle fill="#FFFFFF" cx="196.979" cy="88.564" r="0.761">
				<title>Couronnes</title>
				</circle>
				<circle fill="#FFFFFF" cx="213.191" cy="179.213" r="0.762">
				<title>Créteil — L&apos;Échat</title>
				</circle>
				<circle fill="#FFFFFF" cx="215.234" cy="190.53" r="0.761">
				<title>Créteil — Préfecture</title>
				</circle>
				<circle fill="#FFFFFF" cx="212.37" cy="183.619" r="0.762">
				<title>Créteil — Université</title>
				</circle>
				<circle fill="#FFFFFF" cx="175.361" cy="66.268" r="0.761">
				<title>Crimée</title>
				</circle>
				<circle fill="#FFFFFF" cx="231.734" cy="117.077" r="0.761">
				<title>Croix de Chavaux</title>
				</circle>
				<circle fill="#FFFFFF" cx="203.266" cy="72.234" r="0.762">
				<title>Danube</title>
				</circle>
				<circle fill="#FFFFFF" cx="195.703" cy="145.909" r="0.761">
				<title>Daumesnil</title>
				</circle>
				<circle fill="#FFFFFF" cx="127.301" cy="162.221" r="0.762">
				<title>Denfert-Rochereau</title>
				</circle>
				<circle fill="#FFFFFF" cx="187.73" cy="145.508" r="0.762">
				<title>Dugommier</title>
				</circle>
				<circle fill="#FFFFFF" cx="78.248" cy="131.384" r="0.761">
				<title>Dupleix</title>
				</circle>
				<circle fill="#FFFFFF" cx="95.7" cy="143.696" r="0.761">
				<title>Duroc</title>
				</circle>
				<circle fill="#FFFFFF" cx="89.407" cy="122.881" r="0.762">
				<title>École Militaire</title>
				</circle>
				<circle fill="#FFFFFF" cx="205.579" cy="169.232" r="0.762">
				<title>École Vétérinaire de Maisons-Alfort</title>
				</circle>
				<circle fill="#FFFFFF" cx="108.65" cy="158.449" r="0.762">
				<title>Edgar Quinet</title>
				</circle>
				<circle fill="#FFFFFF" cx="69.777" cy="133.133" r="0.762">
				<title>Église d&apos;Auteuil</title>
				</circle>
				<circle fill="#FFFFFF" cx="200.697" cy="72.078" r="0.762">
				<title>Église de Pantin</title>
				</circle>
				<circle fill="#FFFFFF" cx="88.886" cy="90.201" r="0.761">
				<title>Esplanade de la Défense</title>
				</circle>
				<circle fill="#FFFFFF" cx="152.486" cy="87.156" r="0.762">
				<title>Étienne Marcel</title>
				</circle>
				<circle fill="#FFFFFF" cx="113.611" cy="76.732" r="0.762">
				<title>Europe</title>
				</circle>
				<circle fill="#FFFFFF" cx="65.976" cy="138.775" r="0.762">
				<title>Exelmans</title>
				</circle>
				<circle fill="#FFFFFF" cx="199.977" cy="134.935" r="0.761">
				<title>Faidherbe — Chaligny</title>
				</circle>
				<circle fill="#FFFFFF" cx="103.038" cy="146.306" r="0.762">
				<title>Falguière</title>
				</circle>
				<circle fill="#FFFFFF" cx="81.919" cy="143.891" r="0.762">
				<title>Félix Faure</title>
				</circle>
				<circle fill="#FFFFFF" cx="192.54" cy="91.623" r="0.762">
				<title>Filles du Calvaire</title>
				</circle>
				<circle fill="#FFFFFF" cx="184.184" cy="59.912" r="0.762">
				<title>Fort d&apos;Aubervilliers</title>
				</circle>
				<circle fill="#FFFFFF" cx="111.073" cy="101.699" r="0.762">
				<title>Franklin D. Roosevelt</title>
				</circle>
				<circle fill="#FFFFFF" cx="107.336" cy="52.038" r="0.762">
				<title>Gabriel Péri</title>
				</circle>
				<circle fill="#FFFFFF" cx="110.417" cy="158.102" r="0.761">
				<title>Gaîté</title>
				</circle>
				<circle fill="#FFFFFF" cx="225.006" cy="104.928" r="0.762">
				<title>Gallieni</title>
				</circle>
				<circle fill="#FFFFFF" cx="209.243" cy="103.742" r="0.762">
				<title>Gambetta</title>
				</circle>
				<circle fill="#FFFFFF" cx="178.045" cy="161.158" r="0.762">
				<title>Gare d&apos;Austerlitz</title>
				</circle>
				<circle fill="#FFFFFF" cx="156.584" cy="87.891" r="0.762">
				<title>Gare de L&apos;Est</title>
				</circle>
				<circle fill="#FFFFFF" cx="176.122" cy="140.252" r="0.761">
				<title>Gare de Lyon</title>
				</circle>
				<circle fill="#FFFFFF" cx="154.809" cy="74.178" r="0.762">
				<title>Gare du Nord</title>
				</circle>
				<circle fill="#FFFFFF" cx="131.486" cy="48.723" r="0.762">
				<title>Garibaldi</title>
				</circle>
				<circle fill="#FFFFFF" cx="108.86" cy="100.354" r="0.762">
				<title>George V</title>
				</circle>
				<circle fill="#FFFFFF" cx="138.359" cy="183.829" r="0.762">
				<title>Glacière</title>
				</circle>
				<circle fill="#FFFFFF" cx="176.637" cy="92.643" r="0.762">
				<title>Goncourt</title>
				</circle>
				<circle fill="#FFFFFF" cx="139.834" cy="69.389" r="0.762">
				<title>Grands Boulevards</title>
				</circle>
				<circle fill="#FFFFFF" cx="123.366" cy="59.76" r="0.761">
				<title>Guy Môquet</title>
				</circle>
				<circle fill="#FFFFFF" cx="110.274" cy="73.724" r="0.761">
				<title>Havre — Caumartin</title>
				</circle>
				<circle fill="#FFFFFF" cx="196.579" cy="70.939" r="0.762">
				<title>Hoche</title>
				</circle>
				<circle fill="#FFFFFF" cx="158.023" cy="117.95" r="0.761">
				<title>Hôtel de Ville</title>
				</circle>
				<circle fill="#FFFFFF" cx="86.55" cy="106.312" r="0.762">
				<title>Iéna</title>
				</circle>
				<circle fill="#FFFFFF" cx="91.879" cy="109.863" r="0.762">
				<title>Invalides</title>
				</circle>
				<circle fill="#FFFFFF" cx="171.523" cy="77.533" r="0.762">
				<title>Jacques Bonsergent</title>
				</circle>
				<circle fill="#FFFFFF" cx="70.958" cy="125.917" r="0.761">
				<title>Jasmin</title>
				</circle>
				<circle fill="#FFFFFF" cx="176.486" cy="67.273" r="0.761">
				<title>Jaurès</title>
				</circle>
				<circle fill="#FFFFFF" cx="76.791" cy="135.201" r="0.762">
				<title>Javel — André-Citroën</title>
				</circle>
				<circle fill="#FFFFFF" cx="183.116" cy="94.421" r="0.761">
				<title>Jourdain</title>
				</circle>
				<circle fill="#FFFFFF" cx="142.501" cy="56.092" r="0.762">
				<title>Jules Joffrin</title>
				</circle>
				<circle fill="#FFFFFF" cx="162.15" cy="155.724" r="0.762">
				<title>Jussieu</title>
				</circle>
				<circle fill="#FFFFFF" cx="92.267" cy="97.445" r="0.762">
				<title>Kléber</title>
				</circle>
				<circle fill="#FFFFFF" cx="162.707" cy="62.502" r="0.762">
				<title>La Chapelle</title>
				</circle>
				<circle fill="#FFFFFF" cx="192.045" cy="48.182" r="0.762">
				<title>La Courneuve — 8 Mai 1945</title>
				</circle>
				<circle fill="#FFFFFF" cx="83.895" cy="87.956" r="0.762">
				<title>La Défense - Grande arche</title>
				</circle>
				<circle fill="#FFFFFF" cx="120.815" cy="66.498" r="0.762">
				<title>La Fourche</title>
				</circle>
				<circle fill="#FFFFFF" cx="80.059" cy="132.081" r="0.761">
				<title>La Motte-Picquet — Grenelle</title>
				</circle>
				<circle fill="#FFFFFF" cx="75.076" cy="117.578" r="0.762">
				<title>La Muette</title>
				</circle>
				<circle fill="#FFFFFF" cx="90.131" cy="117.516" r="0.762">
				<title>La Tour-Maubourg</title>
				</circle>
				<circle fill="#FFFFFF" cx="131.683" cy="48.007" r="0.762">
				<title>Lamarck — Caulaincourt</title>
				</circle>
				<circle fill="#FFFFFF" cx="179.75" cy="72.079" r="0.761">
				<title>Laumière</title>
				</circle>
				<circle fill="#FFFFFF" cx="156.372" cy="168.053" r="0.762">
				<title>Le Kremlin-Bicêtre</title>
				</circle>
				<circle fill="#FFFFFF" cx="132.085" cy="75.336" r="0.762">
				<title>Le Peletier</title>
				</circle>
				<circle fill="#FFFFFF" cx="198.125" cy="135.458" r="0.761">
				<title>Ledru-Rollin</title>
				</circle>
				<circle fill="#FFFFFF" cx="150.98" cy="153.2" r="0.761">
				<title>Les Gobelins</title>
				</circle>
				<circle fill="#FFFFFF" cx="136.908" cy="91.551" r="0.762">
				<title>Les Halles</title>
				</circle>
				<circle fill="#FFFFFF" cx="100.702" cy="96.162" r="0.762">
				<title>Les Sablons</title>
				</circle>
				<circle fill="#FFFFFF" cx="202.368" cy="163.419" r="0.762">
				<title>Liberté</title>
				</circle>
				<circle fill="#FFFFFF" cx="116.392" cy="70.475" r="0.762">
				<title>Liège</title>
				</circle>
				<circle fill="#FFFFFF" cx="168.859" cy="69.264" r="0.762">
				<title>Louis Blanc</title>
				</circle>
				<circle fill="#FFFFFF" cx="94.403" cy="75.893" r="0.762">
				<title>Louise Michel</title>
				</circle>
				<circle fill="#FFFFFF" cx="78.405" cy="147.384" r="0.762">
				<title>Lourmel</title>
				</circle>
				<circle fill="#FFFFFF" cx="121.693" cy="101.727" r="0.761">
				<title>Louvre — Rivoli</title>
				</circle>
				<circle fill="#FFFFFF" cx="110.498" cy="137.331" r="0.761">
				<title>Mabillon</title>
				</circle>
				<circle fill="#FFFFFF" cx="118.683" cy="94.271" r="0.761">
				<title>Madeleine</title>
				</circle>
				<circle fill="#FFFFFF" cx="109.566" cy="56.703" r="0.762">
				<title>Mairie de Clichy</title>
				</circle>
				<circle fill="#FFFFFF" cx="234.604" cy="111.068" r="0.762">
				<title>Mairie de Montreuil</title>
				</circle>
				<circle fill="#FFFFFF" cx="134.231" cy="46.916" r="0.761">
				<title>Mairie de Saint-Ouen</title>
				</circle>
				<circle fill="#FFFFFF" cx="195.337" cy="93.746" r="0.761">
				<title>Mairie des Lilas</title>
				</circle>
				<circle fill="#FFFFFF" cx="83.295" cy="160.87" r="0.761">
				<title>Mairie d&apos;Issy</title>
				</circle>
				<circle fill="#FFFFFF" cx="175.213" cy="174.932" r="0.761">
				<title>Mairie d&apos;Ivry</title>
				</circle>
				<circle fill="#FFFFFF" cx="156.499" cy="169.217" r="0.762">
				<title>Maison Blanche</title>
				</circle>
				<circle fill="#FFFFFF" cx="215.05" cy="175.867" r="0.762">
				<title>Maisons-Alfort — Les Juilliottes</title>
				</circle>
				<circle fill="#FFFFFF" cx="217.952" cy="178.011" r="0.762">
				<title>Maisons-Alfort — Stade</title>
				</circle>
				<circle fill="#FFFFFF" cx="96.138" cy="171.181" r="0.761">
				<title>Malakoff — Plateau de Vanves</title>
				</circle>
				<circle fill="#FFFFFF" cx="101.35" cy="175.795" r="0.761">
				<title>Malakoff — Rue Étienne-Dolet</title>
				</circle>
				<circle fill="#FFFFFF" cx="104.271" cy="74.792" r="0.762">
				<title>Malesherbes</title>
				</circle>
				<circle fill="#FFFFFF" cx="212.699" cy="125.852" r="0.762">
				<title>Maraîchers</title>
				</circle>
				<circle fill="#FFFFFF" cx="148.381" cy="69.764" r="0.762">
				<title>Marcadet — Poissonniers</title>
				</circle>
				<circle fill="#FFFFFF" cx="62.328" cy="147.111" r="0.762">
				<title>Marcel Sembat</title>
				</circle>
				<circle fill="#FFFFFF" cx="160.592" cy="55.966" r="0.761">
				<title>Marx-Dormoy</title>
				</circle>
				<circle fill="#FFFFFF" cx="143.47" cy="161.497" r="0.761">
				<title>Maubert — Mutualité</title>
				</circle>
				<circle fill="#FFFFFF" cx="201.393" cy="97.168" r="0.762">
				<title>Ménilmontant</title>
				</circle>
				<circle fill="#FFFFFF" cx="203.492" cy="150.557" r="0.761">
				<title>Michel Bizot</title>
				</circle>
				<circle fill="#FFFFFF" cx="67.206" cy="131.824" r="0.762">
				<title>Michel-Ange — Auteuil</title>
				</circle>
				<circle fill="#FFFFFF" cx="68.815" cy="134.951" r="0.761">
				<title>Michel-Ange — Molitor</title>
				</circle>
				<circle fill="#FFFFFF" cx="73.027" cy="133.631" r="0.762">
				<title>Mirabeau</title>
				</circle>
				<circle fill="#FFFFFF" cx="106.132" cy="88.52" r="0.762">
				<title>Miromesnil</title>
				</circle>
				<circle fill="#FFFFFF" cx="99.65" cy="76.882" r="0.761">
				<title>Monceau</title>
				</circle>
				<circle fill="#FFFFFF" cx="200.473" cy="143.914" r="0.762">
				<title>Montgallet</title>
				</circle>
				<circle fill="#FFFFFF" cx="115.57" cy="144.088" r="0.762">
				<title>Montparnasse — Bienvenüe</title>
				</circle>
				<circle fill="#FFFFFF" cx="128.557" cy="156.771" r="0.761">
				<title>Mouton-Duvernet</title>
				</circle>
				<circle fill="#FFFFFF" cx="195.419" cy="132.105" r="0.761">
				<title>Nation</title>
				</circle>
				<circle fill="#FFFFFF" cx="164.826" cy="164.562" r="0.762">
				<title>Nationale</title>
				</circle>
				<circle fill="#FFFFFF" cx="126.963" cy="68.34" r="0.761">
				<title>Notre-Dame-de-Lorette</title>
				</circle>
				<circle fill="#FFFFFF" cx="110.293" cy="154.037" r="0.761">
				<title>Notre-Dame-des-Champs</title>
				</circle>
				<circle fill="#FFFFFF" cx="199.208" cy="90.043" r="0.761">
				<title>Oberkampf</title>
				</circle>
				<circle fill="#FFFFFF" cx="121.921" cy="138.928" r="0.761">
				<title>Odéon</title>
				</circle>
				<circle fill="#FFFFFF" cx="165.742" cy="161.631" r="0.762">
				<title>Olympiades</title>
				</circle>
				<circle fill="#FFFFFF" cx="124.213" cy="90.047" r="0.762">
				<title>Opéra</title>
				</circle>
				<circle fill="#FFFFFF" cx="188.605" cy="67.854" r="0.762">
				<title>Ourcq</title>
				</circle>
				<circle fill="#FFFFFF" cx="123.779" cy="102.976" r="0.761">
				<title>Palais Royal — Musée du Louvre</title>
				</circle>
				<circle fill="#FFFFFF" cx="201.678" cy="92.578" r="0.762">
				<title>Parmentier</title>
				</circle>
				<circle fill="#FFFFFF" cx="87.698" cy="117.977" r="0.762">
				<title>Passy</title>
				</circle>
				<circle fill="#FFFFFF" cx="102.58" cy="145.404" r="0.762">
				<title>Pasteur</title>
				</circle>
				<circle fill="#FFFFFF" cx="209.707" cy="97.843" r="0.761">
				<title>Pelleport</title>
				</circle>
				<circle fill="#FFFFFF" cx="205.818" cy="105.361" r="0.762">
				<title>Père Lachaise</title>
				</circle>
				<circle fill="#FFFFFF" cx="89.333" cy="69.752" r="0.762">
				<title>Pereire</title>
				</circle>
				<circle fill="#FFFFFF" cx="111.721" cy="159.323" r="0.762">
				<title>Pernety</title>
				</circle>
				<circle fill="#FFFFFF" cx="214.616" cy="116.623" r="0.762">
				<title>Philippe Auguste</title>
				</circle>
				<circle fill="#FFFFFF" cx="202.798" cy="138.087" r="0.761">
				<title>Picpus</title>
				</circle>
				<circle fill="#FFFFFF" cx="172.495" cy="172.807" r="0.762">
				<title>Pierre et Marie Curie</title>
				</circle>
				<circle fill="#FFFFFF" cx="129.358" cy="58.324" r="0.762">
				<title>Pigalle</title>
				</circle>
				<circle fill="#FFFFFF" cx="119.504" cy="65.655" r="0.761">
				<title>Place de Clichy</title>
				</circle>
				<circle fill="#FFFFFF" cx="189.607" cy="89.66" r="0.762">
				<title>Place des Fêtes</title>
				</circle>
				<circle fill="#FFFFFF" cx="155.057" cy="162.541" r="0.762">
				<title>Place d&apos;Italie</title>
				</circle>
				<circle fill="#FFFFFF" cx="152.979" cy="153.502" r="0.761">
				<title>Place Monge</title>
				</circle>
				<circle fill="#FFFFFF" cx="100.274" cy="170.615" r="0.762">
				<title>Plaisance</title>
				</circle>
				<circle fill="#FFFFFF" cx="146.492" cy="66.018" r="0.762">
				<title>Poissonnière</title>
				</circle>
				<circle fill="#FFFFFF" cx="84.929" cy="62.469" r="0.762">
				<title>Pont de Levallois — Bécon</title>
				</circle>
				<circle fill="#FFFFFF" cx="92.356" cy="92.157" r="0.761">
				<title>Pont de Neuilly</title>
				</circle>
				<circle fill="#FFFFFF" cx="51.694" cy="152.104" r="0.761">
				<title>Pont de Sèvres</title>
				</circle>
				<circle fill="#FFFFFF" cx="169.008" cy="133.85" r="0.762">
				<title>Pont Marie</title>
				</circle>
				<circle fill="#FFFFFF" cx="121.725" cy="111.713" r="0.761">
				<title>Pont-Neuf</title>
				</circle>
				<circle fill="#FFFFFF" cx="79.346" cy="97.786" r="0.761">
				<title>Porte Dauphine</title>
				</circle>
				<circle fill="#FFFFFF" cx="61.389" cy="131.619" r="0.762">
				<title>Porte d&apos;Auteuil</title>
				</circle>
				<circle fill="#FFFFFF" cx="214.391" cy="105.553" r="0.762">
				<title>Porte de Bagnolet</title>
				</circle>
				<circle fill="#FFFFFF" cx="90.994" cy="74.104" r="0.762">
				<title>Porte de Champerret</title>
				</circle>
				<circle fill="#FFFFFF" cx="205.626" cy="160.443" r="0.761">
				<title>Porte de Charenton</title>
				</circle>
				<circle fill="#FFFFFF" cx="164.768" cy="178.119" r="0.762">
				<title>Porte de Choisy</title>
				</circle>
				<circle fill="#FFFFFF" cx="111.774" cy="61.441" r="0.762">
				<title>Porte de Clichy</title>
				</circle>
				<circle fill="#FFFFFF" cx="143.603" cy="61.786" r="0.761">
				<title>Porte de Clignancourt</title>
				</circle>
				<circle fill="#FFFFFF" cx="158.623" cy="51.305" r="0.762">
				<title>Porte de la Chapelle</title>
				</circle>
				<circle fill="#FFFFFF" cx="180.5" cy="63.84" r="0.761">
				<title>Porte de la Villette</title>
				</circle>
				<circle fill="#FFFFFF" cx="215.947" cy="124.005" r="0.761">
				<title>Porte de Montreuil</title>
				</circle>
				<circle fill="#FFFFFF" cx="190.344" cy="70.66" r="0.762">
				<title>Porte de Pantin</title>
				</circle>
				<circle fill="#FFFFFF" cx="63.748" cy="144.711" r="0.762">
				<title>Porte de Saint-Cloud</title>
				</circle>
				<circle fill="#FFFFFF" cx="126.259" cy="55.683" r="0.761">
				<title>Porte de Saint-Ouen</title>
				</circle>
				<circle fill="#FFFFFF" cx="99.791" cy="167.494" r="0.762">
				<title>Porte de Vanves</title>
				</circle>
				<circle fill="#FFFFFF" cx="85.649" cy="156.512" r="0.762">
				<title>Porte de Versailles</title>
				</circle>
				<circle fill="#FFFFFF" cx="194.605" cy="130.326" r="0.762">
				<title>Porte de Vincennes</title>
				</circle>
				<path fill="#FFFFFF" d="M191.758,94.102c0.422,0,0.764,0.341,0.764,0.762c0,0.42-0.342,0.762-0.764,0.762
					c-0.419,0-0.759-0.342-0.759-0.762C190.999,94.442,191.339,94.102,191.758,94.102z				">
<title>Porte des Lilas</title>
				</path>
				<circle fill="#FFFFFF" cx="157.436" cy="167.467" r="0.762">
				<title>Porte d&apos;Italie</title>
				</circle>
				<circle fill="#FFFFFF" cx="168.354" cy="172.173" r="0.761">
				<title>Porte d&apos;Ivry</title>
				</circle>
				<circle fill="#FFFFFF" cx="206.062" cy="152.274" r="0.761">
				<title>Porte Dorée</title>
				</circle>
				<circle fill="#FFFFFF" cx="125.824" cy="165.453" r="0.762">
				<title>Porte d&apos;Orléans</title>
				</circle>
				<circle fill="#FFFFFF" cx="95.709" cy="93.707" r="0.761">
				<title>Porte Maillot</title>
				</circle>
				<circle fill="#FFFFFF" cx="204.516" cy="78.324" r="0.762">
				<title>Pré-Saint-Gervais</title>
				</circle>
				<circle fill="#FFFFFF" cx="121.481" cy="94.814" r="0.762">
				<title>Pyramides</title>
				</circle>
				<circle fill="#FFFFFF" cx="183.406" cy="93.173" r="0.762">
				<title>Pyrénées</title>
				</circle>
				<circle fill="#FFFFFF" cx="178.991" cy="159.122" r="0.762">
				<title>Quai de La Gare</title>
				</circle>
				<circle fill="#FFFFFF" cx="186.557" cy="156.539" r="0.762">
				<title>Quai de La Rapée</title>
				</circle>
				<circle fill="#FFFFFF" cx="116.762" cy="72.23" r="0.762">
				<title>Quatre-Septembre</title>
				</circle>
				<circle fill="#FFFFFF" cx="163.116" cy="96.454" r="0.761">
				<title>Rambuteau</title>
				</circle>
				<circle fill="#FFFFFF" cx="68.479" cy="121.645" r="0.762">
				<title>Ranelagh</title>
				</circle>
				<circle fill="#FFFFFF" cx="123.092" cy="154.691" r="0.762">
				<title>Raspail</title>
				</circle>
				<circle fill="#FFFFFF" cx="154.882" cy="88.912" r="0.761">
				<title>Réaumur — Sébastopol</title>
				</circle>
				<circle fill="#FFFFFF" cx="110.158" cy="142.733" r="0.762">
				<title>Rennes</title>
				</circle>
				<circle fill="#FFFFFF" cx="172.771" cy="92.859" r="0.762">
				<title>République</title>
				</circle>
				<circle fill="#FFFFFF" cx="187.848" cy="135.109" r="0.762">
				<title>Reuilly — Diderot</title>
				</circle>
				<circle fill="#FFFFFF" cx="199.174" cy="110.074" r="0.762">
				<title>Richard-Lenoir</title>
				</circle>
				<circle fill="#FFFFFF" cx="125.34" cy="70.322" r="0.762">
				<title>Richelieu — Drouot</title>
				</circle>
				<circle fill="#FFFFFF" cx="173.861" cy="68.168" r="0.761">
				<title>Riquet</title>
				</circle>
				<circle fill="#FFFFFF" cx="220.33" cy="120.594" r="0.762">
				<title>Robespierre</title>
				</circle>
				<circle fill="#FFFFFF" cx="109.084" cy="63.97" r="0.762">
				<title>Rome</title>
				</circle>
				<circle fill="#FFFFFF" cx="86.142" cy="109.365" r="0.762">
				<title>Rue de la Pompe</title>
				</circle>
				<circle fill="#FFFFFF" cx="209.585" cy="130.949" r="0.762">
				<title>Rue des Boulets</title>
				</circle>
				<circle fill="#FFFFFF" cx="93.027" cy="124.29" r="0.761">
				<title>Rue du Bac</title>
				</circle>
				<circle fill="#FFFFFF" cx="208.646" cy="97.018" r="0.762">
				<title>Rue Saint-Maur</title>
				</circle>
				<circle fill="#FFFFFF" cx="209.247" cy="103.76" r="0.762">
				<title>Saint-Ambroise</title>
				</circle>
				<circle fill="#FFFFFF" cx="107.414" cy="79.527" r="0.761">
				<title>Saint-Augustin</title>
				</circle>
				<circle fill="#FFFFFF" cx="154.115" cy="32.856" r="0.762">
				<title>Saint-Denis — Porte de Paris</title>
				</circle>
				<circle fill="#FFFFFF" cx="157.288" cy="27.053" r="0.762">
				<title>Saint-Denis — Université</title>
				</circle>
				<circle fill="#FFFFFF" cx="205.758" cy="94.596" r="0.762">
				<title>Saint-Fargeau</title>
				</circle>
				<circle fill="#FFFFFF" cx="93.811" cy="130.994" r="0.761">
				<title>Saint-François-Xavier</title>
				</circle>
				<circle fill="#FFFFFF" cx="127.146" cy="62.208" r="0.762">
				<title>Saint-Georges</title>
				</circle>
				<circle fill="#FFFFFF" cx="117.982" cy="128.513" r="0.761">
				<title>Saint-Germain-des-Prés</title>
				</circle>
				<circle fill="#FFFFFF" cx="130.817" cy="169.963" r="0.762">
				<title>Saint-Jacques</title>
				</circle>
				<circle fill="#FFFFFF" cx="122.091" cy="87.982" r="0.762">
				<title>Saint-Lazare</title>
				</circle>
				<circle fill="#FFFFFF" cx="202.582" cy="131.39" r="0.762">
				<title>Saint-Mandé</title>
				</circle>
				<circle fill="#FFFFFF" cx="167.757" cy="170.599" r="0.761">
				<title>Saint-Marcel</title>
				</circle>
				<circle fill="#FFFFFF" cx="129.678" cy="138.57" r="0.762">
				<title>Saint-Michel</title>
				</circle>
				<circle fill="#FFFFFF" cx="176.672" cy="126.424" r="0.762">
				<title>Saint-Paul</title>
				</circle>
				<circle fill="#FFFFFF" cx="97.075" cy="89.529" r="0.762">
				<title>Saint-Philippe-du-Roule</title>
				</circle>
				<circle fill="#FFFFFF" cx="118.647" cy="138.989" r="0.761">
				<title>Saint-Placide</title>
				</circle>
				<circle fill="#FFFFFF" cx="199.968" cy="104.949" r="0.762">
				<title>Saint-Sébastien — Froissart</title>
				</circle>
				<path fill="#FFFFFF" d="M117.804,132.659c0.421,0,0.759,0.341,0.759,0.762s-0.338,0.761-0.759,0.761
					c-0.422,0-0.763-0.34-0.763-0.761S117.382,132.659,117.804,132.659z				">
<title>Saint-Sulpice</title>
				</path>
				<circle fill="#FFFFFF" cx="93.7" cy="137.391" r="0.761">
				<title>Ségur</title>
				</circle>
				<circle fill="#FFFFFF" cx="140.187" cy="74.729" r="0.762">
				<title>Sentier</title>
				</circle>
				<circle fill="#FFFFFF" cx="101.744" cy="136.525" r="0.762">
				<title>Sèvres — Babylone</title>
				</circle>
				<circle fill="#FFFFFF" cx="91.435" cy="143.442" r="0.762">
				<title>Sèvres — Lecourbe</title>
				</circle>
				<circle fill="#FFFFFF" cx="146.695" cy="71.111" r="0.762">
				<title>Simplon</title>
				</circle>
				<circle fill="#FFFFFF" cx="95.277" cy="115.581" r="0.761">
				<title>Solférino</title>
				</circle>
				<circle fill="#FFFFFF" cx="167.919" cy="68.301" r="0.762">
				<title>Stalingrad</title>
				</circle>
				<path fill="#FFFFFF" d="M157.02,82.092c0.422,0,0.764,0.342,0.764,0.762c0,0.421-0.342,0.763-0.764,0.763
					c-0.42,0-0.761-0.342-0.761-0.763C156.259,82.434,156.6,82.092,157.02,82.092z				">
<title>Strasbourg — Saint-Denis</title>
				</path>
				<circle fill="#FFFFFF" cx="170.438" cy="134.343" r="0.762">
				<title>Sully — Morland</title>
				</circle>
				<circle fill="#FFFFFF" cx="194.342" cy="91.961" r="0.762">
				<title>Télégraphe</title>
				</circle>
				<circle fill="#FFFFFF" cx="177.682" cy="82.362" r="0.762">
				<title>Temple</title>
				</circle>
				<circle fill="#FFFFFF" cx="97.849" cy="86.952" r="0.761">
				<title>Ternes</title>
				</circle>
				<circle fill="#FFFFFF" cx="156.688" cy="168.042" r="0.761">
				<title>Tolbiac</title>
				</circle>
				<circle fill="#FFFFFF" cx="123.211" cy="74.067" r="0.761">
				<title>Trinité — d&apos;Estienne-d&apos;Orves</title>
				</circle>
				<circle fill="#FFFFFF" cx="78.809" cy="108.13" r="0.761">
				<title>Trocadéro</title>
				</circle>
				<circle fill="#FFFFFF" cx="120.442" cy="103.014" r="0.762">
				<title>Tuileries</title>
				</circle>
				<circle fill="#FFFFFF" cx="98.189" cy="141.229" r="0.761">
				<title>Vaneau</title>
				</circle>
				<circle fill="#FFFFFF" cx="95.026" cy="120.842" r="0.761">
				<title>Varenne</title>
				</circle>
				<circle fill="#FFFFFF" cx="89.88" cy="150.746" r="0.762">
				<title>Vaugirard</title>
				</circle>
				<circle fill="#FFFFFF" cx="122.174" cy="147.103" r="0.762">
				<title>Vavin</title>
				</circle>
				<circle fill="#FFFFFF" cx="90.298" cy="101.145" r="0.762">
				<title>Victor Hugo</title>
				</circle>
				<circle fill="#FFFFFF" cx="157.762" cy="174.737" r="0.762">
				<title>Villejuif — Léo Lagrange</title>
				</circle>
				<circle fill="#FFFFFF" cx="158.527" cy="182.152" r="0.761">
				<title>Villejuif — Louis Aragon</title>
				</circle>
				<circle fill="#FFFFFF" cx="159.576" cy="177.192" r="0.762">
				<title>Villejuif — Paul Vaillant-Couturier</title>
				</circle>
				<circle fill="#FFFFFF" cx="104.443" cy="72.666" r="0.762">
				<title>Villiers</title>
				</circle>
				<circle fill="#FFFFFF" cx="98.925" cy="146.584" r="0.762">
				<title>Volontaires</title>
				</circle>
				<circle fill="#FFFFFF" cx="209.059" cy="116.977" r="0.762">
				<title>Voltaire</title>
				</circle>
				<circle fill="#FFFFFF" cx="97.952" cy="73.854" r="0.761">
				<title>Wagram</title>
				</circle>
			</g>
		</g>
	</g>
</g>
</svg>
