<?xml version="1.0" encoding="UTF-8"?>
<svg width="300px" height="225px" viewBox="0 0 300 225" version="1.1" xmlns="http://www.w3.org/2000/svg" xmlns:xlink="http://www.w3.org/1999/xlink">
    <!-- Generator: Sketch 45 (43475) - http://www.bohemiancoding.com/sketch -->
    <title>__regular</title>
    <desc>Created with Sketch.</desc>
    <defs></defs>
    <g id="Page-1" stroke="none" stroke-width="1" fill="none" fill-rule="evenodd">
        <g id="__regular">
            <g id="bubbles" transform="translate(46.000000, 9.000000)">
                <g id="Business-and-finance" transform="translate(177.487453, 107.213057)" fill="#F47395" opacity="0.850000024">
                    <path d="M29.7462652,2.92063156 C29.7462652,4.36774376 28.57706,5.54022153 27.1339869,5.54022153 C25.6909139,5.54022153 24.516442,4.36774376 24.516442,2.92063156 C24.516442,1.46823793 25.6909139,0.295760158 27.1339869,0.295760158 C28.57706,0.295760158 29.7462652,1.46823793 29.7462652,2.92063156 Z" id="Fill-5"></path>
                    <path d="M29.5987979,10.0241568 C29.5987979,11.814562 28.1557248,13.2616742 26.3703169,13.2616742 C24.5901757,13.2616742 23.1471026,11.814562 23.1471026,10.0241568 C23.1471026,8.23903297 24.5901757,6.79192077 26.3703169,6.79192077 C28.1557248,6.79192077 29.5987979,8.23903297 29.5987979,10.0241568 Z" id="Fill-8"></path>
                    <path d="M27.6975228,17.0590234 C27.6975228,18.4955727 26.538851,19.6522062 25.111578,19.6522062 C23.6790383,19.6522062 22.5256332,18.4955727 22.5256332,17.0590234 C22.5256332,15.6277555 23.6790383,14.4658406 25.111578,14.4658406 C26.538851,14.4658406 27.6975228,15.6277555 27.6975228,17.0590234 Z" id="Fill-11"></path>
                    <path d="M27.2129873,23.9882614 C27.2129873,26.1272411 25.4802463,27.8595506 23.3525035,27.8595506 C21.219494,27.8595506 19.4920197,26.1272411 19.4920197,23.9882614 C19.4920197,21.8492817 21.219494,20.1169722 23.3525035,20.1169722 C25.4802463,20.1169722 27.2129873,21.8492817 27.2129873,23.9882614 Z" id="Fill-14"></path>
                    <path d="M24.8324434,30.7696193 C24.8324434,32.834659 23.1629027,34.5088727 21.1036269,34.5088727 C19.0443511,34.5088727 17.3748103,32.834659 17.3748103,30.7696193 C17.3748103,28.7045796 19.0443511,27.0303659 21.1036269,27.0303659 C23.1629027,27.0303659 24.8324434,28.7045796 24.8324434,30.7696193 Z" id="Fill-17"></path>
                    <path d="M21.3880281,37.37669 C21.3880281,39.0456223 20.0397555,40.3923873 18.3807481,40.3923873 C16.7217408,40.3923873 15.3734681,39.0456223 15.3734681,37.37669 C15.3734681,35.7130391 16.7217408,34.3662741 18.3807481,34.3662741 C20.0397555,34.3662741 21.3880281,35.7130391 21.3880281,37.37669 Z" id="Fill-20"></path>
                    <path d="M19.1180847,43.7725034 C19.1180847,45.9431717 17.364277,47.7071698 15.1944007,47.7071698 C13.0297911,47.7071698 11.2759833,45.9431717 11.2759833,43.7725034 C11.2759833,41.6018351 13.0297911,39.8431184 15.1944007,39.8431184 C17.364277,39.8431184 19.1180847,41.6018351 19.1180847,43.7725034 Z" id="Fill-23"></path>
                    <path d="M15.2312675,49.9253709 C15.2312675,51.9534406 13.5880602,53.5959658 11.5656513,53.5959658 C9.5432423,53.5959658 7.9053017,51.9534406 7.9053017,49.9253709 C7.9053017,47.8973013 9.5432423,46.2547761 11.5656513,46.2547761 C13.5880602,46.2547761 15.2312675,47.8973013 15.2312675,49.9253709 Z" id="Fill-26"></path>
                    <path d="M11.2443832,55.8036041 C11.2443832,57.8686438 9.56957575,59.5481389 7.51029995,59.5481389 C5.44575747,59.5481389 3.77621674,57.8686438 3.77621674,55.8036041 C3.77621674,53.733283 5.44575747,52.0590692 7.51029995,52.0590692 C9.56957575,52.0590692 11.2443832,53.733283 11.2443832,55.8036041 Z" id="Fill-29"></path>
                    <path d="M5.95135971,61.3755142 C5.95135971,62.9863508 4.65048728,64.2908643 3.04414683,64.2908643 C1.43780637,64.2908643 0.13693394,62.9863508 0.13693394,61.3755142 C0.13693394,59.7646776 1.43780637,58.4601641 3.04414683,58.4601641 C4.65048728,58.4601641 5.95135971,59.7646776 5.95135971,61.3755142 Z" id="Fill-32"></path>
                </g>
                <g id="Electronics" transform="translate(122.713877, 130.979499)" fill="#D1BC90" opacity="0.850000024">
                    <path d="M57.4806548,42.8482529 C57.4806548,45.3463699 55.4635125,47.3744396 52.9671014,47.3744396 C50.475957,47.3744396 48.4535481,45.3463699 48.4535481,42.8482529 C48.4535481,40.3448544 50.475957,38.3220662 52.9671014,38.3220662 C55.4635125,38.3220662 57.4806548,40.3448544 57.4806548,42.8482529 Z" id="Fill-35"></path>
                    <path d="M51.8031629,47.7282955 C51.8031629,49.9676224 49.9914216,51.7844348 47.758345,51.7844348 C45.5252684,51.7844348 43.7135271,49.9676224 43.7135271,47.7282955 C43.7135271,45.4889686 45.5252684,43.6721562 47.758345,43.6721562 C49.9914216,43.6721562 51.8031629,45.4889686 51.8031629,47.7282955 Z" id="Fill-38"></path>
                    <path d="M19.8659547,9.97134247 C19.8659547,15.3848096 15.4893353,19.7736791 10.0909781,19.7736791 C4.6926208,19.7736791 0.316001401,15.3848096 0.316001401,9.97134247 C0.316001401,4.55787529 4.6926208,0.169005805 10.0909781,0.169005805 C15.4893353,0.169005805 19.8659547,4.55787529 19.8659547,9.97134247 Z" id="Fill-41"></path>
                    <path d="M40.1743114,56.3106215 C40.1743114,58.4179126 38.4731705,60.1290964 36.3717612,60.1290964 C34.2703519,60.1290964 32.5639443,58.4179126 32.5639443,56.3106215 C32.5639443,54.2033304 34.2703519,52.497428 36.3717612,52.497428 C38.4731705,52.497428 40.1743114,54.2033304 40.1743114,56.3106215 Z" id="Fill-44"></path>
                    <path d="M33.7858164,59.9706535 C33.7858164,61.9300645 32.2005427,63.5197753 30.2466007,63.5197753 C28.2926587,63.5197753 26.7126517,61.9300645 26.7126517,59.9706535 C26.7126517,58.0165238 28.2926587,56.426813 30.2466007,56.426813 C32.2005427,56.426813 33.7858164,58.0165238 33.7858164,59.9706535 Z" id="Fill-47"></path>
                    <path d="M27.9661239,63.1870452 C27.9661239,65.4474978 26.1333158,67.2801545 23.8791725,67.2801545 C21.6250292,67.2801545 19.7974877,65.4474978 19.7974877,63.1870452 C19.7974877,60.9265925 21.6250292,59.0939358 23.8791725,59.0939358 C26.1333158,59.0939358 27.9661239,60.9265925 27.9661239,63.1870452 Z" id="Fill-50"></path>
                    <path d="M20.8402924,65.9386709 C20.8402924,67.898082 19.2550187,69.4877928 17.3010767,69.4877928 C15.3471347,69.4877928 13.761861,67.898082 13.761861,65.9386709 C13.761861,63.9792599 15.3471347,62.389549 17.3010767,62.389549 C19.2550187,62.389549 20.8402924,63.9792599 20.8402924,65.9386709 Z" id="Fill-53"></path>
                </g>
                <g id="Entertainment" transform="translate(85.847047, 190.131530)" fill="#FE9A7E" opacity="0.850000024">
                    <path d="M51.2343604,9.06293627 C51.2343604,11.1807903 49.5226862,12.8972555 47.4107435,12.8972555 C45.2988008,12.8972555 43.5871265,11.1807903 43.5871265,9.06293627 C43.5871265,6.94508228 45.2988008,5.22861708 47.4107435,5.22861708 C49.5226862,5.22861708 51.2343604,6.94508228 51.2343604,9.06293627 Z" id="Fill-56"></path>
                    <path d="M45.1355334,10.8480601 C45.1355334,13.4095543 43.0657242,15.4904383 40.5113796,15.4904383 C37.9517682,15.4904383 35.881959,13.4095543 35.881959,10.8480601 C35.881959,8.28656585 37.9517682,6.21096332 40.5113796,6.21096332 C43.0657242,6.21096332 45.1355334,8.28656585 45.1355334,10.8480601 Z" id="Fill-59"></path>
                    <path d="M37.6937004,5.27086853 C37.6937004,8.18093723 35.3447567,10.5364556 32.4428105,10.5364556 C29.546131,10.5364556 27.1971872,8.18093723 27.1971872,5.27086853 C27.1971872,2.36608126 29.546131,0.0105628628 32.4428105,0.0105628628 C35.3447567,0.0105628628 37.6937004,2.36608126 37.6937004,5.27086853 Z" id="Fill-62"></path>
                    <path d="M29.6356647,12.9236626 C29.6356647,14.7087864 28.1925916,16.1558986 26.4124504,16.1558986 C24.6323092,16.1558986 23.1892361,14.7087864 23.1892361,12.9236626 C23.1892361,11.1385388 24.6323092,9.69670804 26.4124504,9.69670804 C28.1925916,9.69670804 29.6356647,11.1385388 29.6356647,12.9236626 Z" id="Fill-65"></path>
                    <path d="M23.2471697,13.2035785 C23.2471697,15.3953725 21.4775619,17.1699335 19.2918855,17.1699335 C17.1062092,17.1699335 15.3313346,15.3953725 15.3313346,13.2035785 C15.3313346,11.0117845 17.1062092,9.23194207 19.2918855,9.23194207 C21.4775619,9.23194207 23.2471697,11.0117845 23.2471697,13.2035785 Z" id="Fill-68"></path>
                    <path d="M16.5163399,12.9711955 C16.5163399,15.3848096 14.5676646,17.3389393 12.1660539,17.3389393 C9.75917659,17.3389393 7.81050128,15.3848096 7.81050128,12.9711955 C7.81050128,10.5628628 9.75917659,8.60873317 12.1660539,8.60873317 C14.5676646,8.60873317 16.5163399,10.5628628 16.5163399,12.9711955 Z" id="Fill-71"></path>
                    <path d="M10.143645,12.2317951 C10.143645,15.0415166 7.87370156,17.3178135 5.07708917,17.3178135 C2.27521008,17.3178135 0.00526669001,15.0415166 0.00526669001,12.2317951 C0.00526669001,9.42735503 2.27521008,7.1510581 5.07708917,7.1510581 C7.87370156,7.1510581 10.143645,9.42735503 10.143645,12.2317951 Z" id="Fill-74"></path>
                </g>
                <g id="Home-and-Lifestyle" transform="translate(0.000000, 44.892167)" fill="#7D5BBF" opacity="0.850000024">
                    <path d="M13.3247257,86.9429236 C13.3247257,89.3618192 11.3707837,91.3159488 8.9639064,91.3159488 C6.55702906,91.3159488 4.60308707,89.3618192 4.60308707,86.9429236 C4.60308707,84.5293094 6.55702906,82.5698984 8.9639064,82.5698984 C11.3707837,82.5698984 13.3247257,84.5293094 13.3247257,86.9429236 Z" id="Fill-122"></path>
                    <path d="M9.92244398,80.0295299 C9.92244398,81.5558636 8.68477183,82.7969999 7.15743172,82.7969999 C5.63535831,82.7969999 4.39768616,81.5558636 4.39768616,80.0295299 C4.39768616,78.4979148 5.63535831,77.2567784 7.15743172,77.2567784 C8.68477183,77.2567784 9.92244398,78.4979148 9.92244398,80.0295299 Z" id="Fill-125"></path>
                    <path d="M9.93297736,72.9999447 C9.93297736,75.2603973 8.10543592,77.093054 5.8512926,77.093054 C3.59714928,77.093054 1.76960784,75.2603973 1.76960784,72.9999447 C1.76960784,70.7394921 3.59714928,68.9068354 5.8512926,68.9068354 C8.10543592,68.9068354 9.93297736,70.7394921 9.93297736,72.9999447 Z" id="Fill-128"></path>
                    <path d="M7.44183298,65.9017009 C7.44183298,67.2273402 6.36742822,68.3047522 5.04548903,68.3047522 C3.71828315,68.3047522 2.64387838,67.2273402 2.64387838,65.9017009 C2.64387838,64.5707802 3.71828315,63.4933682 5.04548903,63.4933682 C6.36742822,63.4933682 7.44183298,64.5707802 7.44183298,65.9017009 Z" id="Fill-131"></path>
                    <path d="M8.3266369,58.7559242 C8.3266369,60.7417424 6.72556314,62.352579 4.74002101,62.352579 C2.75974556,62.352579 1.15340511,60.7417424 1.15340511,58.7559242 C1.15340511,56.770106 2.75974556,55.1592695 4.74002101,55.1592695 C6.72556314,55.1592695 8.3266369,56.770106 8.3266369,58.7559242 Z" id="Fill-134"></path>
                    <path d="M9.65910948,51.6101476 C9.65910948,54.2191747 7.55243347,56.3370287 4.95068861,56.3370287 C2.34894374,56.3370287 0.23700105,54.2191747 0.23700105,51.6101476 C0.23700105,49.0011205 2.34894374,46.8885479 4.95068861,46.8885479 C7.55243347,46.8885479 9.65910948,49.0011205 9.65910948,51.6101476 Z" id="Fill-137"></path>
                    <path d="M8.81117239,44.5013409 C8.81117239,46.2442133 7.40496615,47.6596369 5.66169176,47.6596369 C3.92368406,47.6596369 2.51221113,46.2442133 2.51221113,44.5013409 C2.51221113,42.7531871 3.92368406,41.3430449 5.66169176,41.3430449 C7.40496615,41.3430449 8.81117239,42.7531871 8.81117239,44.5013409 Z" id="Fill-140"></path>
                    <path d="M41.880719,42.7373428 C41.880719,46.6614463 38.7049049,49.8461495 34.7917542,49.8461495 C30.8786035,49.8461495 27.7080561,46.6614463 27.7080561,42.7373428 C27.7080561,38.8132393 30.8786035,35.6285362 34.7917542,35.6285362 C38.7049049,35.6285362 41.880719,38.8132393 41.880719,42.7373428 Z" id="Fill-143"></path>
                    <path d="M12.2187208,30.5161106 C12.2187208,32.5230545 10.5965803,34.1550168 8.5952381,34.1550168 C6.59389589,34.1550168 4.96648868,32.5230545 4.96648868,30.5161106 C4.96648868,28.5091667 6.59389589,26.8824858 8.5952381,26.8824858 C10.5965803,26.8824858 12.2187208,28.5091667 12.2187208,30.5161106 Z" id="Fill-146"></path>
                    <path d="M13.3457925,23.7189084 C13.3457925,25.134332 12.2029208,26.2804026 10.7967145,26.2804026 C9.3852416,26.2804026 8.24236986,25.134332 8.24236986,23.7189084 C8.24236986,22.3034848 9.3852416,21.1574142 10.7967145,21.1574142 C12.2029208,21.1574142 13.3457925,22.3034848 13.3457925,23.7189084 Z" id="Fill-149"></path>
                    <path d="M18.3702148,17.0959934 C18.3702148,19.8053677 16.1792717,22.0077246 13.472193,22.0077246 C10.7703811,22.0077246 8.57943803,19.8053677 8.57943803,17.0959934 C8.57943803,14.3813377 10.7703811,12.1842622 13.472193,12.1842622 C16.1792717,12.1842622 18.3702148,14.3813377 18.3702148,17.0959934 Z" id="Fill-152"></path>
                    <path d="M21.7092962,10.6790543 C21.7092962,13.4993386 19.4288194,15.7861984 16.616407,15.7861984 C13.8039945,15.7861984 11.5235177,13.4993386 11.5235177,10.6790543 C11.5235177,7.85876991 13.8039945,5.57191012 16.616407,5.57191012 C19.4288194,5.57191012 21.7092962,7.85876991 21.7092962,10.6790543 Z" id="Fill-155"></path>
                    <path d="M24.3057744,4.50506098 C24.3057744,6.77607648 22.4729663,8.6140146 20.2082896,8.6140146 C17.9436129,8.6140146 16.105538,6.77607648 16.105538,4.50506098 C16.105538,2.23404548 17.9436129,0.390825923 20.2082896,0.390825923 C22.4729663,0.390825923 24.3057744,2.23404548 24.3057744,4.50506098 Z" id="Fill-158"></path>
                </g>
                <g id="News" transform="translate(18.960084, 0.528143)" fill="#8BCDE2" opacity="0.850000024">
                    <path d="M10.5228466,42.9644444 C10.5228466,45.8745131 8.1686362,48.2353129 5.26669001,48.2353129 C2.36474381,48.2353129 0.01053338,45.8745131 0.01053338,42.9644444 C0.01053338,40.0543757 2.36474381,37.6935758 5.26669001,37.6935758 C8.1686362,37.6935758 10.5228466,40.0543757 10.5228466,42.9644444 Z" id="Fill-161"></path>
                    <path d="M14.7256653,37.3608457 C14.7256653,40.1494414 12.4715219,42.4046126 9.69597631,42.4046126 C6.91516398,42.4046126 4.66102066,40.1494414 4.66102066,37.3608457 C4.66102066,34.5775313 6.91516398,32.3170787 9.69597631,32.3170787 C12.4715219,32.3170787 14.7256653,34.5775313 14.7256653,37.3608457 Z" id="Fill-164"></path>
                    <path d="M19.3603525,32.0899771 C19.3603525,34.7782257 17.1852095,36.9541754 14.509731,36.9541754 C11.8289858,36.9541754 9.65910948,34.7782257 9.65910948,32.0899771 C9.65910948,29.4017286 11.8289858,27.2257788 14.509731,27.2257788 C17.1852095,27.2257788 19.3603525,29.4017286 19.3603525,32.0899771 Z" id="Fill-167"></path>
                    <path d="M23.1839694,27.1782459 C23.1839694,29.1112498 21.6144958,30.6851164 19.6868873,30.6851164 C17.754012,30.6851164 16.1898051,29.1112498 16.1898051,27.1782459 C16.1898051,25.2399606 17.754012,23.6713755 19.6868873,23.6713755 C21.6144958,23.6713755 23.1839694,25.2399606 23.1839694,27.1782459 Z" id="Fill-170"></path>
                    <path d="M30.3361345,22.6467778 C30.3361345,25.4934693 28.0345909,27.8014548 25.195845,27.8014548 C22.3570991,27.8014548 20.0555556,25.4934693 20.0555556,22.6467778 C20.0555556,19.7948049 22.3570991,17.4921008 25.195845,17.4921008 C28.0345909,17.4921008 30.3361345,19.7948049 30.3361345,22.6467778 Z" id="Fill-173"></path>
                    <path d="M36.8404966,18.5166985 C36.8404966,21.743653 34.2334851,24.3579616 31.0155375,24.3579616 C27.8028566,24.3579616 25.1905783,21.743653 25.1905783,18.5166985 C25.1905783,15.2897439 27.8028566,12.6754353 31.0155375,12.6754353 C34.2334851,12.6754353 36.8404966,15.2897439 36.8404966,18.5166985 Z" id="Fill-176"></path>
                    <path d="M42.1440535,14.8144151 C42.1440535,17.5977294 39.8899101,19.858182 37.1143645,19.858182 C34.3388189,19.858182 32.0899422,17.5977294 32.0899422,14.8144151 C32.0899422,12.0311007 34.3388189,9.77592951 37.1143645,9.77592951 C39.8899101,9.77592951 42.1440535,12.0311007 42.1440535,14.8144151 Z" id="Fill-179"></path>
                    <path d="M47.7004114,11.5610533 C47.7004114,13.9060089 45.804403,15.8126056 43.460726,15.8126056 C41.1170489,15.8126056 39.2210405,13.9060089 39.2210405,11.5610533 C39.2210405,9.21081635 41.1170489,7.30421961 43.460726,7.30421961 C45.804403,7.30421961 47.7004114,9.21081635 47.7004114,11.5610533 Z" id="Fill-182"></path>
                    <path d="M54.8789099,8.76189468 C54.8789099,11.4554247 52.7037669,13.6366559 50.0230217,13.6366559 C47.3370098,13.6366559 45.1618668,11.4554247 45.1618668,8.76189468 C45.1618668,6.0736461 47.3370098,3.89241494 50.0230217,3.89241494 C52.7037669,3.89241494 54.8789099,6.0736461 54.8789099,8.76189468 Z" id="Fill-185"></path>
                    <path d="M62.9053455,6.4433463 C62.9053455,9.84458811 60.1561333,12.6014953 56.7643849,12.6014953 C53.3726366,12.6014953 50.6234244,9.84458811 50.6234244,6.4433463 C50.6234244,3.04210448 53.3726366,0.285197295 56.7643849,0.285197295 C60.1561333,0.285197295 62.9053455,3.04210448 62.9053455,6.4433463 Z" id="Fill-188"></path>
                </g>
                <g id="Recreation" transform="translate(78.473681, 0.000000)" fill="#5A94DB" opacity="0.850000024">
                    <path d="M8.13176937,5.13883274 C8.13176937,7.3517525 6.34636146,9.14215774 4.13961835,9.14215774 C1.93287523,9.14215774 0.14746732,7.3517525 0.14746732,5.13883274 C0.14746732,2.92591299 1.93287523,1.13550775 4.13961835,1.13550775 C6.34636146,1.13550775 8.13176937,2.92591299 8.13176937,5.13883274 Z" id="Fill-191"></path>
                    <path d="M23.8844392,46.0540817 C23.8844392,49.6137665 21.0088264,52.497428 17.4643441,52.497428 C13.914595,52.497428 11.0389823,49.6137665 11.0389823,46.0540817 C11.0389823,42.4996784 13.914595,39.6160169 17.4643441,39.6160169 C21.0088264,39.6160169 23.8844392,42.4996784 23.8844392,46.0540817 Z" id="Fill-194"></path>
                    <path d="M22.188565,18.81774 C22.188565,20.4285766 20.8824259,21.7330902 19.2760854,21.7330902 C17.669745,21.7330902 16.3688725,20.4285766 16.3688725,18.81774 C16.3688725,17.201622 17.669745,15.8971085 19.2760854,15.8971085 C20.8824259,15.8971085 22.188565,17.201622 22.188565,18.81774 Z" id="Fill-197"></path>
                    <path d="M27.2077206,29.0531541 C27.2077206,30.0830332 26.3703169,30.9174994 25.3433123,30.9174994 C24.3163078,30.9174994 23.4841708,30.0830332 23.4841708,29.0531541 C23.4841708,28.023275 24.3163078,27.1835274 25.3433123,27.1835274 C26.3703169,27.1835274 27.2077206,28.023275 27.2077206,29.0531541 Z" id="Fill-200"></path>
                    <path d="M36.8562967,8.11227862 C36.8562967,10.8322158 34.6548203,13.0345727 31.9424749,13.0345727 C29.2301296,13.0345727 27.0339198,10.8322158 27.0339198,8.11227862 C27.0339198,5.39234145 29.2301296,3.18470313 31.9424749,3.18470313 C34.6548203,3.18470313 36.8562967,5.39234145 36.8562967,8.11227862 Z" id="Fill-203"></path>
                    <path d="M42.9077235,3.52271474 C42.9077235,5.37121573 41.4119835,6.87114224 39.5633754,6.87114224 C37.7200338,6.87114224 36.2242939,5.37121573 36.2242939,3.52271474 C36.2242939,1.66893232 37.7200338,0.169005805 39.5633754,0.169005805 C41.4119835,0.169005805 42.9077235,1.66893232 42.9077235,3.52271474 Z" id="Fill-206"></path>
                    <path d="M49.6543534,4.71631823 C49.6543534,6.41693914 48.285014,7.7901113 46.5944065,7.7901113 C44.8985323,7.7901113 43.5291929,6.41693914 43.5291929,4.71631823 C43.5291929,3.02097876 44.8985323,1.64780659 46.5944065,1.64780659 C48.285014,1.64780659 49.6543534,3.02097876 49.6543534,4.71631823 Z" id="Fill-209"></path>
                </g>
                <g id="Sports" transform="translate(116.393849, 3.168859)" fill="#F1AF70" opacity="0.850000024">
                    <path d="M18.5282155,3.24279887 C18.5282155,4.86947974 17.2168096,6.18455616 15.5946691,6.18455616 C13.9777953,6.18455616 12.6663895,4.86947974 12.6663895,3.24279887 C12.6663895,1.62139944 13.9777953,0.306323021 15.5946691,0.306323021 C17.2168096,0.306323021 18.5282155,1.62139944 18.5282155,3.24279887 Z" id="Fill-212"></path>
                    <path d="M9.72230976,52.962194 C9.72230976,55.5765025 7.61036706,57.699638 5.00335551,57.699638 C2.39634395,57.699638 0.284401261,55.5765025 0.284401261,52.962194 C0.284401261,50.3478855 2.39634395,48.2300315 5.00335551,48.2300315 C7.61036706,48.2300315 9.72230976,50.3478855 9.72230976,52.962194 Z" id="Fill-215"></path>
                    <path d="M34.0754844,8.09643432 C34.0754844,10.9061558 31.8002743,13.1877342 28.9983952,13.1877342 C26.1912494,13.1877342 23.921306,10.9061558 23.921306,8.09643432 C23.921306,5.28143139 26.1912494,3.00513446 28.9983952,3.00513446 C31.8002743,3.00513446 34.0754844,5.28143139 34.0754844,8.09643432 Z" id="Fill-218"></path>
                    <path d="M37.0090307,16.5097545 C37.0090307,19.1451888 34.8760212,21.2841685 32.2479429,21.2841685 C29.6145979,21.2841685 27.4815885,19.1451888 27.4815885,16.5097545 C27.4815885,13.8690388 29.6145979,11.7300591 32.2479429,11.7300591 C34.8760212,11.7300591 37.0090307,13.8690388 37.0090307,16.5097545 Z" id="Fill-221"></path>
                    <path d="M44.2401961,14.8038522 C44.2401961,16.282653 43.0499241,17.4762565 41.5752509,17.4762565 C40.1058444,17.4762565 38.9155725,16.282653 38.9155725,14.8038522 C38.9155725,13.3303328 40.1058444,12.1367293 41.5752509,12.1367293 C43.0499241,12.1367293 44.2401961,13.3303328 44.2401961,14.8038522 Z" id="Fill-224"></path>
                    <path d="M52.7459004,18.81774 C52.7459004,21.7330902 50.3864233,24.0991714 47.4792104,24.0991714 C44.5667309,24.0991714 42.2072537,21.7330902 42.2072537,18.81774 C42.2072537,15.8971085 44.5667309,13.5310272 47.4792104,13.5310272 C50.3864233,13.5310272 52.7459004,15.8971085 52.7459004,18.81774 Z" id="Fill-227"></path>
                    <path d="M57.1962535,23.2382981 C57.1962535,25.5198765 55.352912,27.3683775 53.0777019,27.3683775 C50.8024918,27.3683775 48.9591503,25.5198765 48.9591503,23.2382981 C48.9591503,20.9567198 50.8024918,19.1082188 53.0777019,19.1082188 C55.352912,19.1082188 57.1962535,20.9567198 57.1962535,23.2382981 Z" id="Fill-230"></path>
                    <path d="M63.2792805,28.0496821 C63.2792805,30.7801822 61.0725373,32.9878205 58.3496586,32.9878205 C55.6267799,32.9878205 53.4253035,30.7801822 53.4253035,28.0496821 C53.4253035,25.3191821 55.6267799,23.1062623 58.3496586,23.1062623 C61.0725373,23.1062623 63.2792805,25.3191821 63.2792805,28.0496821 Z" id="Fill-233"></path>
                    <path d="M62.1469421,37.9787731 C62.1469421,40.8571532 59.8190651,43.1862645 56.9487191,43.1862645 C54.078373,43.1862645 51.750496,40.8571532 51.750496,37.9787731 C51.750496,35.100393 54.078373,32.7660004 56.9487191,32.7660004 C59.8190651,32.7660004 62.1469421,35.100393 62.1469421,37.9787731 Z" id="Fill-236"></path>
                    <path d="M42.9867239,64.6130316 C42.9867239,69.8310859 38.7733718,74.056231 33.5698821,74.056231 C28.3716591,74.056231 24.1583071,69.8310859 24.1583071,64.6130316 C24.1583071,59.4002589 28.3716591,55.1751138 33.5698821,55.1751138 C38.7733718,55.1751138 42.9867239,59.4002589 42.9867239,64.6130316 Z" id="Fill-239"></path>
                    <path d="M76.9200076,44.5594367 C76.9200076,47.3163438 74.6921977,49.5503893 71.9429855,49.5503893 C69.1885067,49.5503893 66.9606968,47.3163438 66.9606968,44.5594367 C66.9606968,41.8025295 69.1885067,39.568484 71.9429855,39.568484 C74.6921977,39.568484 76.9200076,41.8025295 76.9200076,44.5594367 Z" id="Fill-242"></path>
                    <path d="M80.7225578,50.6647713 C80.7225578,53.4692114 78.4526144,55.7507898 75.6507353,55.7507898 C72.8488562,55.7507898 70.5789128,53.4692114 70.5789128,50.6647713 C70.5789128,47.8550498 72.8488562,45.5787529 75.6507353,45.5787529 C78.4526144,45.5787529 80.7225578,47.8550498 80.7225578,50.6647713 Z" id="Fill-245"></path>
                    <path d="M83.9931723,57.0130519 C83.9931723,59.8227734 81.7232289,62.0990703 78.9213498,62.0990703 C76.1194707,62.0990703 73.8495273,59.8227734 73.8495273,57.0130519 C73.8495273,54.2086118 76.1194707,51.9270334 78.9213498,51.9270334 C81.7232289,51.9270334 83.9931723,54.2086118 83.9931723,57.0130519 Z" id="Fill-248"></path>
                </g>
                <g id="Technology-and-internet" transform="translate(179.594129, 63.288780)" fill="#4FBE97" opacity="0.850000024">
                    <path d="M21.9199638,3.4632315 C21.9199638,5.34342107 20.4031571,6.86447331 18.5282155,6.86447331 C16.6532738,6.86447331 15.1364671,5.34342107 15.1364671,3.4632315 C15.1364671,1.58832335 16.6532738,0.061989682 18.5282155,0.061989682 C20.4031571,0.061989682 21.9199638,1.58832335 21.9199638,3.4632315 Z" id="Fill-251"></path>
                    <path d="M23.768572,10.2181822 C23.768572,11.8290188 22.4676996,13.1335324 20.8666258,13.1335324 C19.2602854,13.1335324 17.9594129,11.8290188 17.9594129,10.2181822 C17.9594129,8.60734567 19.2602854,7.30283212 20.8666258,7.30283212 C22.4676996,7.30283212 23.768572,8.60734567 23.768572,10.2181822 Z" id="Fill-254"></path>
                    <path d="M26.5072508,17.1210131 C26.5072508,19.2230228 24.8113766,20.9236437 22.715234,20.9236437 C20.6190914,20.9236437 18.9232172,19.2230228 18.9232172,17.1210131 C18.9232172,15.0190034 20.6190914,13.3183825 22.715234,13.3183825 C24.8113766,13.3183825 26.5072508,15.0190034 26.5072508,17.1210131 Z" id="Fill-257"></path>
                    <path d="M12.2977212,27.3088942 C12.2977212,30.7048546 9.55377568,33.4617618 6.16202731,33.4617618 C2.77554563,33.4617618 0.02633345,30.7048546 0.02633345,27.3088942 C0.02633345,23.9076524 2.77554563,21.1560267 6.16202731,21.1560267 C9.55377568,21.1560267 12.2977212,23.9076524 12.2977212,27.3088942 Z" id="Fill-260"></path>
                    <path d="M28.8719946,31.2382792 C28.8719946,33.4247918 27.1023868,35.1993527 24.9219771,35.1993527 C22.7415675,35.1993527 20.9719596,33.4247918 20.9719596,31.2382792 C20.9719596,29.0464852 22.7415675,27.2772056 24.9219771,27.2772056 C27.1023868,27.2772056 28.8719946,29.0464852 28.8719946,31.2382792 Z" id="Fill-263"></path>
                </g>
                <g id="Health" transform="translate(7.373366, 134.676500)" fill="#B155A9" opacity="0.850000024">
                    <path d="M73.70206,64.702816 C73.70206,66.96855 71.8745186,68.8012067 69.6151085,68.8012067 C67.3556985,68.8012067 65.5281571,66.96855 65.5281571,64.702816 C65.5281571,62.4370819 67.3556985,60.6044252 69.6151085,60.6044252 C71.8745186,60.6044252 73.70206,62.4370819 73.70206,64.702816 Z" id="Fill-80"></path>
                    <path d="M66.6078285,62.4740519 C66.6078285,64.5549359 64.9224877,66.2449939 62.8421452,66.2449939 C60.7670693,66.2449939 59.0817285,64.5549359 59.0817285,62.4740519 C59.0817285,60.3878865 60.7670693,58.6978285 62.8421452,58.6978285 C64.9224877,58.6978285 66.6078285,60.3878865 66.6078285,62.4740519 Z" id="Fill-83"></path>
                    <path d="M59.8927988,59.7646776 C59.8927988,61.7821844 58.2601249,63.4194282 56.2482493,63.4194282 C54.2363737,63.4194282 52.6036998,61.7821844 52.6036998,59.7646776 C52.6036998,57.7471708 54.2363737,56.1099271 56.2482493,56.1099271 C58.2601249,56.1099271 59.8927988,57.7471708 59.8927988,59.7646776 Z" id="Fill-86"></path>
                    <path d="M52.8670343,56.5905374 C52.8670343,58.2594697 51.5187617,59.6115161 49.8597543,59.6115161 C48.1954803,59.6115161 46.8472076,58.2594697 46.8472076,56.5905374 C46.8472076,54.9268865 48.1954803,53.57484 49.8597543,53.57484 C51.5187617,53.57484 52.8670343,54.9268865 52.8670343,56.5905374 Z" id="Fill-89"></path>
                    <path d="M47.842612,52.9727569 C47.842612,55.2596167 45.9940039,57.1133991 43.7135271,57.1133991 C41.4277836,57.1133991 39.5791754,55.2596167 39.5791754,52.9727569 C39.5791754,50.6858971 41.4277836,48.8268332 43.7135271,48.8268332 C45.9940039,48.8268332 47.842612,50.6858971 47.842612,52.9727569 Z" id="Fill-92"></path>
                    <path d="M40.4218458,48.921899 C40.4218458,50.3531669 39.2684407,51.5150818 37.835901,51.5150818 C36.408628,51.5150818 35.2552229,50.3531669 35.2552229,48.921899 C35.2552229,47.4906311 36.408628,46.3287162 37.835901,46.3287162 C39.2684407,46.3287162 40.4218458,47.4906311 40.4218458,48.921899 Z" id="Fill-95"></path>
                    <path d="M35.5870244,44.4643709 C35.5870244,46.302309 34.1018178,47.7916727 32.2690097,47.7916727 C30.4309349,47.7916727 28.9457283,46.302309 28.9457283,44.4643709 C28.9457283,42.6211513 30.4309349,41.1317877 32.2690097,41.1317877 C34.1018178,41.1317877 35.5870244,42.6211513 35.5870244,44.4643709 Z" id="Fill-98"></path>
                    <path d="M30.2360673,39.6160169 C30.2360673,41.3958592 28.798261,42.83769 27.0286531,42.83769 C25.2537786,42.83769 23.8159722,41.3958592 23.8159722,39.6160169 C23.8159722,37.8414559 25.2537786,36.3996252 27.0286531,36.3996252 C28.798261,36.3996252 30.2360673,37.8414559 30.2360673,39.6160169 Z" id="Fill-101"></path>
                    <path d="M24.2847076,34.4085255 C24.2847076,35.5968476 23.3261701,36.5580681 22.1411648,36.5580681 C20.9614262,36.5580681 19.997622,35.5968476 19.997622,34.4085255 C19.997622,33.2254849 20.9614262,32.2589829 22.1411648,32.2589829 C23.3261701,32.2589829 24.2847076,33.2254849 24.2847076,34.4085255 Z" id="Fill-104"></path>
                    <path d="M22.3781658,28.868304 C22.3781658,31.4931754 20.2556898,33.6215922 17.6434115,33.6215922 C15.0258666,33.6215922 12.9033905,31.4931754 12.9033905,28.868304 C12.9033905,26.2434326 15.0258666,24.1150157 17.6434115,24.1150157 C20.2556898,24.1150157 22.3781658,26.2434326 22.3781658,28.868304 Z" id="Fill-107"></path>
                    <path d="M17.143076,23.016478 C17.143076,25.0075776 15.5314688,26.6236956 13.5459267,26.6236956 C11.5603846,26.6236956 9.94877743,25.0075776 9.94877743,23.016478 C9.94877743,21.0253784 11.5603846,19.4092604 13.5459267,19.4092604 C15.5314688,19.4092604 17.143076,21.0253784 17.143076,23.016478 Z" id="Fill-110"></path>
                    <path d="M13.1614583,16.8900176 C13.1614583,18.7121114 11.6920518,20.1856308 9.87504377,20.1856308 C8.05803571,20.1856308 6.5886292,18.7121114 6.5886292,16.8900176 C6.5886292,15.0679238 8.05803571,13.5944044 9.87504377,13.5944044 C11.6920518,13.5944044 13.1614583,15.0679238 13.1614583,16.8900176 Z" id="Fill-113"></path>
                    <path d="M9.99617764,10.5153299 C9.99617764,12.3691123 8.49517099,13.8743203 6.64656279,13.8743203 C4.7979546,13.8743203 3.29694795,12.3691123 3.29694795,10.5153299 C3.29694795,8.66154748 4.7979546,7.15633954 6.64656279,7.15633954 C8.49517099,7.15633954 9.99617764,8.66154748 9.99617764,10.5153299 Z" id="Fill-116"></path>
                    <path d="M7.48923319,3.92938496 C7.48923319,5.92576602 5.87235936,7.54188403 3.88155054,7.54188403 C1.89074171,7.54188403 0.27386788,5.92576602 0.27386788,3.92938496 C0.27386788,1.93300389 1.89074171,0.311604452 3.88155054,0.311604452 C5.87235936,0.311604452 7.48923319,1.93300389 7.48923319,3.92938496 Z" id="Fill-119"></path>
                </g>
                <g id="Travel" transform="translate(201.535714, 98.503171)" fill="#CBC36B" opacity="0.850000024">
                    <path d="M6.44060749,3.15910161 C6.44060749,4.88084825 5.04493464,6.28042757 3.3279937,6.28042757 C1.61105275,6.28042757 0.220646592,4.88084825 0.220646592,3.15910161 C0.220646592,1.43735498 1.61105275,0.0430570932 3.3279937,0.0430570932 C5.04493464,0.0430570932 6.44060749,1.43735498 6.44060749,3.15910161 Z"></path>
                </g>
                <g id="Autos" transform="translate(79.033613, 196.126850)" fill="#75A35C" opacity="0.850000024">
                    <path d="M9.52051237,4.99533894 C9.52051237,7.57267746 7.44016982,9.65884286 4.87002509,9.65884286 C2.29988037,9.65884286 0.219537815,7.57267746 0.219537815,4.99533894 C0.219537815,2.41800042 2.29988037,0.33183502 4.87002509,0.33183502 C7.44016982,0.33183502 9.52051237,2.41800042 9.52051237,4.99533894 Z" id="Fill-77"></path>
                </g>
                <g id="_nodes" transform="translate(4.213352, 2.640716)" fill="#FFFFFF">
                    <path d="M200.934757,107.492973 C200.934757,107.783452 200.697756,108.021116 200.408088,108.021116 C200.11842,108.021116 199.881419,107.783452 199.881419,107.492973 C199.881419,107.197213 200.11842,106.96483 200.408088,106.96483 C200.697756,106.96483 200.934757,107.197213 200.934757,107.492973 Z" id="Fill-6"></path>
                    <path d="M200.171087,114.596498 C200.171087,114.892258 199.939353,115.124641 199.644418,115.124641 C199.35475,115.124641 199.117749,114.892258 199.117749,114.596498 C199.117749,114.30602 199.35475,114.068355 199.644418,114.068355 C199.939353,114.068355 200.171087,114.30602 200.171087,114.596498 Z" id="Fill-9"></path>
                    <path d="M198.912348,121.631365 C198.912348,121.927125 198.675347,122.159508 198.385679,122.159508 C198.090745,122.159508 197.85901,121.927125 197.85901,121.631365 C197.85901,121.340886 198.090745,121.103222 198.385679,121.103222 C198.675347,121.103222 198.912348,121.340886 198.912348,121.631365 Z" id="Fill-12"></path>
                    <path d="M197.153274,128.560603 C197.153274,128.851082 196.916273,129.088746 196.626605,129.088746 C196.33167,129.088746 196.099936,128.851082 196.099936,128.560603 C196.099936,128.270124 196.33167,128.03246 196.626605,128.03246 C196.916273,128.03246 197.153274,128.270124 197.153274,128.560603 Z" id="Fill-15"></path>
                    <path d="M194.904397,135.341961 C194.904397,135.637721 194.667396,135.870104 194.377728,135.870104 C194.08806,135.870104 193.851059,135.637721 193.851059,135.341961 C193.851059,135.051482 194.08806,134.813818 194.377728,134.813818 C194.667396,134.813818 194.904397,135.051482 194.904397,135.341961 Z" id="Fill-18"></path>
                    <path d="M192.181518,141.949032 C192.181518,142.244792 191.944517,142.477175 191.654849,142.477175 C191.365181,142.477175 191.12818,142.244792 191.12818,141.949032 C191.12818,141.658553 191.365181,141.420888 191.654849,141.420888 C191.944517,141.420888 192.181518,141.658553 192.181518,141.949032 Z" id="Fill-21"></path>
                    <path d="M188.995171,148.344845 C188.995171,148.635324 188.763437,148.872988 188.468502,148.872988 C188.178834,148.872988 187.941833,148.635324 187.941833,148.344845 C187.941833,148.054366 188.178834,147.816702 188.468502,147.816702 C188.763437,147.816702 188.995171,148.054366 188.995171,148.344845 Z" id="Fill-24"></path>
                    <path d="M185.366422,154.497713 C185.366422,154.788191 185.129421,155.025856 184.839753,155.025856 C184.550085,155.025856 184.313084,154.788191 184.313084,154.497713 C184.313084,154.207234 184.550085,153.969569 184.839753,153.969569 C185.129421,153.969569 185.366422,154.207234 185.366422,154.497713 Z" id="Fill-27"></path>
                    <path d="M181.31107,160.375946 C181.31107,160.666424 181.074069,160.904089 180.784401,160.904089 C180.489467,160.904089 180.257732,160.666424 180.257732,160.375946 C180.257732,160.085467 180.489467,159.847803 180.784401,159.847803 C181.074069,159.847803 181.31107,160.085467 181.31107,160.375946 Z" id="Fill-30"></path>
                    <path d="M176.844917,165.947856 C176.844917,166.238334 176.607916,166.475999 176.318248,166.475999 C176.02858,166.475999 175.791579,166.238334 175.791579,165.947856 C175.791579,165.657377 176.02858,165.419713 176.318248,165.419713 C176.607916,165.419713 176.844917,165.657377 176.844917,165.947856 Z" id="Fill-33"></path>
                    <path d="M171.994296,171.187036 C171.994296,171.477514 171.757295,171.715179 171.467627,171.715179 C171.177959,171.715179 170.940958,171.477514 170.940958,171.187036 C170.940958,170.896557 171.177959,170.658893 171.467627,170.658893 C171.757295,170.658893 171.994296,170.896557 171.994296,171.187036 Z" id="Fill-36"></path>
                    <path d="M166.785539,176.067078 C166.785539,176.357557 166.548538,176.595221 166.25887,176.595221 C165.969202,176.595221 165.732201,176.357557 165.732201,176.067078 C165.732201,175.7766 165.969202,175.538935 166.25887,175.538935 C166.548538,175.538935 166.785539,175.7766 166.785539,176.067078 Z" id="Fill-39"></path>
                    <path d="M129.118172,138.310125 C129.118172,138.600604 128.881171,138.838268 128.591503,138.838268 C128.301835,138.838268 128.064834,138.600604 128.064834,138.310125 C128.064834,138.019647 128.301835,137.781982 128.591503,137.781982 C128.881171,137.781982 129.118172,138.019647 129.118172,138.310125 Z" id="Fill-42"></path>
                    <path d="M155.398955,184.649404 C155.398955,184.939883 155.161954,185.177547 154.872286,185.177547 C154.577352,185.177547 154.345617,184.939883 154.345617,184.649404 C154.345617,184.358926 154.577352,184.121261 154.872286,184.121261 C155.161954,184.121261 155.398955,184.358926 155.398955,184.649404 Z" id="Fill-45"></path>
                    <path d="M149.273795,188.309436 C149.273795,188.605196 149.036794,188.837579 148.747126,188.837579 C148.457458,188.837579 148.220457,188.605196 148.220457,188.309436 C148.220457,188.018958 148.457458,187.781293 148.747126,187.781293 C149.036794,187.781293 149.273795,188.018958 149.273795,188.309436 Z" id="Fill-48"></path>
                    <path d="M142.906367,191.525828 C142.906367,191.816307 142.674632,192.053971 142.379698,192.053971 C142.09003,192.053971 141.853029,191.816307 141.853029,191.525828 C141.853029,191.235349 142.09003,190.997685 142.379698,190.997685 C142.674632,190.997685 142.906367,191.235349 142.906367,191.525828 Z" id="Fill-51"></path>
                    <path d="M136.328271,194.277454 C136.328271,194.567932 136.09127,194.805597 135.801602,194.805597 C135.511934,194.805597 135.274933,194.567932 135.274933,194.277454 C135.274933,193.986975 135.511934,193.749311 135.801602,193.749311 C136.09127,193.749311 136.328271,193.986975 136.328271,194.277454 Z" id="Fill-54"></path>
                    <path d="M129.571108,196.553751 C129.571108,196.844229 129.334107,197.081894 129.044439,197.081894 C128.754771,197.081894 128.51777,196.844229 128.51777,196.553751 C128.51777,196.263272 128.754771,196.025608 129.044439,196.025608 C129.334107,196.025608 129.571108,196.263272 129.571108,196.553751 Z" id="Fill-57"></path>
                    <path d="M122.671744,198.338874 C122.671744,198.629353 122.434743,198.867018 122.145075,198.867018 C121.85014,198.867018 121.618406,198.629353 121.618406,198.338874 C121.618406,198.048396 121.85014,197.810731 122.145075,197.810731 C122.434743,197.810731 122.671744,198.048396 122.671744,198.338874 Z" id="Fill-60"></path>
                    <path d="M114.603175,192.761683 C114.603175,193.057443 114.37144,193.289826 114.076506,193.289826 C113.786838,193.289826 113.549837,193.057443 113.549837,192.761683 C113.549837,192.471204 113.786838,192.23354 114.076506,192.23354 C114.37144,192.23354 114.603175,192.471204 114.603175,192.761683 Z" id="Fill-63"></path>
                    <path d="M108.572815,200.414477 C108.572815,200.704956 108.335813,200.94262 108.046146,200.94262 C107.756478,200.94262 107.519477,200.704956 107.519477,200.414477 C107.519477,200.123998 107.756478,199.886334 108.046146,199.886334 C108.335813,199.886334 108.572815,200.123998 108.572815,200.414477 Z" id="Fill-66"></path>
                    <path d="M101.45225,200.694393 C101.45225,200.984872 101.215249,201.222536 100.925581,201.222536 C100.630646,201.222536 100.398912,200.984872 100.398912,200.694393 C100.398912,200.403914 100.630646,200.16625 100.925581,200.16625 C101.215249,200.16625 101.45225,200.403914 101.45225,200.694393 Z" id="Fill-69"></path>
                    <path d="M94.3264181,200.46201 C94.3264181,200.752489 94.089417,200.990153 93.7997491,200.990153 C93.5100811,200.990153 93.2730801,200.752489 93.2730801,200.46201 C93.2730801,200.171531 93.5100811,199.933867 93.7997491,199.933867 C94.089417,199.933867 94.3264181,200.171531 94.3264181,200.46201 Z" id="Fill-72"></path>
                    <path d="M87.2374533,199.72261 C87.2374533,200.013088 87.0004523,200.250753 86.7107843,200.250753 C86.4158497,200.250753 86.1841153,200.013088 86.1841153,199.72261 C86.1841153,199.432131 86.4158497,199.194466 86.7107843,199.194466 C87.0004523,199.194466 87.2374533,199.432131 87.2374533,199.72261 Z" id="Fill-75"></path>
                    <path d="M80.2169555,198.481473 C80.2169555,198.771952 79.9799545,199.009616 79.6902865,199.009616 C79.4006186,199.009616 79.1636175,198.771952 79.1636175,198.481473 C79.1636175,198.190994 79.4006186,197.95333 79.6902865,197.95333 C79.9799545,197.95333 80.2169555,198.190994 80.2169555,198.481473 Z" id="Fill-78"></path>
                    <path d="M73.3017915,196.738601 C73.3017915,197.02908 73.0647905,197.266744 72.7751225,197.266744 C72.4854546,197.266744 72.2484535,197.02908 72.2484535,196.738601 C72.2484535,196.448122 72.4854546,196.210458 72.7751225,196.210458 C73.0647905,196.210458 73.3017915,196.448122 73.3017915,196.738601 Z" id="Fill-81"></path>
                    <path d="M66.5288282,194.509837 C66.5288282,194.800315 66.2918271,195.03798 66.0021592,195.03798 C65.7124912,195.03798 65.4754902,194.800315 65.4754902,194.509837 C65.4754902,194.219358 65.7124912,193.981694 66.0021592,193.981694 C66.2918271,193.981694 66.5288282,194.219358 66.5288282,194.509837 Z" id="Fill-84"></path>
                    <path d="M59.9349323,191.800462 C59.9349323,192.090941 59.6979313,192.328606 59.4082633,192.328606 C59.1133287,192.328606 58.8815943,192.090941 58.8815943,191.800462 C58.8815943,191.509984 59.1133287,191.272319 59.4082633,191.272319 C59.6979313,191.272319 59.9349323,191.509984 59.9349323,191.800462 Z" id="Fill-87"></path>
                    <path d="M53.5464373,188.626322 C53.5464373,188.922082 53.3094363,189.154465 53.0197683,189.154465 C52.7301004,189.154465 52.4930993,188.922082 52.4930993,188.626322 C52.4930993,188.335843 52.7301004,188.098179 53.0197683,188.098179 C53.3094363,188.098179 53.5464373,188.335843 53.5464373,188.626322 Z" id="Fill-90"></path>
                    <path d="M47.4002101,185.008542 C47.4002101,185.29902 47.163209,185.536685 46.8735411,185.536685 C46.5838731,185.536685 46.3468721,185.29902 46.3468721,185.008542 C46.3468721,184.718063 46.5838731,184.480399 46.8735411,184.480399 C47.163209,184.480399 47.4002101,184.718063 47.4002101,185.008542 Z" id="Fill-93"></path>
                    <path d="M41.522584,180.957684 C41.522584,181.248163 41.2908497,181.485827 40.995915,181.485827 C40.7062471,181.485827 40.469246,181.248163 40.469246,180.957684 C40.469246,180.667205 40.7062471,180.429541 40.995915,180.429541 C41.2908497,180.429541 41.522584,180.667205 41.522584,180.957684 Z" id="Fill-96"></path>
                    <path d="M35.9556927,176.500156 C35.9556927,176.790634 35.7186916,177.028299 35.4290237,177.028299 C35.1340891,177.028299 34.9023547,176.790634 34.9023547,176.500156 C34.9023547,176.209677 35.1340891,175.972013 35.4290237,175.972013 C35.7186916,175.972013 35.9556927,176.209677 35.9556927,176.500156 Z" id="Fill-99"></path>
                    <path d="M30.7153361,171.651802 C30.7153361,171.947562 30.4783351,172.179945 30.1886671,172.179945 C29.8937325,172.179945 29.6619981,171.947562 29.6619981,171.651802 C29.6619981,171.361323 29.8937325,171.123659 30.1886671,171.123659 C30.4783351,171.123659 30.7153361,171.361323 30.7153361,171.651802 Z" id="Fill-102"></path>
                    <path d="M25.8278478,166.44431 C25.8278478,166.74007 25.5961134,166.972453 25.3011788,166.972453 C25.0115109,166.972453 24.7745098,166.74007 24.7745098,166.44431 C24.7745098,166.153832 25.0115109,165.916167 25.3011788,165.916167 C25.5961134,165.916167 25.8278478,166.153832 25.8278478,166.44431 Z" id="Fill-105"></path>
                    <path d="M21.3300945,160.904089 C21.3300945,161.194568 21.0930935,161.432232 20.8034255,161.432232 C20.5084909,161.432232 20.2767565,161.194568 20.2767565,160.904089 C20.2767565,160.61361 20.5084909,160.375946 20.8034255,160.375946 C21.0930935,160.375946 21.3300945,160.61361 21.3300945,160.904089 Z" id="Fill-108"></path>
                    <path d="M17.2326097,155.052263 C17.2326097,155.342742 16.9956087,155.580406 16.7059407,155.580406 C16.4162728,155.580406 16.1792717,155.342742 16.1792717,155.052263 C16.1792717,154.761784 16.4162728,154.52412 16.7059407,154.52412 C16.9956087,154.52412 17.2326097,154.761784 17.2326097,155.052263 Z" id="Fill-111"></path>
                    <path d="M13.5617268,148.925802 C13.5617268,149.216281 13.3247257,149.453946 13.0350578,149.453946 C12.7453898,149.453946 12.5083888,149.216281 12.5083888,148.925802 C12.5083888,148.635324 12.7453898,148.397659 13.0350578,148.397659 C13.3247257,148.397659 13.5617268,148.635324 13.5617268,148.925802 Z" id="Fill-114"></path>
                    <path d="M10.3332458,142.551115 C10.3332458,142.841593 10.0962447,143.079258 9.8065768,143.079258 C9.51690885,143.079258 9.2799078,142.841593 9.2799078,142.551115 C9.2799078,142.260636 9.51690885,142.022972 9.8065768,142.022972 C10.0962447,142.022972 10.3332458,142.260636 10.3332458,142.551115 Z" id="Fill-117"></path>
                    <path d="M7.56823354,135.96517 C7.56823354,136.255648 7.33123249,136.493313 7.04156454,136.493313 C6.75189659,136.493313 6.51489554,136.255648 6.51489554,135.96517 C6.51489554,135.674691 6.75189659,135.437027 7.04156454,135.437027 C7.33123249,135.437027 7.56823354,135.674691 7.56823354,135.96517 Z" id="Fill-120"></path>
                    <path d="M5.27722339,129.194375 C5.27722339,129.484853 5.04022234,129.722518 4.75055439,129.722518 C4.46088644,129.722518 4.22388539,129.484853 4.22388539,129.194375 C4.22388539,128.903896 4.46088644,128.666232 4.75055439,128.666232 C5.04022234,128.666232 5.27722339,128.903896 5.27722339,129.194375 Z" id="Fill-123"></path>
                    <path d="M3.47074872,122.280981 C3.47074872,122.57146 3.23901436,122.809124 2.94407972,122.809124 C2.65441176,122.809124 2.41741071,122.57146 2.41741071,122.280981 C2.41741071,121.985221 2.65441176,121.752838 2.94407972,121.752838 C3.23901436,121.752838 3.47074872,121.985221 3.47074872,122.280981 Z" id="Fill-126"></path>
                    <path d="M2.16460959,115.251396 C2.16460959,115.547156 1.92760854,115.779539 1.63794059,115.779539 C1.34827264,115.779539 1.11127159,115.547156 1.11127159,115.251396 C1.11127159,114.960917 1.34827264,114.723253 1.63794059,114.723253 C1.92760854,114.723253 2.16460959,114.960917 2.16460959,115.251396 Z" id="Fill-129"></path>
                    <path d="M1.35880602,108.153152 C1.35880602,108.443631 1.12180497,108.681295 0.832137021,108.681295 C0.537202381,108.681295 0.305468021,108.443631 0.305468021,108.153152 C0.305468021,107.857392 0.537202381,107.625009 0.832137021,107.625009 C1.12180497,107.625009 1.35880602,107.857392 1.35880602,108.153152 Z" id="Fill-132"></path>
                    <path d="M1.053338,101.007375 C1.053338,101.297854 0.821603641,101.535519 0.526669001,101.535519 C0.23700105,101.535519 0,101.297854 0,101.007375 C0,100.716897 0.23700105,100.479232 0.526669001,100.479232 C0.821603641,100.479232 1.053338,100.716897 1.053338,101.007375 Z" id="Fill-135"></path>
                    <path d="M1.2640056,93.8615987 C1.2640056,94.1573589 1.02700455,94.3897418 0.737336601,94.3897418 C0.442401961,94.3897418 0.2106676,94.1573589 0.2106676,93.8615987 C0.2106676,93.57112 0.442401961,93.3334556 0.737336601,93.3334556 C1.02700455,93.3334556 1.2640056,93.57112 1.2640056,93.8615987 Z" id="Fill-138"></path>
                    <path d="M1.97500875,86.752792 C1.97500875,87.0432708 1.7380077,87.2809352 1.44833975,87.2809352 C1.1586718,87.2809352 0.921670752,87.0432708 0.921670752,86.752792 C0.921670752,86.4570319 1.1586718,86.2246489 1.44833975,86.2246489 C1.7380077,86.2246489 1.97500875,86.4570319 1.97500875,86.752792 Z" id="Fill-141"></path>
                    <path d="M31.1050712,84.988794 C31.1050712,85.2792727 30.8680701,85.5169371 30.5784022,85.5169371 C30.2887342,85.5169371 30.0517332,85.2792727 30.0517332,84.988794 C30.0517332,84.6983152 30.2887342,84.4606508 30.5784022,84.4606508 C30.8680701,84.4606508 31.1050712,84.6983152 31.1050712,84.988794 Z" id="Fill-144"></path>
                    <path d="M4.90855509,72.7675617 C4.90855509,73.0633219 4.67155404,73.2957049 4.38188609,73.2957049 C4.08695145,73.2957049 3.85521709,73.0633219 3.85521709,72.7675617 C3.85521709,72.477083 4.08695145,72.2394186 4.38188609,72.2394186 C4.67155404,72.2394186 4.90855509,72.477083 4.90855509,72.7675617 Z" id="Fill-147"></path>
                    <path d="M7.11003151,65.9703595 C7.11003151,66.2608382 6.87303046,66.4985027 6.58336251,66.4985027 C6.28842787,66.4985027 6.05669351,66.2608382 6.05669351,65.9703595 C6.05669351,65.6798808 6.28842787,65.4422164 6.58336251,65.4422164 C6.87303046,65.4422164 7.11003151,65.6798808 7.11003151,65.9703595 Z" id="Fill-150"></path>
                    <path d="M9.78551004,59.3474446 C9.78551004,59.6379233 9.55377568,59.8755877 9.25884104,59.8755877 C8.96917309,59.8755877 8.73217204,59.6379233 8.73217204,59.3474446 C8.73217204,59.0569658 8.96917309,58.8193014 9.25884104,58.8193014 C9.55377568,58.8193014 9.78551004,59.0569658 9.78551004,59.3474446 Z" id="Fill-153"></path>
                    <path d="M12.929724,52.9305054 C12.929724,53.2209841 12.6927229,53.4586485 12.403055,53.4586485 C12.113387,53.4586485 11.876386,53.2209841 11.876386,52.9305054 C11.876386,52.6400267 12.113387,52.4023623 12.403055,52.4023623 C12.6927229,52.4023623 12.929724,52.6400267 12.929724,52.9305054 Z" id="Fill-156"></path>
                    <path d="M16.5216066,46.7565121 C16.5216066,47.0469908 16.2846055,47.2846553 15.9949376,47.2846553 C15.7000029,47.2846553 15.4682686,47.0469908 15.4682686,46.7565121 C15.4682686,46.460752 15.7000029,46.228369 15.9949376,46.228369 C16.2846055,46.228369 16.5216066,46.460752 16.5216066,46.7565121 Z" id="Fill-159"></path>
                    <path d="M20.540091,40.8518718 C20.540091,41.1423505 20.30309,41.380015 20.013422,41.380015 C19.7237541,41.380015 19.486753,41.1423505 19.486753,40.8518718 C19.486753,40.5613931 19.7237541,40.3237287 20.013422,40.3237287 C20.30309,40.3237287 20.540091,40.5613931 20.540091,40.8518718 Z" id="Fill-162"></path>
                    <path d="M24.9693773,35.2482731 C24.9693773,35.5387518 24.7323763,35.7764162 24.4427083,35.7764162 C24.1477737,35.7764162 23.9160393,35.5387518 23.9160393,35.2482731 C23.9160393,34.9577944 24.1477737,34.72013 24.4427083,34.72013 C24.7323763,34.72013 24.9693773,34.9577944 24.9693773,35.2482731 Z" id="Fill-165"></path>
                    <path d="M29.783132,29.9774046 C29.783132,30.2678833 29.546131,30.5055477 29.256463,30.5055477 C28.9615284,30.5055477 28.729794,30.2678833 28.729794,29.9774046 C28.729794,29.6869259 28.9615284,29.4492614 29.256463,29.4492614 C29.546131,29.4492614 29.783132,29.6869259 29.783132,29.9774046 Z" id="Fill-168"></path>
                    <path d="M34.9602883,25.0656734 C34.9602883,25.3561521 34.7232872,25.5938165 34.4336193,25.5938165 C34.1386846,25.5938165 33.9069503,25.3561521 33.9069503,25.0656734 C33.9069503,24.7699132 34.1386846,24.5375302 34.4336193,24.5375302 C34.7232872,24.5375302 34.9602883,24.7699132 34.9602883,25.0656734 Z" id="Fill-171"></path>
                    <path d="M40.469246,20.5342053 C40.469246,20.824684 40.232245,21.0623484 39.942577,21.0623484 C39.6529091,21.0623484 39.415908,20.824684 39.415908,20.5342053 C39.415908,20.2384451 39.6529091,20.0060621 39.942577,20.0060621 C40.232245,20.0060621 40.469246,20.2384451 40.469246,20.5342053 Z" id="Fill-174"></path>
                    <path d="M46.2889385,16.4041259 C46.2889385,16.6946046 46.0572041,16.932269 45.7622695,16.932269 C45.4726015,16.932269 45.2356005,16.6946046 45.2356005,16.4041259 C45.2356005,16.1136472 45.4726015,15.8759828 45.7622695,15.8759828 C46.0572041,15.8759828 46.2889385,16.1136472 46.2889385,16.4041259 Z" id="Fill-177"></path>
                    <path d="M52.3877655,12.7018425 C52.3877655,12.9923212 52.1507645,13.2299856 51.8610965,13.2299856 C51.5714286,13.2299856 51.3344275,12.9923212 51.3344275,12.7018425 C51.3344275,12.4113638 51.5714286,12.1736994 51.8610965,12.1736994 C52.1507645,12.1736994 52.3877655,12.4113638 52.3877655,12.7018425 Z" id="Fill-180"></path>
                    <path d="M58.734127,9.44848076 C58.734127,9.73895949 58.4971259,9.9766239 58.207458,9.9766239 C57.91779,9.9766239 57.680789,9.73895949 57.680789,9.44848076 C57.680789,9.1527206 57.91779,8.92033762 58.207458,8.92033762 C58.4971259,8.92033762 58.734127,9.1527206 58.734127,9.44848076 Z" id="Fill-183"></path>
                    <path d="M65.2964227,6.64932212 C65.2964227,6.94508228 65.0594217,7.17746526 64.7697537,7.17746526 C64.4800858,7.17746526 64.2430847,6.94508228 64.2430847,6.64932212 C64.2430847,6.3588434 64.4800858,6.12117898 64.7697537,6.12117898 C65.0594217,6.12117898 65.2964227,6.3588434 65.2964227,6.64932212 Z" id="Fill-186"></path>
                    <path d="M72.0377859,4.33077374 C72.0377859,4.62125247 71.8007849,4.85891688 71.5111169,4.85891688 C71.221449,4.85891688 70.9844479,4.62125247 70.9844479,4.33077374 C70.9844479,4.04029501 71.221449,3.8026306 71.5111169,3.8026306 C71.8007849,3.8026306 72.0377859,4.04029501 72.0377859,4.33077374 Z" id="Fill-189"></path>
                    <path d="M78.9266165,2.49811705 C78.9266165,2.78859577 78.6896154,3.02626019 78.3999475,3.02626019 C78.1102795,3.02626019 77.8732785,2.78859577 77.8732785,2.49811705 C77.8732785,2.20763832 78.1102795,1.96997391 78.3999475,1.96997391 C78.6896154,1.96997391 78.9266165,2.20763832 78.9266165,2.49811705 Z" id="Fill-192"></path>
                    <path d="M92.2513422,43.413366 C92.2513422,43.7038448 92.0143412,43.9415092 91.7246732,43.9415092 C91.4350053,43.9415092 91.1980042,43.7038448 91.1980042,43.413366 C91.1980042,43.1228873 91.4350053,42.8852229 91.7246732,42.8852229 C92.0143412,42.8852229 92.2513422,43.1228873 92.2513422,43.413366 Z" id="Fill-195"></path>
                    <path d="M94.0630836,16.1770244 C94.0630836,16.4675031 93.8260825,16.7051675 93.5364146,16.7051675 C93.2467466,16.7051675 93.0097456,16.4675031 93.0097456,16.1770244 C93.0097456,15.8812642 93.2467466,15.6488812 93.5364146,15.6488812 C93.8260825,15.6488812 94.0630836,15.8812642 94.0630836,16.1770244 Z" id="Fill-198"></path>
                    <path d="M100.13031,26.4124384 C100.13031,26.7029171 99.8933094,26.9405815 99.6036415,26.9405815 C99.3139735,26.9405815 99.0769725,26.7029171 99.0769725,26.4124384 C99.0769725,26.1219597 99.3139735,25.8842953 99.6036415,25.8842953 C99.8933094,25.8842953 100.13031,26.1219597 100.13031,26.4124384 Z" id="Fill-201"></path>
                    <path d="M106.729473,5.47156292 C106.729473,5.76204165 106.492472,5.99970606 106.202804,5.99970606 C105.913136,5.99970606 105.676135,5.76204165 105.676135,5.47156292 C105.676135,5.1810842 105.913136,4.94341978 106.202804,4.94341978 C106.492472,4.94341978 106.729473,5.1810842 106.729473,5.47156292 Z" id="Fill-204"></path>
                    <path d="M114.350373,0.881999042 C114.350373,1.17247777 114.113372,1.41014218 113.823704,1.41014218 C113.534037,1.41014218 113.297035,1.17247777 113.297035,0.881999042 C113.297035,0.591520316 113.534037,0.353855903 113.823704,0.353855903 C114.113372,0.353855903 114.350373,0.591520316 114.350373,0.881999042 Z" id="Fill-207"></path>
                    <path d="M121.381405,2.07560254 C121.381405,2.37136269 121.144404,2.60374568 120.854736,2.60374568 C120.559801,2.60374568 120.328067,2.37136269 120.328067,2.07560254 C120.328067,1.78512381 120.559801,1.5474594 120.854736,1.5474594 C121.144404,1.5474594 121.381405,1.78512381 121.381405,2.07560254 Z" id="Fill-210"></path>
                    <path d="M128.301835,3.77094201 C128.301835,4.06670217 128.070101,4.29908515 127.775166,4.29908515 C127.485498,4.29908515 127.248497,4.06670217 127.248497,3.77094201 C127.248497,3.48046329 127.485498,3.24279887 127.775166,3.24279887 C128.070101,3.24279887 128.301835,3.48046329 128.301835,3.77094201 Z" id="Fill-213"></path>
                    <path d="M117.710522,53.4903371 C117.710522,53.7860973 117.473521,54.0184803 117.183853,54.0184803 C116.894185,54.0184803 116.657184,53.7860973 116.657184,53.4903371 C116.657184,53.1998584 116.894185,52.962194 117.183853,52.962194 C117.473521,52.962194 117.710522,53.1998584 117.710522,53.4903371 Z" id="Fill-216"></path>
                    <path d="M141.705561,8.62457746 C141.705561,8.91505619 141.46856,9.1527206 141.178892,9.1527206 C140.889224,9.1527206 140.652223,8.91505619 140.652223,8.62457746 C140.652223,8.33409874 140.889224,8.09643432 141.178892,8.09643432 C141.46856,8.09643432 141.705561,8.33409874 141.705561,8.62457746 Z" id="Fill-219"></path>
                    <path d="M144.955109,17.0378977 C144.955109,17.3283764 144.718108,17.5660408 144.42844,17.5660408 C144.138772,17.5660408 143.901771,17.3283764 143.901771,17.0378977 C143.901771,16.7421375 144.138772,16.5097545 144.42844,16.5097545 C144.718108,16.5097545 144.955109,16.7421375 144.955109,17.0378977 Z" id="Fill-222"></path>
                    <path d="M154.282417,15.3319953 C154.282417,15.6277555 154.050683,15.8601385 153.755748,15.8601385 C153.46608,15.8601385 153.229079,15.6277555 153.229079,15.3319953 C153.229079,15.0415166 153.46608,14.8038522 153.755748,14.8038522 C154.050683,14.8038522 154.282417,15.0415166 154.282417,15.3319953 Z" id="Fill-225"></path>
                    <path d="M160.186377,19.3458832 C160.186377,19.6363619 159.949376,19.8740263 159.659708,19.8740263 C159.364773,19.8740263 159.133039,19.6363619 159.133039,19.3458832 C159.133039,19.050123 159.364773,18.81774 159.659708,18.81774 C159.949376,18.81774 160.186377,19.050123 160.186377,19.3458832 Z" id="Fill-228"></path>
                    <path d="M165.784868,23.7664413 C165.784868,24.05692 165.547867,24.2945844 165.258199,24.2945844 C164.968531,24.2945844 164.73153,24.05692 164.73153,23.7664413 C164.73153,23.4759625 164.968531,23.2382981 165.258199,23.2382981 C165.547867,23.2382981 165.784868,23.4759625 165.784868,23.7664413 Z" id="Fill-231"></path>
                    <path d="M171.056825,28.5778253 C171.056825,28.868304 170.819824,29.1059684 170.530156,29.1059684 C170.240488,29.1059684 170.003487,28.868304 170.003487,28.5778253 C170.003487,28.2873465 170.240488,28.0496821 170.530156,28.0496821 C170.819824,28.0496821 171.056825,28.2873465 171.056825,28.5778253 Z" id="Fill-234"></path>
                    <path d="M169.655885,38.5069163 C169.655885,38.797395 169.418884,39.0350594 169.129216,39.0350594 C168.839548,39.0350594 168.602547,38.797395 168.602547,38.5069163 C168.602547,38.2111561 168.839548,37.9787731 169.129216,37.9787731 C169.418884,37.9787731 169.655885,38.2111561 169.655885,38.5069163 Z" id="Fill-237"></path>
                    <path d="M146.277048,65.1411748 C146.277048,65.4369349 146.045314,65.6693179 145.750379,65.6693179 C145.460711,65.6693179 145.22371,65.4369349 145.22371,65.1411748 C145.22371,64.8506961 145.460711,64.6130316 145.750379,64.6130316 C146.045314,64.6130316 146.277048,64.8506961 146.277048,65.1411748 Z" id="Fill-240"></path>
                    <path d="M184.650152,45.0875798 C184.650152,45.3780585 184.413151,45.6157229 184.123483,45.6157229 C183.828548,45.6157229 183.596814,45.3780585 183.596814,45.0875798 C183.596814,44.7971011 183.828548,44.5594367 184.123483,44.5594367 C184.413151,44.5594367 184.650152,44.7971011 184.650152,45.0875798 Z" id="Fill-243"></path>
                    <path d="M188.357901,51.1929145 C188.357901,51.4833932 188.1209,51.7210576 187.831232,51.7210576 C187.541565,51.7210576 187.304563,51.4833932 187.304563,51.1929145 C187.304563,50.8971543 187.541565,50.6647713 187.831232,50.6647713 C188.1209,50.6647713 188.357901,50.8971543 188.357901,51.1929145 Z" id="Fill-246"></path>
                    <path d="M191.628516,57.541195 C191.628516,57.8369552 191.391515,58.0693382 191.101847,58.0693382 C190.812179,58.0693382 190.575178,57.8369552 190.575178,57.541195 C190.575178,57.2507163 190.812179,57.0130519 191.101847,57.0130519 C191.391515,57.0130519 191.628516,57.2507163 191.628516,57.541195 Z" id="Fill-249"></path>
                    <path d="M194.435662,64.1112957 C194.435662,64.4070558 194.198661,64.6394388 193.908993,64.6394388 C193.619325,64.6394388 193.382324,64.4070558 193.382324,64.1112957 C193.382324,63.8208169 193.619325,63.5831525 193.908993,63.5831525 C194.198661,63.5831525 194.435662,63.8208169 194.435662,64.1112957 Z" id="Fill-252"></path>
                    <path d="M196.774072,70.8662464 C196.774072,71.1567251 196.537071,71.3943896 196.247403,71.3943896 C195.952468,71.3943896 195.720734,71.1567251 195.720734,70.8662464 C195.720734,70.5757677 195.952468,70.3381033 196.247403,70.3381033 C196.537071,70.3381033 196.774072,70.5757677 196.774072,70.8662464 Z" id="Fill-255"></path>
                    <path d="M198.62268,77.7690772 C198.62268,78.059556 198.385679,78.2972204 198.096011,78.2972204 C197.806343,78.2972204 197.569342,78.059556 197.569342,77.7690772 C197.569342,77.4785985 197.806343,77.2409341 198.096011,77.2409341 C198.385679,77.2409341 198.62268,77.4785985 198.62268,77.7690772 Z" id="Fill-258"></path>
                    <path d="M182.069474,87.9569584 C182.069474,88.2474371 181.832473,88.4851015 181.542805,88.4851015 C181.253137,88.4851015 181.016136,88.2474371 181.016136,87.9569584 C181.016136,87.6664797 181.253137,87.4288153 181.542805,87.4288153 C181.832473,87.4288153 182.069474,87.6664797 182.069474,87.9569584 Z" id="Fill-261"></path>
                    <path d="M200.829423,91.8863434 C200.829423,92.1768221 200.597689,92.4144865 200.302754,92.4144865 C200.013086,92.4144865 199.776085,92.1768221 199.776085,91.8863434 C199.776085,91.5905832 200.013086,91.3582002 200.302754,91.3582002 C200.597689,91.3582002 200.829423,91.5905832 200.829423,91.8863434 Z" id="Fill-264"></path>
                    <path d="M201.177025,99.0215572 C201.177025,99.3173173 200.945291,99.5497003 200.650356,99.5497003 C200.360688,99.5497003 200.123687,99.3173173 200.123687,99.0215572 C200.123687,98.7310784 200.360688,98.493414 200.650356,98.493414 C200.945291,98.493414 201.177025,98.7310784 201.177025,99.0215572 Z" id="Fill-267"></path>
                </g>
            </g>
        </g>
    </g>
</svg>