<?xml version="1.0" encoding="UTF-8"?>
<svg width="300px" height="225px" viewBox="0 0 300 225" version="1.1" xmlns="http://www.w3.org/2000/svg" xmlns:xlink="http://www.w3.org/1999/xlink">
    <!-- Generator: Sketch 42 (36781) - http://www.bohemiancoding.com/sketch -->
    <title>__regular</title>
    <desc>Created with Sketch.</desc>
    <defs></defs>
    <g id="Page-1" stroke="none" stroke-width="1" fill="none" fill-rule="evenodd">
        <g id="__regular">
            <g id="block.visualisation" transform="translate(72.000000, 29.000000)">
                <ellipse id="Oval" fill="#0D6B56" cx="49.815169" cy="141.822708" rx="24.783798" ry="24.8013928"></ellipse>
                <ellipse id="Oval" fill="#F8D754" cx="74.6187466" cy="42.0022614" rx="9.95080949" ry="9.95787385"></ellipse>
                <ellipse id="Oval" fill="#0A3342" cx="90.5899237" cy="141.724333" rx="15.5853473" ry="15.5964118"></ellipse>
                <ellipse id="Oval" fill="#BBE981" cx="133.394955" cy="50.5102452" rx="31.228846" ry="31.2510163"></ellipse>
                <ellipse id="Oval" fill="#F9D853" cx="75.7414906" cy="118.185205" rx="10.3197146" ry="10.3270409"></ellipse>
                <ellipse id="Oval" fill="#BBE981" cx="99.8678836" cy="113.037897" rx="14.615853" ry="14.6262292"></ellipse>
                <ellipse id="Oval" fill="#FFFFFF" cx="93.9146622" cy="44.4037994" rx="8.34928321" ry="8.3552106"></ellipse>
                <ellipse id="Oval" fill="#FFFFFF" cx="28.7660809" cy="107.711747" rx="15.1278746" ry="15.1386143"></ellipse>
                <ellipse id="Oval" fill="#0A3342" cx="97.3339222" cy="23.6589672" rx="12.7620844" ry="12.7711446"></ellipse>
                <ellipse id="Oval" fill="#0D6B56" cx="32.5928151" cy="48.5422369" rx="32.5140979" ry="32.5371806"></ellipse>
                <ellipse id="Oval" fill="#0A3342" cx="83.2506768" cy="76.322637" rx="25.6565694" ry="25.6747838"></ellipse>
                <ellipse id="Oval" fill="#0A3342" cx="56.6714598" cy="104.375666" rx="13.2674483" ry="13.2768673"></ellipse>
                <ellipse id="Oval" fill="#0D6B56" cx="120.522013" cy="103.112745" rx="8.38153638" ry="8.38748667"></ellipse>
                <ellipse id="Oval" fill="#F9D853" cx="42.1270029" cy="88.2991986" rx="8.40344127" ry="8.40940712"></ellipse>
                <ellipse id="Oval" fill="#BBE981" cx="69.1624045" cy="16.3101126" rx="16.2965131" ry="16.3080825"></ellipse>
                <ellipse id="Oval" fill="#0D6B56" cx="115.999555" cy="86.6123918" rx="8.6939646" ry="8.70013669"></ellipse>
                <ellipse id="Oval" fill="#0D6B56" cx="16.564527" cy="86.8296171" rx="9.04489472" ry="9.05131595"></ellipse>
            </g>
        </g>
    </g>
</svg>