<?xml version="1.0" encoding="utf-8"?>
<!-- Generator: Adobe Illustrator 16.0.0, SVG Export Plug-In . SVG Version: 6.00 Build 0)  -->
<!DOCTYPE svg PUBLIC "-//W3C//DTD SVG 1.1//EN" "http://www.w3.org/Graphics/SVG/1.1/DTD/svg11.dtd">
<svg version="1.1" xmlns="http://www.w3.org/2000/svg" xmlns:xlink="http://www.w3.org/1999/xlink" x="0px" y="0px" width="300px"
	 height="225px" viewBox="0 0 300 225" enable-background="new 0 0 300 225" xml:space="preserve">
<g id="Focus_Background">
</g>
<g id="Focus">
	<g>
		<defs>
			<polygon id="Background_4_" points="1438,-20 -2,-20 -2,-459 1435.193,-459 			"/>
		</defs>
		<clipPath id="Background_5_">
			<use xlink:href="#Background_4_"  overflow="visible"/>
		</clipPath>
	</g>
</g>
<g id="Default">
	<g>
		<g>
			<g>
				<g>
					<path fill="#00BDCC" d="M56.225,162.014c-1.657,0-3-1.343-3-3s1.343-3,3-3c7.16,0,10.927-0.003,14.723-0.007
						c3.859-0.003,7.75-0.007,15.261-0.007c5.985,0,9.065-4.109,12.632-8.868c3.911-5.218,8.344-11.132,17.127-11.132
						c8.848,0,13.506,5.998,17.615,11.29c3.629,4.674,6.763,8.71,12.3,8.71h29.806c4.757,0,7.409-3.15,11.341-8.289
						c3.992-5.218,8.96-11.711,18.465-11.711c9.057,0,13.022,5.729,16.521,10.783C225.439,151.729,228.396,156,236,156
						c1.657,0,3,1.343,3,3s-1.343,3-3,3c-10.748,0-15.278-6.544-18.917-11.802c-3.17-4.58-5.675-8.198-11.587-8.198
						c-6.542,0-9.859,4.336-13.7,9.356c-3.817,4.989-8.144,10.644-16.106,10.644h-29.806c-8.475,0-13.025-5.86-17.04-11.03
						c-3.737-4.812-6.965-8.97-12.876-8.97c-5.782,0-8.815,4.046-12.326,8.73C99.683,156.013,95.195,162,86.209,162
						c-7.509,0-11.398,0.004-15.256,0.007C67.155,162.011,63.387,162.014,56.225,162.014z"/>
					<path fill="#B1C64B" d="M236,102h-30.504c-8.689,0-13.132-5.918-17.053-11.139c-3.57-4.755-6.654-8.861-12.52-8.861h-30.039
						c-5.095,0-7.104,2.776-10.217,7.684c-3.481,5.487-7.813,12.316-19.59,12.316H56c-1.657,0-3-1.343-3-3s1.343-3,3-3h60.077
						c8.477,0,11.279-4.417,14.523-9.53c3.113-4.907,6.642-10.47,15.284-10.47h30.039c8.863,0,13.354,5.981,17.317,11.259
						c3.522,4.69,6.564,8.741,12.255,8.741H236c1.657,0,3,1.343,3,3S237.657,102,236,102z"/>
					<path fill="#37C3A2" d="M205.496,162c-8.96,0-13.56-6.049-17.619-11.387c-3.515-4.622-6.55-8.613-11.954-8.613h-29.807
						c-8.872,0-13.371-5.917-17.341-11.138C125.159,126.107,122.036,122,116,122c-5.392,0-7.816,3.109-11.327,8.183
						C101.031,135.448,96.499,142,86,142H56c-1.657,0-3-1.343-3-3s1.343-3,3-3h30c7.354,0,10.313-4.277,13.739-9.23
						c3.492-5.048,7.45-10.77,16.261-10.77c9.011,0,13.548,5.967,17.551,11.23c3.578,4.706,6.668,8.77,12.565,8.77h29.807
						c8.379,0,12.815,5.834,16.73,10.981c3.68,4.84,6.858,9.019,12.843,9.019c5.283,0,7.795-3.104,11.457-8.17
						C220.762,142.56,225.504,136,236,136c1.657,0,3,1.343,3,3s-1.343,3-3,3c-7.43,0-10.561,4.331-14.186,9.345
						C218.205,156.34,214.112,162,205.496,162z"/>
					<path fill="#6DC978" d="M236,122h-30.504c-6.191,0-10.549-5.052-14.765-9.938c-4.465-5.175-8.682-10.062-14.808-10.062h-30.039
						c-8.653,0-13.104-5.882-17.031-11.07c-3.626-4.792-6.757-8.93-12.776-8.93H56c-1.657,0-3-1.343-3-3s1.343-3,3-3h60.077
						c9.003,0,13.549,6.008,17.561,11.309c3.529,4.664,6.577,8.691,12.246,8.691h30.039c8.874,0,14.44,6.451,19.351,12.144
						c3.486,4.04,6.779,7.856,10.222,7.856H236c1.657,0,3,1.343,3,3S237.657,122,236,122z"/>
					<path fill="#F4C31E" d="M116,162c-9.908,0-13.705-10.992-17.376-21.623C94.789,129.276,91.839,122,86,122H56
						c-1.657,0-3-1.343-3-3s1.343-3,3-3h30c10.552,0,14.665,11.91,18.295,22.418C107.417,147.46,110.367,156,116,156
						c5.71,0,8.924-9.064,12.032-17.83c3.685-10.392,7.861-22.17,18.084-22.17h29.807c5.092,0,7.751-8.132,10.566-16.741
						C190.054,88.356,194.095,76,205.496,76H236c1.657,0,3,1.343,3,3s-1.343,3-3,3h-30.504c-6.559,0-9.526,7.572-13.303,19.124
						c-3.356,10.263-6.827,20.876-16.27,20.876h-29.807c-5.985,0-9.261,9.239-12.43,18.175C129.882,150.905,125.948,162,116,162z"/>
				</g>
				<g>
					<g>
						<g>
							<circle fill="#F4C31E" cx="237.5" cy="78.5" r="4.5"/>
							<path fill="#FFFFFF" d="M237.5,74c2.484,0,4.5,2.016,4.5,4.5s-2.016,4.5-4.5,4.5s-4.5-2.016-4.5-4.5S235.016,74,237.5,74
								 M237.5,72c-3.584,0-6.5,2.916-6.5,6.5s2.916,6.5,6.5,6.5s6.5-2.916,6.5-6.5S241.084,72,237.5,72L237.5,72z"/>
						</g>
					</g>
					<g>
						<g>
							<g>
								<path fill="#FFFFFF" d="M237.156,81.225V77.24c-0.234,0.131-0.84,0.221-1.067,0.221l-0.048-0.641
									c0.633-0.055,1.081-0.22,1.404-0.578h0.495v4.982H237.156z"/>
							</g>
						</g>
					</g>
				</g>
				<g>
					<g>
						<g>
							<circle fill="#B1C64B" cx="237.5" cy="98.5" r="4.5"/>
							<path fill="#FFFFFF" d="M237.5,94c2.484,0,4.5,2.016,4.5,4.5s-2.016,4.5-4.5,4.5s-4.5-2.016-4.5-4.5S235.016,94,237.5,94
								 M237.5,92c-3.584,0-6.5,2.916-6.5,6.5s2.916,6.5,6.5,6.5s6.5-2.916,6.5-6.5S241.084,92,237.5,92L237.5,92z"/>
						</g>
					</g>
					<g>
						<g>
							<g>
								<path fill="#FFFFFF" d="M238.708,97.412c0,0.736-0.378,1.239-1.081,2.037l-0.95,1.088v0.014h2.099v0.674h-3v-0.66
									l1.122-1.335c0.667-0.792,1.012-1.204,1.012-1.79c0-0.447-0.255-0.639-0.695-0.639c-0.571,0-0.736,0.322-0.812,0.798
									l-0.702-0.124c0.124-0.936,0.777-1.321,1.589-1.321C238.179,96.153,238.708,96.58,238.708,97.412z"/>
							</g>
						</g>
					</g>
				</g>
				<g>
					<g>
						<g>
							<circle fill="#6DC978" cx="237.5" cy="118.5" r="4.5"/>
							<path fill="#FFFFFF" d="M237.5,114c2.484,0,4.5,2.016,4.5,4.5s-2.016,4.5-4.5,4.5s-4.5-2.016-4.5-4.5S235.016,114,237.5,114
								 M237.5,112c-3.584,0-6.5,2.916-6.5,6.5s2.916,6.5,6.5,6.5s6.5-2.916,6.5-6.5S241.084,112,237.5,112L237.5,112z"/>
						</g>
					</g>
					<g>
						<g>
							<g>
								<path fill="#FFFFFF" d="M236.303,119.952c0.069,0.434,0.234,0.708,0.812,0.708c0.461,0,0.846-0.247,0.846-0.873
									c0-0.633-0.365-0.854-0.95-0.854h-0.461v-0.627h0.316c0.654,0,1.025-0.336,1.025-0.859c0-0.379-0.165-0.654-0.695-0.654
									c-0.523,0-0.695,0.234-0.798,0.668l-0.688-0.145c0.165-0.874,0.812-1.163,1.569-1.163c0.908,0,1.397,0.461,1.397,1.19
									c0,0.709-0.509,1.066-0.95,1.197v0.021c0.654,0.13,1.046,0.509,1.046,1.259c0,0.901-0.667,1.486-1.665,1.486
									c-0.798,0-1.418-0.345-1.521-1.218L236.303,119.952z"/>
							</g>
						</g>
					</g>
				</g>
				<g>
					<g>
						<g>
							<circle fill="#37C3A2" cx="237.5" cy="138.5" r="4.5"/>
							<path fill="#FFFFFF" d="M237.5,134c2.484,0,4.5,2.016,4.5,4.5s-2.016,4.5-4.5,4.5s-4.5-2.016-4.5-4.5S235.016,134,237.5,134
								 M237.5,132c-3.584,0-6.5,2.916-6.5,6.5s2.916,6.5,6.5,6.5s6.5-2.916,6.5-6.5S241.084,132,237.5,132L237.5,132z"/>
						</g>
					</g>
					<g>
						<g>
							<g>
								<path fill="#FFFFFF" d="M237.728,141.225v-1.184h-2.271v-0.57l2.064-3.229h0.978v3.146h0.578v0.653h-0.585v1.184H237.728z
									 M237.734,139.388v-2.401l-1.542,2.401H237.734z"/>
							</g>
						</g>
					</g>
				</g>
				<g>
					<g>
						<g>
							<circle fill="#00BDCC" cx="237.5" cy="158.5" r="4.5"/>
							<path fill="#FFFFFF" d="M237.5,154c2.484,0,4.5,2.016,4.5,4.5s-2.016,4.5-4.5,4.5s-4.5-2.016-4.5-4.5S235.016,154,237.5,154
								 M237.5,152c-3.584,0-6.5,2.916-6.5,6.5s2.916,6.5,6.5,6.5s6.5-2.916,6.5-6.5S241.084,152,237.5,152L237.5,152z"/>
						</g>
					</g>
					<g>
						<g>
							<g>
								<path fill="#FFFFFF" d="M236.024,156.242h2.478v0.675h-1.886l-0.138,1.473c0.227-0.186,0.53-0.33,0.97-0.33
									c0.702,0,1.349,0.386,1.349,1.521c0,1.047-0.682,1.728-1.728,1.728c-0.736,0-1.411-0.337-1.535-1.218l0.709-0.145
									c0.069,0.393,0.269,0.715,0.839,0.715c0.461,0,0.909-0.303,0.909-1.053c0-0.681-0.365-0.9-0.812-0.9
									c-0.324,0-0.599,0.15-0.819,0.364l-0.53-0.228L236.024,156.242z"/>
							</g>
						</g>
					</g>
				</g>
				<g>
					<g>
						<g opacity="0.5">
							<g>
								<g>
									<circle fill="#FFFFFF" cx="57" cy="79" r="2.005"/>
								</g>
							</g>
						</g>
					</g>
					<g>
						<g opacity="0.5">
							<g>
								<g>
									<circle fill="#FFFFFF" cx="86.333" cy="79" r="2.005"/>
								</g>
							</g>
						</g>
					</g>
					<g>
						<g opacity="0.5">
							<g>
								<g>
									<circle fill="#FFFFFF" cx="115.667" cy="79" r="2.005"/>
								</g>
							</g>
						</g>
					</g>
					<g>
						<g opacity="0.5">
							<g>
								<g>
									<circle fill="#FFFFFF" cx="145.5" cy="79" r="2.005"/>
								</g>
							</g>
						</g>
					</g>
					<g>
						<g opacity="0.5">
							<g>
								<g>
									<circle fill="#FFFFFF" cx="175" cy="79" r="2.005"/>
								</g>
							</g>
						</g>
					</g>
					<g>
						<g opacity="0.5">
							<g>
								<g>
									<circle fill="#FFFFFF" cx="204.5" cy="79" r="2.005"/>
								</g>
							</g>
						</g>
					</g>
					<g>
						<g opacity="0.5">
							<g>
								<g>
									<circle fill="#FFFFFF" cx="57" cy="99" r="2.005"/>
								</g>
							</g>
						</g>
					</g>
					<g>
						<g opacity="0.5">
							<g>
								<g>
									<circle fill="#FFFFFF" cx="86.333" cy="99" r="2.005"/>
								</g>
							</g>
						</g>
					</g>
					<g>
						<g opacity="0.5">
							<g>
								<g>
									<circle fill="#FFFFFF" cx="115.667" cy="99" r="2.005"/>
								</g>
							</g>
						</g>
					</g>
					<g>
						<g opacity="0.5">
							<g>
								<g>
									<circle fill="#FFFFFF" cx="145.5" cy="99" r="2.005"/>
								</g>
							</g>
						</g>
					</g>
					<g>
						<g opacity="0.5">
							<g>
								<g>
									<circle fill="#FFFFFF" cx="175" cy="99" r="2.005"/>
								</g>
							</g>
						</g>
					</g>
					<g>
						<g opacity="0.5">
							<g>
								<g>
									<circle fill="#FFFFFF" cx="204.5" cy="99" r="2.005"/>
								</g>
							</g>
						</g>
					</g>
					<g>
						<g opacity="0.5">
							<g>
								<g>
									<circle fill="#FFFFFF" cx="57" cy="119" r="2.005"/>
								</g>
							</g>
						</g>
					</g>
					<g>
						<g opacity="0.5">
							<g>
								<g>
									<circle fill="#FFFFFF" cx="86.333" cy="119" r="2.005"/>
								</g>
							</g>
						</g>
					</g>
					<g>
						<g opacity="0.5">
							<g>
								<g>
									<circle fill="#FFFFFF" cx="115.667" cy="119" r="2.005"/>
								</g>
							</g>
						</g>
					</g>
					<g>
						<g opacity="0.5">
							<g>
								<g>
									<circle fill="#FFFFFF" cx="145.5" cy="119" r="2.005"/>
								</g>
							</g>
						</g>
					</g>
					<g>
						<g opacity="0.5">
							<g>
								<g>
									<circle fill="#FFFFFF" cx="175" cy="119" r="2.005"/>
								</g>
							</g>
						</g>
					</g>
					<g>
						<g opacity="0.5">
							<g>
								<g>
									<circle fill="#FFFFFF" cx="204.5" cy="119" r="2.005"/>
								</g>
							</g>
						</g>
					</g>
					<g>
						<g opacity="0.5">
							<g>
								<g>
									<circle fill="#FFFFFF" cx="57" cy="139" r="2.005"/>
								</g>
							</g>
						</g>
					</g>
					<g>
						<g opacity="0.5">
							<g>
								<g>
									<circle fill="#FFFFFF" cx="86.333" cy="139" r="2.005"/>
								</g>
							</g>
						</g>
					</g>
					<g>
						<g opacity="0.5">
							<g>
								<g>
									<circle fill="#FFFFFF" cx="115.667" cy="139" r="2.005"/>
								</g>
							</g>
						</g>
					</g>
					<g>
						<g opacity="0.5">
							<g>
								<g>
									<circle fill="#FFFFFF" cx="145.5" cy="139" r="2.005"/>
								</g>
							</g>
						</g>
					</g>
					<g>
						<g opacity="0.5">
							<g>
								<g>
									<circle fill="#FFFFFF" cx="175" cy="139" r="2.005"/>
								</g>
							</g>
						</g>
					</g>
					<g>
						<g opacity="0.5">
							<g>
								<g>
									<circle fill="#FFFFFF" cx="204.5" cy="139" r="2.005"/>
								</g>
							</g>
						</g>
					</g>
					<g>
						<g opacity="0.5">
							<g>
								<g>
									<circle fill="#FFFFFF" cx="57" cy="159" r="2.005"/>
								</g>
							</g>
						</g>
					</g>
					<g>
						<g opacity="0.5">
							<g>
								<g>
									<circle fill="#FFFFFF" cx="86.333" cy="159" r="2.005"/>
								</g>
							</g>
						</g>
					</g>
					<g>
						<g opacity="0.5">
							<g>
								<g>
									<circle fill="#FFFFFF" cx="115.667" cy="159" r="2.005"/>
								</g>
							</g>
						</g>
					</g>
					<g>
						<g opacity="0.5">
							<g>
								<g>
									<circle fill="#FFFFFF" cx="145.5" cy="159" r="2.005"/>
								</g>
							</g>
						</g>
					</g>
					<g>
						<g opacity="0.5">
							<g>
								<g>
									<circle fill="#FFFFFF" cx="175" cy="159" r="2.005"/>
								</g>
							</g>
						</g>
					</g>
					<g>
						<g opacity="0.5">
							<g>
								<g>
									<circle fill="#FFFFFF" cx="204.5" cy="159" r="2.005"/>
								</g>
							</g>
						</g>
					</g>
				</g>
			</g>
		</g>
	</g>
</g>
<g id="_x5F_vector_assets" display="none">
	<g display="inline">
		<g>
			<g>
				<g>
					<path fill="none" stroke="#00BDCC" stroke-width="6" stroke-linecap="round" stroke-miterlimit="10" d="M56.225,159.014
						c14.437,0,15.082-0.014,29.984-0.014s15.127-20,29.759-20s15.782,20,29.916,20s16.366,0,29.806,0s14.311-20,29.806-20
						S218.25,159,236,159"/>
					<path fill="none" stroke="#B1C64B" stroke-width="6" stroke-linecap="round" stroke-miterlimit="10" d="M236,99
						c0,0-16.067,0-30.504,0c-14.438,0-14.903-20-29.573-20c-14.671,0-15.137,0-30.039,0c-14.903,0-10.729,20-29.807,20
						S101.36,99,86,99s-11.75,0-30,0"/>
					<path fill="none" stroke="#37C3A2" stroke-width="6" stroke-linecap="round" stroke-miterlimit="10" d="M56,139
						c0,0,12.75,0,30,0s15-20,30-20s15.302,20,30.116,20s15.834,0,29.807,0c13.971,0,14.827,20,29.573,20S218.75,139,236,139"/>
					<path fill="none" stroke="#6DC978" stroke-width="6" stroke-linecap="round" stroke-miterlimit="10" d="M236,119
						c0,0-20.103,0-30.504,0c-10.4,0-15.602-20-29.573-20h-30.039c-14.438,0-14.903-20-29.807-20C101.175,79,56,79,56,79"/>
					<path fill="none" stroke="#F4C31E" stroke-width="6" stroke-linecap="round" stroke-miterlimit="10" d="M236,79
						c0,0-12.759,0-30.504,0s-14.436,40-29.573,40s-13.69,0-29.807,0S131.749,159,116,159s-13.393-40-30-40s-30,0-30,0"/>
				</g>
				<g>
					<g>
						<g>
							<path fill="#F4C31E" d="M237.5,84c-3.033,0-5.5-2.468-5.5-5.5s2.467-5.5,5.5-5.5s5.5,2.468,5.5,5.5S240.533,84,237.5,84z"/>
							<path fill="#FFFFFF" d="M237.5,74c2.484,0,4.5,2.016,4.5,4.5s-2.016,4.5-4.5,4.5s-4.5-2.016-4.5-4.5S235.016,74,237.5,74
								 M237.5,72c-3.584,0-6.5,2.916-6.5,6.5s2.916,6.5,6.5,6.5s6.5-2.916,6.5-6.5S241.084,72,237.5,72L237.5,72z"/>
						</g>
					</g>
					<g>
						<g>
							<g>
								<path fill="#FFFFFF" d="M237.156,81.225V77.24c-0.234,0.131-0.84,0.221-1.067,0.221l-0.048-0.641
									c0.633-0.055,1.081-0.22,1.404-0.578h0.495v4.982H237.156z"/>
							</g>
						</g>
					</g>
				</g>
				<g>
					<g>
						<g>
							<path fill="#B1C64B" d="M237.5,104c-3.033,0-5.5-2.468-5.5-5.5s2.467-5.5,5.5-5.5s5.5,2.468,5.5,5.5S240.533,104,237.5,104z"
								/>
							<path fill="#FFFFFF" d="M237.5,94c2.484,0,4.5,2.016,4.5,4.5s-2.016,4.5-4.5,4.5s-4.5-2.016-4.5-4.5S235.016,94,237.5,94
								 M237.5,92c-3.584,0-6.5,2.916-6.5,6.5s2.916,6.5,6.5,6.5s6.5-2.916,6.5-6.5S241.084,92,237.5,92L237.5,92z"/>
						</g>
					</g>
					<g>
						<g>
							<g>
								<path fill="#FFFFFF" d="M238.708,97.412c0,0.736-0.378,1.239-1.081,2.037l-0.95,1.088v0.014h2.099v0.674h-3v-0.66
									l1.122-1.335c0.667-0.792,1.012-1.204,1.012-1.79c0-0.447-0.255-0.639-0.695-0.639c-0.571,0-0.736,0.322-0.812,0.798
									l-0.702-0.124c0.124-0.936,0.777-1.321,1.589-1.321C238.179,96.153,238.708,96.58,238.708,97.412z"/>
							</g>
						</g>
					</g>
				</g>
				<g>
					<g>
						<g>
							<path fill="#6DC978" d="M237.5,124c-3.033,0-5.5-2.468-5.5-5.5s2.467-5.5,5.5-5.5s5.5,2.468,5.5,5.5S240.533,124,237.5,124z"
								/>
							<path fill="#FFFFFF" d="M237.5,114c2.484,0,4.5,2.016,4.5,4.5s-2.016,4.5-4.5,4.5s-4.5-2.016-4.5-4.5S235.016,114,237.5,114
								 M237.5,112c-3.584,0-6.5,2.916-6.5,6.5s2.916,6.5,6.5,6.5s6.5-2.916,6.5-6.5S241.084,112,237.5,112L237.5,112z"/>
						</g>
					</g>
					<g>
						<g>
							<g>
								<path fill="#FFFFFF" d="M236.303,119.952c0.069,0.434,0.234,0.708,0.812,0.708c0.461,0,0.846-0.247,0.846-0.873
									c0-0.633-0.365-0.854-0.95-0.854h-0.461v-0.627h0.316c0.654,0,1.025-0.336,1.025-0.859c0-0.379-0.165-0.654-0.695-0.654
									c-0.523,0-0.695,0.234-0.798,0.668l-0.688-0.145c0.165-0.874,0.812-1.163,1.569-1.163c0.908,0,1.397,0.461,1.397,1.19
									c0,0.709-0.509,1.066-0.95,1.197v0.021c0.654,0.13,1.046,0.509,1.046,1.259c0,0.901-0.667,1.486-1.665,1.486
									c-0.798,0-1.418-0.345-1.521-1.218L236.303,119.952z"/>
							</g>
						</g>
					</g>
				</g>
				<g>
					<g>
						<g>
							<path fill="#37C3A2" d="M237.5,144c-3.033,0-5.5-2.468-5.5-5.5s2.467-5.5,5.5-5.5s5.5,2.468,5.5,5.5S240.533,144,237.5,144z"
								/>
							<path fill="#FFFFFF" d="M237.5,134c2.484,0,4.5,2.016,4.5,4.5s-2.016,4.5-4.5,4.5s-4.5-2.016-4.5-4.5S235.016,134,237.5,134
								 M237.5,132c-3.584,0-6.5,2.916-6.5,6.5s2.916,6.5,6.5,6.5s6.5-2.916,6.5-6.5S241.084,132,237.5,132L237.5,132z"/>
						</g>
					</g>
					<g>
						<g>
							<g>
								<path fill="#FFFFFF" d="M237.728,141.225v-1.184h-2.271v-0.57l2.064-3.229h0.978v3.146h0.578v0.653h-0.585v1.184H237.728z
									 M237.734,139.388v-2.401l-1.542,2.401H237.734z"/>
							</g>
						</g>
					</g>
				</g>
				<g>
					<g>
						<g>
							<path fill="#00BDCC" d="M237.5,164c-3.033,0-5.5-2.468-5.5-5.5s2.467-5.5,5.5-5.5s5.5,2.468,5.5,5.5S240.533,164,237.5,164z"
								/>
							<path fill="#FFFFFF" d="M237.5,154c2.484,0,4.5,2.016,4.5,4.5s-2.016,4.5-4.5,4.5s-4.5-2.016-4.5-4.5S235.016,154,237.5,154
								 M237.5,152c-3.584,0-6.5,2.916-6.5,6.5s2.916,6.5,6.5,6.5s6.5-2.916,6.5-6.5S241.084,152,237.5,152L237.5,152z"/>
						</g>
					</g>
					<g>
						<g>
							<g>
								<path fill="#FFFFFF" d="M236.024,156.242h2.478v0.675h-1.886l-0.138,1.473c0.227-0.186,0.53-0.33,0.97-0.33
									c0.702,0,1.349,0.386,1.349,1.521c0,1.047-0.682,1.728-1.728,1.728c-0.736,0-1.411-0.337-1.535-1.218l0.709-0.145
									c0.069,0.393,0.269,0.715,0.839,0.715c0.461,0,0.909-0.303,0.909-1.053c0-0.681-0.365-0.9-0.812-0.9
									c-0.324,0-0.599,0.15-0.819,0.364l-0.53-0.228L236.024,156.242z"/>
							</g>
						</g>
					</g>
				</g>
				<g>
					<g>
						<g opacity="0.5">
							<g>
								<g>
									<circle fill="#FFFFFF" cx="57" cy="79" r="2.005"/>
								</g>
							</g>
						</g>
					</g>
					<g>
						<g opacity="0.5">
							<g>
								<g>
									<circle fill="#FFFFFF" cx="86.333" cy="79" r="2.005"/>
								</g>
							</g>
						</g>
					</g>
					<g>
						<g opacity="0.5">
							<g>
								<g>
									<circle fill="#FFFFFF" cx="115.667" cy="79" r="2.005"/>
								</g>
							</g>
						</g>
					</g>
					<g>
						<g opacity="0.5">
							<g>
								<g>
									<circle fill="#FFFFFF" cx="145.5" cy="79" r="2.005"/>
								</g>
							</g>
						</g>
					</g>
					<g>
						<g opacity="0.5">
							<g>
								<g>
									<circle fill="#FFFFFF" cx="175" cy="79" r="2.005"/>
								</g>
							</g>
						</g>
					</g>
					<g>
						<g opacity="0.5">
							<g>
								<g>
									<circle fill="#FFFFFF" cx="204.5" cy="79" r="2.005"/>
								</g>
							</g>
						</g>
					</g>
					<g>
						<g opacity="0.5">
							<g>
								<g>
									<circle fill="#FFFFFF" cx="57" cy="99" r="2.005"/>
								</g>
							</g>
						</g>
					</g>
					<g>
						<g opacity="0.5">
							<g>
								<g>
									<circle fill="#FFFFFF" cx="86.333" cy="99" r="2.005"/>
								</g>
							</g>
						</g>
					</g>
					<g>
						<g opacity="0.5">
							<g>
								<g>
									<circle fill="#FFFFFF" cx="115.667" cy="99" r="2.005"/>
								</g>
							</g>
						</g>
					</g>
					<g>
						<g opacity="0.5">
							<g>
								<g>
									<circle fill="#FFFFFF" cx="145.5" cy="99" r="2.005"/>
								</g>
							</g>
						</g>
					</g>
					<g>
						<g opacity="0.5">
							<g>
								<g>
									<circle fill="#FFFFFF" cx="175" cy="99" r="2.005"/>
								</g>
							</g>
						</g>
					</g>
					<g>
						<g opacity="0.5">
							<g>
								<g>
									<circle fill="#FFFFFF" cx="204.5" cy="99" r="2.005"/>
								</g>
							</g>
						</g>
					</g>
					<g>
						<g opacity="0.5">
							<g>
								<g>
									<circle fill="#FFFFFF" cx="57" cy="119" r="2.005"/>
								</g>
							</g>
						</g>
					</g>
					<g>
						<g opacity="0.5">
							<g>
								<g>
									<circle fill="#FFFFFF" cx="86.333" cy="119" r="2.005"/>
								</g>
							</g>
						</g>
					</g>
					<g>
						<g opacity="0.5">
							<g>
								<g>
									<circle fill="#FFFFFF" cx="115.667" cy="119" r="2.005"/>
								</g>
							</g>
						</g>
					</g>
					<g>
						<g opacity="0.5">
							<g>
								<g>
									<circle fill="#FFFFFF" cx="145.5" cy="119" r="2.005"/>
								</g>
							</g>
						</g>
					</g>
					<g>
						<g opacity="0.5">
							<g>
								<g>
									<circle fill="#FFFFFF" cx="175" cy="119" r="2.005"/>
								</g>
							</g>
						</g>
					</g>
					<g>
						<g opacity="0.5">
							<g>
								<g>
									<circle fill="#FFFFFF" cx="204.5" cy="119" r="2.005"/>
								</g>
							</g>
						</g>
					</g>
					<g>
						<g opacity="0.5">
							<g>
								<g>
									<circle fill="#FFFFFF" cx="57" cy="139" r="2.005"/>
								</g>
							</g>
						</g>
					</g>
					<g>
						<g opacity="0.5">
							<g>
								<g>
									<circle fill="#FFFFFF" cx="86.333" cy="139" r="2.005"/>
								</g>
							</g>
						</g>
					</g>
					<g>
						<g opacity="0.5">
							<g>
								<g>
									<circle fill="#FFFFFF" cx="115.667" cy="139" r="2.005"/>
								</g>
							</g>
						</g>
					</g>
					<g>
						<g opacity="0.5">
							<g>
								<g>
									<circle fill="#FFFFFF" cx="145.5" cy="139" r="2.005"/>
								</g>
							</g>
						</g>
					</g>
					<g>
						<g opacity="0.5">
							<g>
								<g>
									<circle fill="#FFFFFF" cx="175" cy="139" r="2.005"/>
								</g>
							</g>
						</g>
					</g>
					<g>
						<g opacity="0.5">
							<g>
								<g>
									<circle fill="#FFFFFF" cx="204.5" cy="139" r="2.005"/>
								</g>
							</g>
						</g>
					</g>
					<g>
						<g opacity="0.5">
							<g>
								<g>
									<circle fill="#FFFFFF" cx="57" cy="159" r="2.005"/>
								</g>
							</g>
						</g>
					</g>
					<g>
						<g opacity="0.5">
							<g>
								<g>
									<circle fill="#FFFFFF" cx="86.333" cy="159" r="2.005"/>
								</g>
							</g>
						</g>
					</g>
					<g>
						<g opacity="0.5">
							<g>
								<g>
									<circle fill="#FFFFFF" cx="115.667" cy="159" r="2.005"/>
								</g>
							</g>
						</g>
					</g>
					<g>
						<g opacity="0.5">
							<g>
								<g>
									<circle fill="#FFFFFF" cx="145.5" cy="159" r="2.005"/>
								</g>
							</g>
						</g>
					</g>
					<g>
						<g opacity="0.5">
							<g>
								<g>
									<circle fill="#FFFFFF" cx="175" cy="159" r="2.005"/>
								</g>
							</g>
						</g>
					</g>
					<g>
						<g opacity="0.5">
							<g>
								<g>
									<circle fill="#FFFFFF" cx="204.5" cy="159" r="2.005"/>
								</g>
							</g>
						</g>
					</g>
				</g>
			</g>
		</g>
	</g>
</g>
</svg>
