<?xml version="1.0" encoding="utf-8"?>
<!-- Generator: Adobe Illustrator 16.0.0, SVG Export Plug-In . SVG Version: 6.00 Build 0)  -->
<!DOCTYPE svg PUBLIC "-//W3C//DTD SVG 1.1//EN" "http://www.w3.org/Graphics/SVG/1.1/DTD/svg11.dtd">
<svg version="1.1" xmlns="http://www.w3.org/2000/svg" xmlns:xlink="http://www.w3.org/1999/xlink" x="0px" y="0px" width="300px"
	 height="225px" viewBox="0 0 300 225" enable-background="new 0 0 300 225" xml:space="preserve">
<g id="Focus_Background">
</g>
<g id="Focus">
	<g>
		<rect x="75" y="42" fill="#C9AC80" width="77" height="67"/>
		<rect x="75" y="111" opacity="0.7" fill="#C9AC80" width="77" height="72"/>
		<rect x="154" y="42" opacity="0.7" fill="#C9AC80" width="43" height="47"/>
		<polygon opacity="0.9" fill="#C9AC80" points="154,111 154,122 175,122 175,91 154,91 154,109 154,110 		"/>
		<rect x="177" y="124" opacity="0.5" fill="#C9AC80" width="20" height="18"/>
		<rect x="154" y="144" opacity="0.7" fill="#C9AC80" width="21" height="16"/>
		<rect x="154" y="162" opacity="0.8" fill="#C9AC80" width="21" height="21"/>
		<rect x="154" y="124" fill="#C9AC80" width="21" height="18"/>
		<rect x="177" y="144" opacity="0.5" fill="#C9AC80" width="20" height="16"/>
		<rect x="177" y="162" opacity="0.5" fill="#C9AC80" width="20" height="21"/>
		<rect x="199" y="138" opacity="0.5" fill="#C9AC80" width="8" height="13"/>
		<rect x="199" y="153" opacity="0.6" fill="#C9AC80" width="8" height="12"/>
		<rect x="199" y="167" opacity="0.9" fill="#C9AC80" width="8" height="16"/>
		<rect x="199" y="124" opacity="0.8" fill="#C9AC80" width="8" height="12"/>
		<rect x="209" y="124" opacity="0.5" fill="#C9AC80" width="7" height="12"/>
		<rect x="209" y="138" opacity="0.8" fill="#C9AC80" width="7" height="13"/>
		<rect x="209" y="167" fill="#C9AC80" width="7" height="16"/>
		<rect x="209" y="153" opacity="0.7" fill="#C9AC80" width="7" height="12"/>
		<rect x="218" y="153" opacity="0.3" fill="#C9AC80" width="6" height="12"/>
		<rect x="218" y="124" opacity="0.3" fill="#C9AC80" width="6" height="12"/>
		<rect x="218" y="138" opacity="0.3" fill="#C9AC80" width="6" height="13"/>
		<rect x="218" y="167" opacity="0.3" fill="#C9AC80" width="6" height="16"/>
		<rect x="177" y="91" opacity="0.7" fill="#C9AC80" width="20" height="31"/>
		<polygon opacity="0.5" fill="#C9AC80" points="199,91 199,122 207.5,122 208.5,122 209.5,122 216.5,122 217.5,122 218.5,122 
			224,122 224,91 		"/>
		<rect x="199" y="42" opacity="0.8" fill="#C9AC80" width="25" height="47"/>
		<rect x="177" y="124" opacity="0.9" fill="#C9AC80" width="20" height="18"/>
		<rect x="218" y="153" opacity="0.6" fill="#C9AC80" width="6" height="12"/>
		<rect x="218" y="124" opacity="0.6" fill="#C9AC80" width="6" height="12"/>
		<rect x="218" y="138" opacity="0.5" fill="#C9AC80" width="6" height="13"/>
		<rect x="218" y="167" opacity="0.9" fill="#C9AC80" width="6" height="16"/>
	</g>
	<rect x="63.5" y="30.5" fill="none" stroke="#C9AC80" stroke-width="3" stroke-miterlimit="10" width="172" height="164"/>
</g>
<g id="Default">
</g>
<g id="_x5F_sources_vector">
</g>
</svg>
